<?xml version="1.0" encoding="utf-8"?>
<!-- Generator: Adobe Illustrator 19.1.0, SVG Export Plug-In . SVG Version: 6.00 Build 0)  -->
<svg version="1.1" id="Layer_1" xmlns="http://www.w3.org/2000/svg" xmlns:xlink="http://www.w3.org/1999/xlink" x="0px" y="0px"
	 viewBox="0 0 517 372" style="enable-background:new 0 0 517 372;" xml:space="preserve">
<style type="text/css">
	.st0{fill:#FEFBEA;stroke:#826D5A;stroke-width:0.5;stroke-miterlimit:10;}
	.st1{fill:#826D5A;}
	.st2{fill:#FEFBEA;}
	.st3{fill:none;}
	.st4{clip-path:url(#SVGID_2_);}
	.st5{clip-path:url(#SVGID_4_);}
	.st6{clip-path:url(#SVGID_6_);}
	.st7{clip-path:url(#SVGID_8_);}
	.st8{clip-path:url(#SVGID_10_);}
	.st9{clip-path:url(#SVGID_12_);}
	.st10{fill:#604E3B;}
	.st11{fill:#685445;}
</style>
<path class="st0" d="M0,372h517V29.9C517,13.4,503.6,0,487.1,0H29.9C13.4,0,0,13.4,0,29.9V372z"/>
<g>
	<polygon class="st1" points="16.5,351.2 68.9,351.2 68.9,306.2 16.5,306.2 32.2,328.7 	"/>
	<polygon class="st2" points="18.9,349.9 67.9,349.9 67.9,307.4 18.9,307.4 33.9,328.7 	"/>
	<polygon class="st1" points="22.3,314.2 68.7,314.2 68.7,310.9 20.1,310.9 	"/>
	<polygon class="st1" points="19.7,347.1 68.7,347.1 68.7,343.8 21.9,343.8 	"/>
</g>
<polygon class="st1" points="44.3,326.5 69,351.2 69,326.5 "/>
<g>
	<polygon class="st1" points="500.5,351.2 448.1,351.2 448.1,306.2 500.5,306.2 484.8,328.7 	"/>
	<polygon class="st2" points="498.2,349.9 449.2,349.9 449.2,307.4 498.1,307.4 483.2,328.7 	"/>
	<polygon class="st1" points="494.7,314.2 448.3,314.2 448.3,310.9 496.9,310.9 	"/>
	<polygon class="st1" points="497.3,347.1 448.3,347.1 448.3,343.8 495.1,343.8 	"/>
</g>
<g>
	<g>
		<path class="st1" d="M131.2,34.1v-9.4h1.3l3,4.7c0.7,1.1,1.2,2.1,1.7,3l0,0c-0.1-1.2-0.1-2.4-0.1-3.8v-3.9h1.1v9.4H137l-3-4.7
			c-0.7-1-1.3-2.1-1.7-3.1l0,0c0.1,1.2,0.1,2.3,0.1,3.9v4H131.2z"/>
		<path class="st1" d="M141.4,24.2h1.2v4.2h0c0.2-0.3,0.5-0.7,0.9-0.9c0.4-0.2,0.8-0.3,1.3-0.3c0.9,0,2.3,0.6,2.3,2.9v4h-1.2v-3.9
			c0-1.1-0.4-2-1.6-2c-0.8,0-1.4,0.6-1.6,1.2c-0.1,0.2-0.1,0.3-0.1,0.6v4.1h-1.2V24.2z"/>
		<path class="st1" d="M153.8,34.1l-0.1-0.8h0c-0.4,0.5-1.1,1-2.1,1c-1.4,0-2.1-1-2.1-1.9c0-1.6,1.4-2.5,4-2.5v-0.1
			c0-0.6-0.2-1.6-1.5-1.6c-0.6,0-1.3,0.2-1.7,0.5l-0.3-0.8c0.6-0.4,1.4-0.6,2.2-0.6c2.1,0,2.6,1.4,2.6,2.7v2.5c0,0.6,0,1.2,0.1,1.6
			H153.8z M151.7,24.4l1.2,2h-0.9l-1.7-2H151.7z M153.6,30.6c-1.3,0-2.8,0.2-2.8,1.5c0,0.8,0.5,1.2,1.2,1.2c0.9,0,1.4-0.6,1.6-1.1
			c0-0.1,0.1-0.3,0.1-0.4V30.6z"/>
		<path class="st1" d="M163.1,25.4v1.9h1.8v0.9h-1.8v3.6c0,0.8,0.2,1.3,0.9,1.3c0.3,0,0.6,0,0.7-0.1l0.1,0.9
			c-0.2,0.1-0.6,0.2-1.1,0.2c-0.6,0-1-0.2-1.3-0.5c-0.3-0.4-0.5-1-0.5-1.7v-3.7h-1v-0.9h1v-1.6L163.1,25.4z"/>
		<path class="st1" d="M167.2,29.4c0-0.8,0-1.5-0.1-2.1h1.1l0,1.3h0.1c0.3-0.9,1-1.5,1.9-1.5c0.1,0,0.2,0,0.3,0v1.2
			c-0.1,0-0.3,0-0.4,0c-0.9,0-1.5,0.7-1.6,1.6c0,0.2-0.1,0.4-0.1,0.6v3.6h-1.2V29.4z"/>
		<path class="st1" d="M176.4,34.1l-0.1-0.8h0c-0.4,0.5-1.1,1-2.1,1c-1.4,0-2.1-1-2.1-1.9c0-1.6,1.4-2.5,4-2.5v-0.1
			c0-0.6-0.2-1.6-1.5-1.6c-0.6,0-1.3,0.2-1.7,0.5l-0.3-0.8c0.6-0.4,1.4-0.6,2.2-0.6c2.1,0,2.6,1.4,2.6,2.7v2.5c0,0.6,0,1.2,0.1,1.6
			H176.4z M176.2,30.6c-1.3,0-2.8,0.2-2.8,1.5c0,0.8,0.5,1.2,1.2,1.2c0.9,0,1.4-0.6,1.6-1.1c0-0.1,0.1-0.3,0.1-0.4V30.6z"/>
		<path class="st1" d="M181.7,25.5c0,0.4-0.3,0.7-0.8,0.7c-0.4,0-0.7-0.3-0.7-0.7c0-0.4,0.3-0.8,0.8-0.8
			C181.4,24.7,181.7,25,181.7,25.5z M180.3,34.1v-6.7h1.2v6.7H180.3z"/>
		<path class="st1" d="M99.1,53v-9.4h1.3l3,4.7c0.7,1.1,1.2,2.1,1.7,3l0,0c-0.1-1.3-0.1-2.4-0.1-3.8v-3.9h1.1V53h-1.2l-3-4.7
			c-0.7-1-1.3-2.1-1.7-3.1l0,0c0.1,1.2,0.1,2.3,0.1,3.9v4H99.1z"/>
		<path class="st1" d="M116.4,52.6c-0.5,0.2-1.6,0.5-2.9,0.5c-1.4,0-2.6-0.4-3.5-1.2c-0.8-0.8-1.3-2-1.3-3.5c0-2.8,1.9-4.8,5.1-4.8
			c1.1,0,1.9,0.2,2.3,0.4l-0.3,1c-0.5-0.2-1.1-0.4-2.1-0.4c-2.3,0-3.8,1.4-3.8,3.8c0,2.4,1.4,3.8,3.6,3.8c0.8,0,1.3-0.1,1.6-0.3
			v-2.8h-1.9v-1h3.1V52.6z"/>
		<path class="st1" d="M120.4,43.7v5.5c0,2.1,0.9,3,2.2,3c1.4,0,2.3-0.9,2.3-3v-5.5h1.2v5.5c0,2.9-1.5,4.1-3.5,4.1
			c-1.9,0-3.4-1.1-3.4-4v-5.5H120.4z"/>
		<path class="st1" d="M131.2,53v-4l-3-5.4h1.4l1.3,2.6c0.4,0.7,0.6,1.3,0.9,1.9h0c0.3-0.6,0.6-1.2,0.9-1.9l1.3-2.6h1.4l-3.1,5.4v4
			H131.2z"/>
		<path class="st1" d="M142.4,48.6h-3.6V52h4.1v1h-5.3v-9.4h5.1v1h-3.8v3h3.6V48.6z M140.6,41.6l1.5,1.6h-1l-0.9-1h0l-0.9,1h-1
			l1.4-1.6H140.6z M138.5,41.4c0-0.8,0.3-1.3,0.9-1.3c0.3,0,0.5,0.1,0.9,0.3c0.2,0.1,0.4,0.2,0.6,0.2c0.2,0,0.3-0.1,0.4-0.6h0.7
			c0,0.9-0.3,1.3-0.9,1.3c-0.3,0-0.6-0.1-0.8-0.3c-0.3-0.2-0.4-0.2-0.6-0.2c-0.2,0-0.3,0.2-0.4,0.6H138.5z"/>
		<path class="st1" d="M145.3,53v-9.4h1.3l3,4.7c0.7,1.1,1.2,2.1,1.7,3l0,0c-0.1-1.3-0.1-2.4-0.1-3.8v-3.9h1.1V53h-1.2l-3-4.7
			c-0.7-1-1.3-2.1-1.7-3.1l0,0c0.1,1.2,0.1,2.3,0.1,3.9v4H145.3z"/>
		<path class="st1" d="M160.9,53l-3.1-9.4h1.3l1.5,4.6c0.4,1.3,0.8,2.4,1,3.5h0c0.3-1.1,0.7-2.3,1.1-3.5l1.6-4.6h1.3l-3.3,9.4H160.9
			z"/>
		<path class="st1" d="M168.3,50.1l-1,2.9H166l3.2-9.4h1.5l3.2,9.4h-1.3l-1-2.9H168.3z M168.9,41.7c0.1,0.3,0.3,0.7,1,0.7
			c0.7,0,0.9-0.3,1-0.7h0.7c0,0.8-0.5,1.5-1.7,1.5c-1.2,0-1.7-0.7-1.7-1.5H168.9z M171.3,49.1l-0.9-2.7c-0.2-0.6-0.3-1.2-0.5-1.7h0
			c-0.1,0.6-0.3,1.1-0.5,1.7l-0.9,2.7H171.3z"/>
		<path class="st1" d="M176.2,53v-9.4h1.3l3,4.7c0.7,1.1,1.2,2.1,1.7,3l0,0c-0.1-1.3-0.1-2.4-0.1-3.8v-3.9h1.1V53H182l-3-4.7
			c-0.7-1-1.3-2.1-1.7-3.1l0,0c0.1,1.2,0.1,2.3,0.1,3.9v4H176.2z"/>
		<path class="st1" d="M189.2,47.8h1.2v-4c0.7-0.1,1.6-0.2,2.6-0.2c1.7,0,3,0.4,3.8,1.2c0.8,0.8,1.3,1.9,1.3,3.4
			c0,1.5-0.5,2.8-1.3,3.7c-0.9,0.9-2.3,1.3-4.1,1.3c-0.9,0-1.6,0-2.2-0.1v-4.3h-1.2V47.8z M194,48.8h-2.5v3.3c0.3,0,0.8,0.1,1.2,0.1
			c2.6,0,4-1.4,4-4c0-2.2-1.2-3.6-3.8-3.6c-0.6,0-1.1,0.1-1.4,0.1v3.1h2.5V48.8z"/>
		<path class="st1" d="M201.8,50.1l-1,2.9h-1.3l3.2-9.4h1.5l3.2,9.4h-1.3l-1-2.9H201.8z M204.9,49.1l-0.9-2.7
			c-0.2-0.6-0.3-1.2-0.5-1.7h0c-0.1,0.6-0.3,1.1-0.5,1.7l-0.9,2.7H204.9z M202.8,54.8c0-0.4,0.3-0.7,0.7-0.7c0.4,0,0.7,0.3,0.7,0.7
			s-0.3,0.7-0.7,0.7C203.1,55.5,202.8,55.2,202.8,54.8z"/>
		<path class="st1" d="M210.5,44.7h-2.8v-1h6.9v1h-2.9V53h-1.2V44.7z"/>
		<path class="st1" d="M78,72v-9.4h1.3l3,4.7c0.7,1.1,1.2,2.1,1.7,3l0,0c-0.1-1.3-0.1-2.4-0.1-3.8v-3.9H85V72h-1.2l-3-4.7
			c-0.7-1-1.3-2.1-1.7-3.1l0,0c0.1,1.2,0.1,2.3,0.1,3.9v4H78z"/>
		<path class="st1" d="M95.2,71.6c-0.5,0.2-1.6,0.5-2.9,0.5c-1.4,0-2.6-0.4-3.5-1.2c-0.8-0.8-1.3-2-1.3-3.5c0-2.8,1.9-4.8,5.1-4.8
			c1.1,0,1.9,0.2,2.3,0.4l-0.3,1c-0.5-0.2-1.1-0.4-2.1-0.4c-2.3,0-3.8,1.4-3.8,3.8c0,2.4,1.4,3.8,3.6,3.8c0.8,0,1.3-0.1,1.6-0.3
			v-2.8h-1.9v-1h3.1V71.6z"/>
		<path class="st1" d="M99.2,62.6v5.5c0,2.1,0.9,3,2.2,3c1.4,0,2.3-0.9,2.3-3v-5.5h1.2v5.5c0,2.9-1.5,4.1-3.5,4.1
			c-1.9,0-3.4-1.1-3.4-4v-5.5H99.2z"/>
		<path class="st1" d="M110.1,72v-4l-3-5.4h1.4l1.3,2.6c0.4,0.7,0.6,1.3,0.9,1.9h0c0.3-0.6,0.6-1.2,0.9-1.9l1.3-2.6h1.4l-3.1,5.4v4
			H110.1z"/>
		<path class="st1" d="M121.2,67.6h-3.6V71h4.1v1h-5.3v-9.4h5.1v1h-3.8v3h3.6V67.6z M119.5,60.6l1.5,1.6h-1l-0.9-1h0l-0.9,1h-1
			l1.4-1.6H119.5z M117.4,60.4c0-0.8,0.3-1.3,0.9-1.3c0.3,0,0.5,0.1,0.9,0.3c0.2,0.1,0.4,0.2,0.6,0.2c0.2,0,0.3-0.1,0.4-0.6h0.7
			c0,0.9-0.3,1.3-0.9,1.3c-0.3,0-0.6-0.1-0.8-0.3c-0.3-0.2-0.4-0.2-0.6-0.2c-0.2,0-0.3,0.2-0.4,0.6H117.4z"/>
		<path class="st1" d="M124.2,72v-9.4h1.3l3,4.7c0.7,1.1,1.2,2.1,1.7,3l0,0c-0.1-1.3-0.1-2.4-0.1-3.8v-3.9h1.1V72H130l-3-4.7
			c-0.7-1-1.3-2.1-1.7-3.1l0,0c0.1,1.2,0.1,2.3,0.1,3.9v4H124.2z"/>
		<path class="st1" d="M139.4,63.7h-2.8v-1h6.9v1h-2.9V72h-1.2V63.7z"/>
		<path class="st1" d="M146.7,62.6v3.9h4.5v-3.9h1.2V72h-1.2v-4.4h-4.5V72h-1.2v-9.4H146.7z"/>
		<path class="st1" d="M155.4,73.8c0-0.4,0.3-0.7,0.7-0.7c0.4,0,0.7,0.3,0.7,0.7s-0.3,0.7-0.7,0.7C155.7,74.5,155.4,74.2,155.4,73.8
			z M156.7,62.6V72h-1.2v-9.4H156.7z"/>
		<path class="st1" d="M164.9,62.6v3.9h4.5v-3.9h1.2V72h-1.2v-4.4h-4.5V72h-1.2v-9.4H164.9z"/>
		<path class="st1" d="M181.7,67.2c0,3.2-2,4.9-4.3,4.9c-2.5,0-4.2-1.9-4.2-4.7c0-3,1.8-4.9,4.3-4.9
			C180.1,62.5,181.7,64.5,181.7,67.2z M174.5,67.4c0,2,1.1,3.8,3,3.8c1.9,0,3-1.8,3-3.9c0-1.9-1-3.8-3-3.8
			C175.5,63.5,174.5,65.3,174.5,67.4z M178,60.6l1.3,1.6h-1l-0.8-1h0l-0.8,1h-0.9l1.3-1.6H178z M179.2,59.8l1,1.5h-0.7l-1.5-1.5
			H179.2z"/>
		<path class="st1" d="M184.3,72v-9.4h1.3l3,4.7c0.7,1.1,1.2,2.1,1.7,3l0,0c-0.1-1.3-0.1-2.4-0.1-3.8v-3.9h1.1V72h-1.2l-3-4.7
			c-0.7-1-1.3-2.1-1.7-3.1l0,0c0.1,1.2,0.1,2.3,0.1,3.9v4H184.3z"/>
		<path class="st1" d="M201.5,71.6c-0.5,0.2-1.6,0.5-2.9,0.5c-1.4,0-2.6-0.4-3.5-1.2c-0.8-0.8-1.3-2-1.3-3.5c0-2.8,1.9-4.8,5.1-4.8
			c1.1,0,1.9,0.2,2.3,0.4l-0.3,1c-0.5-0.2-1.1-0.4-2.1-0.4c-2.3,0-3.8,1.4-3.8,3.8c0,2.4,1.4,3.8,3.6,3.8c0.8,0,1.3-0.1,1.6-0.3
			v-2.8h-1.9v-1h3.1V71.6z"/>
		<path class="st1" d="M208.2,72v-9.4h1.3l3,4.7c0.7,1.1,1.2,2.1,1.7,3l0,0c-0.1-1.3-0.1-2.4-0.1-3.8v-3.9h1.1V72H214l-3-4.7
			c-0.7-1-1.3-2.1-1.7-3.1l0,0c0.1,1.2,0.1,2.3,0.1,3.9v4H208.2z"/>
		<path class="st1" d="M225.5,71.6c-0.5,0.2-1.6,0.5-2.9,0.5c-1.4,0-2.6-0.4-3.5-1.2c-0.8-0.8-1.3-2-1.3-3.5c0-2.8,1.9-4.8,5.1-4.8
			c1.1,0,1.9,0.2,2.3,0.4l-0.3,1c-0.5-0.2-1.1-0.4-2.1-0.4c-2.3,0-3.8,1.4-3.8,3.8c0,2.4,1.4,3.8,3.6,3.8c0.8,0,1.3-0.1,1.6-0.3
			v-2.8h-1.9v-1h3.1V71.6z"/>
		<path class="st1" d="M229.8,69.1l-1,2.9h-1.3l3.2-9.4h1.5l3.2,9.4h-1.3l-1-2.9H229.8z M232.9,68.1l-0.9-2.7
			c-0.2-0.6-0.3-1.2-0.5-1.7h0c-0.1,0.6-0.3,1.1-0.5,1.7l-0.9,2.7H232.9z"/>
	</g>
	<g>
		<path class="st1" d="M350.5,34.1v-9.4h1.3l3,4.7c0.7,1.1,1.2,2.1,1.7,3l0,0c-0.1-1.2-0.1-2.4-0.1-3.8v-3.9h1.1v9.4h-1.2l-3-4.7
			c-0.7-1-1.3-2.1-1.7-3.1l0,0c0.1,1.2,0.1,2.3,0.1,3.9v4H350.5z"/>
		<path class="st1" d="M360.7,24.2h1.2v4.2h0c0.2-0.3,0.5-0.7,0.9-0.9c0.4-0.2,0.8-0.3,1.3-0.3c0.9,0,2.3,0.6,2.3,2.9v4h-1.2v-3.9
			c0-1.1-0.4-2-1.6-2c-0.8,0-1.4,0.6-1.6,1.2c-0.1,0.2-0.1,0.3-0.1,0.6v4.1h-1.2V24.2z"/>
		<path class="st1" d="M373.1,34.1l-0.1-0.8h0c-0.4,0.5-1.1,1-2.1,1c-1.4,0-2.1-1-2.1-1.9c0-1.6,1.4-2.5,4-2.5v-0.1
			c0-0.6-0.2-1.6-1.5-1.6c-0.6,0-1.3,0.2-1.7,0.5l-0.3-0.8c0.6-0.4,1.4-0.6,2.2-0.6c2.1,0,2.6,1.4,2.6,2.7v2.5c0,0.6,0,1.2,0.1,1.6
			H373.1z M371.1,24.4l1.2,2h-0.9l-1.7-2H371.1z M373,30.6c-1.3,0-2.8,0.2-2.8,1.5c0,0.8,0.5,1.2,1.2,1.2c0.9,0,1.4-0.6,1.6-1.1
			c0-0.1,0.1-0.3,0.1-0.4V30.6z"/>
		<path class="st1" d="M386.8,27.3c0,0.5-0.1,1-0.1,1.8v3.9c0,1.5-0.3,2.5-1,3.1c-0.7,0.6-1.6,0.8-2.4,0.8c-0.8,0-1.7-0.2-2.2-0.6
			l0.3-0.9c0.4,0.3,1.1,0.5,2,0.5c1.3,0,2.2-0.7,2.2-2.3v-0.7h0c-0.4,0.6-1.1,1.1-2.1,1.1c-1.7,0-2.9-1.4-2.9-3.3
			c0-2.3,1.5-3.6,3-3.6c1.2,0,1.8,0.6,2.1,1.2h0l0.1-1H386.8z M385.5,30c0-0.2,0-0.4-0.1-0.6c-0.2-0.7-0.8-1.3-1.7-1.3
			c-1.2,0-2,1-2,2.5c0,1.3,0.7,2.4,2,2.4c0.8,0,1.4-0.5,1.7-1.2c0.1-0.2,0.1-0.4,0.1-0.7V30z"/>
		<path class="st1" d="M393.4,34.1l-0.1-0.8h0c-0.4,0.5-1.1,1-2.1,1c-1.4,0-2.1-1-2.1-1.9c0-1.6,1.4-2.5,4-2.5v-0.1
			c0-0.6-0.2-1.6-1.5-1.6c-0.6,0-1.3,0.2-1.7,0.5l-0.3-0.8c0.6-0.4,1.4-0.6,2.2-0.6c2.1,0,2.6,1.4,2.6,2.7v2.5c0,0.6,0,1.2,0.1,1.6
			H393.4z M393.3,30.6c-1.3,0-2.8,0.2-2.8,1.5c0,0.8,0.5,1.2,1.2,1.2c0.9,0,1.4-0.6,1.6-1.1c0-0.1,0.1-0.3,0.1-0.4V30.6z
			 M393.9,24.4l-1.7,2h-0.9l1.2-2H393.9z"/>
		<path class="st1" d="M398.7,25.5c0,0.4-0.3,0.7-0.8,0.7c-0.4,0-0.7-0.3-0.7-0.7c0-0.4,0.3-0.8,0.8-0.8
			C398.5,24.7,398.7,25,398.7,25.5z M397.4,34.1v-6.7h1.2v6.7H397.4z"/>
		<path class="st1" d="M316.2,52.7c-0.4,0.2-1.3,0.4-2.5,0.4c-2.6,0-4.6-1.7-4.6-4.7c0-2.9,2-4.9,4.9-4.9c1.2,0,1.9,0.3,2.2,0.4
			l-0.3,1c-0.5-0.2-1.1-0.4-1.9-0.4c-2.2,0-3.7,1.4-3.7,3.9c0,2.3,1.3,3.8,3.6,3.8c0.7,0,1.5-0.2,2-0.4L316.2,52.7z"/>
		<path class="st1" d="M319.9,43.7v3.9h4.5v-3.9h1.2V53h-1.2v-4.4h-4.5V53h-1.2v-9.4H319.9z"/>
		<path class="st1" d="M329.9,43.7v5.5c0,2.1,0.9,3,2.2,3c1.4,0,2.3-0.9,2.3-3v-5.5h1.2v5.5c0,2.9-1.5,4.1-3.5,4.1
			c-1.9,0-3.4-1.1-3.4-4v-5.5H329.9z"/>
		<path class="st1" d="M344.1,53l-3.1-9.4h1.3l1.5,4.6c0.4,1.3,0.8,2.4,1,3.5h0c0.3-1.1,0.7-2.3,1.1-3.5l1.6-4.6h1.3l-3.3,9.4H344.1
			z"/>
		<path class="st1" d="M358.9,42.2c0.1,0.3,0.2,0.7,0.2,1c0,0.7-0.4,1.2-1.3,1.2l-0.2,0v4.7c0,2.9-1.5,4.1-3.5,4.1
			c-1.9,0-3.4-1.1-3.4-4v-5.5h1.2v5.5c0,2.1,0.9,3,2.2,3c1.4,0,2.3-0.9,2.3-3v-5.5h1.1c0.5,0,0.6-0.2,0.6-0.5c0-0.3-0.1-0.6-0.2-0.8
			L358.9,42.2z"/>
		<path class="st1" d="M369.3,42.6c0.1,0.3,0.3,0.7,0.3,1.1c0,0.8-0.5,1.3-1.5,1.2c0.6,0.7,1.1,1.8,1.1,3.3c0,3.2-2,4.9-4.3,4.9
			c-2.5,0-4.2-1.9-4.2-4.7c0-3,1.8-4.9,4.3-4.9c0.6,0,1.1,0.1,1.4,0.2c0.4,0.1,1.1,0.5,1.5,0.5c0.5,0,0.6-0.2,0.6-0.6
			c0-0.3-0.1-0.6-0.2-0.9L369.3,42.6z M367.9,48.3c0-1.9-1-3.8-3-3.8c-2,0-3,1.9-3,3.9c0,2,1.1,3.8,3,3.8S367.9,50.4,367.9,48.3z"/>
		<path class="st1" d="M371.7,53v-9.4h1.3l3,4.7c0.7,1.1,1.2,2.1,1.7,3l0,0c-0.1-1.3-0.1-2.4-0.1-3.8v-3.9h1.1V53h-1.2l-3-4.7
			c-0.7-1-1.3-2.1-1.7-3.1l0,0c0.1,1.2,0.1,2.3,0.1,3.9v4H371.7z"/>
		<path class="st1" d="M388.9,52.6c-0.5,0.2-1.6,0.5-2.9,0.5c-1.4,0-2.6-0.4-3.5-1.2c-0.8-0.8-1.3-2-1.3-3.5c0-2.8,1.9-4.8,5.1-4.8
			c1.1,0,1.9,0.2,2.3,0.4l-0.3,1c-0.5-0.2-1.1-0.4-2.1-0.4c-2.3,0-3.8,1.4-3.8,3.8c0,2.4,1.4,3.8,3.6,3.8c0.8,0,1.3-0.1,1.6-0.3
			v-2.8h-1.9v-1h3.1V52.6z"/>
		<path class="st1" d="M396.8,44.7H394v-1h6.9v1h-2.9V53h-1.2V44.7z"/>
		<path class="st1" d="M404.1,43.7v3.9h4.5v-3.9h1.2V53h-1.2v-4.4h-4.5V53h-1.2v-9.4H404.1z"/>
		<path class="st1" d="M414.5,50.1l-1,2.9h-1.3l3.2-9.4h1.5l3.2,9.4h-1.3l-1-2.9H414.5z M415.6,41.6l1.3,1.6h-1l-1.8-1.6H415.6z
			 M417.5,49.1l-0.9-2.7c-0.2-0.6-0.3-1.2-0.5-1.7h0c-0.1,0.6-0.3,1.1-0.5,1.7l-0.9,2.7H417.5z"/>
		<path class="st1" d="M422.4,53v-9.4h1.3l3,4.7c0.7,1.1,1.2,2.1,1.7,3l0,0c-0.1-1.3-0.1-2.4-0.1-3.8v-3.9h1.1V53h-1.2l-3-4.7
			c-0.7-1-1.3-2.1-1.7-3.1l0,0c0.1,1.2,0.1,2.3,0.1,3.9v4H422.4z"/>
		<path class="st1" d="M433.7,43.7v3.9h4.5v-3.9h1.2V53h-1.2v-4.4h-4.5V53h-1.2v-9.4H433.7z"/>
		<path class="st1" d="M316.9,62.8c0.6-0.1,1.3-0.2,2.3-0.2c1.2,0,2.1,0.3,2.6,0.8c0.5,0.4,0.8,1.1,0.8,2c0,0.8-0.3,1.5-0.7,2
			c-0.6,0.7-1.7,1-2.9,1c-0.4,0-0.7,0-1-0.1V72h-1.2V62.8z M318.1,67.3c0.3,0.1,0.6,0.1,1,0.1c1.5,0,2.3-0.7,2.3-2
			c0-1.2-0.9-1.8-2.2-1.8c-0.5,0-0.9,0-1.1,0.1V67.3z"/>
		<path class="st1" d="M326.5,62.6v3.9h4.5v-3.9h1.2V72H331v-4.4h-4.5V72h-1.2v-9.4H326.5z"/>
		<path class="st1" d="M336.8,69.1l-1,2.9h-1.3l3.2-9.4h1.5l3.2,9.4h-1.3l-1-2.9H336.8z M339.9,68.1l-0.9-2.7
			c-0.2-0.6-0.3-1.2-0.5-1.7h0c-0.1,0.6-0.3,1.1-0.5,1.7l-0.9,2.7H339.9z M337.8,73.8c0-0.4,0.3-0.7,0.7-0.7c0.4,0,0.7,0.3,0.7,0.7
			s-0.3,0.7-0.7,0.7C338.1,74.5,337.8,74.2,337.8,73.8z"/>
		<path class="st1" d="M352.6,67.9c-0.1-1.3-0.2-2.9-0.1-4h0c-0.3,1.1-0.7,2.3-1.2,3.6l-1.7,4.5h-0.9l-1.5-4.5
			c-0.4-1.3-0.8-2.5-1.1-3.6h0c0,1.2-0.1,2.7-0.2,4.1l-0.3,4h-1.2l0.7-9.4h1.5l1.6,4.5c0.4,1.2,0.7,2.2,0.9,3.2h0
			c0.2-0.9,0.6-2,1-3.2l1.7-4.5h1.5L354,72h-1.2L352.6,67.9z"/>
		<path class="st1" d="M362,63.7h-2.8v-1h6.9v1h-2.9V72H362V63.7z"/>
		<path class="st1" d="M369.3,62.6v3.9h4.5v-3.9h1.2V72h-1.2v-4.4h-4.5V72h-1.2v-9.4H369.3z"/>
		<path class="st1" d="M378,73.8c0-0.4,0.3-0.7,0.7-0.7c0.4,0,0.7,0.3,0.7,0.7s-0.3,0.7-0.7,0.7C378.3,74.5,378,74.2,378,73.8z
			 M379.3,62.6V72h-1.2v-9.4H379.3z"/>
		<path class="st1" d="M386.3,62.8c0.6-0.1,1.3-0.2,2.3-0.2c1.2,0,2.1,0.3,2.6,0.8c0.5,0.4,0.8,1.1,0.8,2c0,0.8-0.3,1.5-0.7,2
			c-0.6,0.7-1.7,1-2.9,1c-0.4,0-0.7,0-1-0.1V72h-1.2V62.8z M387.5,67.3c0.3,0.1,0.6,0.1,1,0.1c1.5,0,2.3-0.7,2.3-2
			c0-1.2-0.9-1.8-2.2-1.8c-0.5,0-0.9,0-1.1,0.1V67.3z"/>
		<path class="st1" d="M395.9,62.6v3.9h4.5v-3.9h1.2V72h-1.2v-4.4h-4.5V72h-1.2v-9.4H395.9z"/>
		<path class="st1" d="M412.7,67.2c0,3.2-2,4.9-4.3,4.9c-2.5,0-4.2-1.9-4.2-4.7c0-3,1.8-4.9,4.3-4.9C411,62.5,412.7,64.5,412.7,67.2
			z M405.4,67.4c0,2,1.1,3.8,3,3.8c1.9,0,3-1.8,3-3.9c0-1.9-1-3.8-3-3.8C406.4,63.5,405.4,65.3,405.4,67.4z"/>
		<path class="st1" d="M415.2,72v-9.4h1.3l3,4.7c0.7,1.1,1.2,2.1,1.7,3l0,0c-0.1-1.3-0.1-2.4-0.1-3.8v-3.9h1.1V72H421l-3-4.7
			c-0.7-1-1.3-2.1-1.7-3.1l0,0c0.1,1.2,0.1,2.3,0.1,3.9v4H415.2z"/>
		<path class="st1" d="M432.4,71.6c-0.5,0.2-1.6,0.5-2.9,0.5c-1.4,0-2.6-0.4-3.5-1.2c-0.8-0.8-1.3-2-1.3-3.5c0-2.8,1.9-4.8,5.1-4.8
			c1.1,0,1.9,0.2,2.3,0.4l-0.3,1c-0.5-0.2-1.1-0.4-2.1-0.4c-2.3,0-3.8,1.4-3.8,3.8c0,2.4,1.4,3.8,3.6,3.8c0.8,0,1.3-0.1,1.6-0.3
			v-2.8h-1.9v-1h3.1V71.6z"/>
	</g>
	<path class="st1" d="M159.9,84c-0.5-3.7-3.7-6.6-7.6-6.6c-3.9,0-7.1,2.9-7.6,6.6h-18.3v1.1h18.2c0,4.3,3.5,7.7,7.7,7.7
		c4.3,0,7.7-3.5,7.7-7.7h17.9V84H159.9z M152.8,89.2l-0.6,0.6l-0.6-0.6c-2.1-1.9-3.5-3.2-3.5-4.7c0-1.3,1-2.3,2.3-2.3
		c0.7,0,1.4,0.3,1.8,0.9c0.5-0.5,1.1-0.9,1.8-0.9c1.3,0,2.3,1,2.3,2.3C156.4,86,155,87.3,152.8,89.2z"/>
	<path class="st1" d="M384.3,84c-0.5-3.7-3.7-6.6-7.6-6.6c-3.9,0-7.1,2.9-7.6,6.6h-18.3v1.1H369c0,4.3,3.5,7.7,7.7,7.7
		c4.3,0,7.7-3.5,7.7-7.7h17.9V84H384.3z M377.3,89.2l-0.6,0.6l-0.6-0.6c-2.1-1.9-3.5-3.2-3.5-4.7c0-1.3,1-2.3,2.3-2.3
		c0.7,0,1.4,0.3,1.8,0.9c0.5-0.5,1.1-0.9,1.8-0.9c1.3,0,2.3,1,2.3,2.3C380.8,86,379.4,87.3,377.3,89.2z"/>
</g>
<g>
	<path class="st1" d="M50.2,111.2h-3.6v-1.3h8.8v1.3h-3.6v10.6h-1.6V111.2z"/>
	<path class="st1" d="M56.3,115.9c0-1,0-1.9-0.1-2.7h1.4l0.1,1.7h0.1c0.4-1.2,1.3-1.9,2.4-1.9c0.2,0,0.3,0,0.4,0.1v1.5
		c-0.2,0-0.3-0.1-0.5-0.1c-1.1,0-1.9,0.8-2.1,2c0,0.2-0.1,0.5-0.1,0.7v4.6h-1.5V115.9z"/>
	<path class="st1" d="M67.2,121.8l-0.1-1.1H67c-0.5,0.7-1.4,1.3-2.6,1.3c-1.7,0-2.6-1.2-2.6-2.5c0-2.1,1.8-3.2,5.2-3.2v-0.2
		c0-0.7-0.2-2-1.9-2c-0.8,0-1.6,0.2-2.2,0.6l-0.4-1c0.7-0.5,1.7-0.8,2.8-0.8c2.6,0,3.3,1.8,3.3,3.5v3.2c0,0.7,0,1.5,0.1,2.1H67.2z
		 M65.9,109.6l1.7,2.5h-1.2l-1-1.7h0l-1,1.7h-1.2l1.7-2.5H65.9z M67,117.5c-1.7,0-3.6,0.3-3.6,1.9c0,1,0.7,1.5,1.5,1.5
		c1.1,0,1.8-0.7,2.1-1.4c0.1-0.2,0.1-0.3,0.1-0.5V117.5z"/>
	<path class="st1" d="M71.5,115.6c0-0.9,0-1.6-0.1-2.3h1.4l0.1,1.4h0c0.4-0.8,1.4-1.6,2.8-1.6c1.2,0,3,0.7,3,3.6v5.1h-1.6v-4.9
		c0-1.4-0.5-2.5-2-2.5c-1,0-1.8,0.7-2.1,1.6c-0.1,0.2-0.1,0.5-0.1,0.7v5.2h-1.6V115.6z"/>
	<path class="st1" d="M87.5,111.2h-3.6v-1.3h8.8v1.3h-3.6v10.6h-1.6V111.2z"/>
	<path class="st1" d="M93.6,115.9c0-1,0-1.9-0.1-2.7h1.4L95,115h0.1c0.4-1.2,1.3-1.9,2.4-1.9c0.2,0,0.3,0,0.4,0.1v1.5
		c-0.2,0-0.3-0.1-0.5-0.1c-1.1,0-1.9,0.8-2.1,2c0,0.2-0.1,0.5-0.1,0.7v4.6h-1.5V115.9z"/>
	<path class="st1" d="M107.5,117.5c0,3.2-2.2,4.6-4.3,4.6c-2.3,0-4.1-1.7-4.1-4.4c0-2.9,1.9-4.6,4.3-4.6
		C105.8,113.1,107.5,114.9,107.5,117.5z M100.7,117.6c0,1.9,1.1,3.3,2.6,3.3c1.5,0,2.6-1.4,2.6-3.3c0-1.5-0.7-3.3-2.6-3.3
		C101.5,114.2,100.7,115.9,100.7,117.6z M104.1,124.2c0,0.5-0.4,0.9-0.9,0.9c-0.5,0-0.9-0.4-0.9-0.9s0.4-0.9,0.9-0.9
		C103.8,123.3,104.1,123.7,104.1,124.2z"/>
	<path class="st1" d="M109.9,115.6c0-0.9,0-1.6-0.1-2.3h1.4l0.1,1.4h0c0.4-0.8,1.4-1.6,2.8-1.6c1.2,0,3,0.7,3,3.6v5.1h-1.6v-4.9
		c0-1.4-0.5-2.5-2-2.5c-1,0-1.8,0.7-2.1,1.6c-0.1,0.2-0.1,0.5-0.1,0.7v5.2h-1.6V115.6z"/>
	<path class="st1" d="M127.5,113.3c0,0.6-0.1,1.3-0.1,2.4v5c0,2-0.4,3.2-1.2,3.9c-0.8,0.8-2,1-3.1,1c-1,0-2.2-0.2-2.9-0.7l0.4-1.2
		c0.6,0.4,1.5,0.7,2.5,0.7c1.6,0,2.8-0.8,2.8-3v-1h0c-0.5,0.8-1.4,1.4-2.7,1.4c-2.1,0-3.6-1.8-3.6-4.2c0-2.9,1.9-4.6,3.9-4.6
		c1.5,0,2.3,0.8,2.7,1.5h0l0.1-1.3H127.5z M125.9,116.7c0-0.3,0-0.5-0.1-0.7c-0.3-0.9-1-1.6-2.2-1.6c-1.5,0-2.6,1.3-2.6,3.2
		c0,1.7,0.9,3.1,2.5,3.1c1,0,1.8-0.6,2.2-1.6c0.1-0.3,0.1-0.6,0.1-0.8V116.7z"/>
	<path class="st1" d="M134.7,109.9h1.5v5.8h0.1c0.3-0.5,0.6-0.9,0.9-1.3l3.6-4.5h1.9l-4.3,5.1l4.7,6.9h-1.8l-3.9-5.9l-1.1,1.3v4.6
		h-1.5V109.9z"/>
	<path class="st1" d="M148.1,109.6l-2.2,2.5h-1.1l1.6-2.5H148.1z M144.9,121.8v-8.6h1.6v8.6H144.9z"/>
	<path class="st1" d="M149.5,115.6c0-0.9,0-1.6-0.1-2.3h1.4l0.1,1.4h0c0.4-0.8,1.4-1.6,2.8-1.6c1.2,0,3,0.7,3,3.6v5.1h-1.6v-4.9
		c0-1.4-0.5-2.5-2-2.5c-1,0-1.8,0.7-2.1,1.6c-0.1,0.2-0.1,0.5-0.1,0.7v5.2h-1.6V115.6z"/>
	<path class="st1" d="M159.7,109.3h1.6v5.4h0c0.2-0.4,0.6-0.8,1.1-1.1c0.5-0.3,1-0.4,1.6-0.4c1.2,0,3,0.7,3,3.7v5.1h-1.6v-4.9
		c0-1.4-0.5-2.6-2-2.6c-1,0-1.8,0.7-2.1,1.6c-0.1,0.2-0.1,0.4-0.1,0.7v5.2h-1.6V109.3z"/>
	<path class="st1" d="M184.3,116.6c-0.1-1.7-0.2-3.7-0.2-5.2h-0.1c-0.4,1.4-0.9,2.9-1.5,4.5l-2.1,5.8h-1.2l-1.9-5.7
		c-0.6-1.7-1-3.2-1.4-4.6h0c0,1.5-0.1,3.5-0.2,5.3l-0.3,5.1h-1.5l0.8-11.9h2l2,5.8c0.5,1.5,0.9,2.8,1.2,4h0.1c0.3-1.2,0.7-2.5,1.3-4
		l2.1-5.8h2l0.7,11.9h-1.5L184.3,116.6z"/>
	<path class="st1" d="M197.2,111.8c0.2,0.4,0.3,0.8,0.3,1.3c0,1-0.6,1.6-1.6,1.5c0.6,0.7,0.9,1.7,0.9,2.8c0,3.2-2.2,4.6-4.3,4.6
		c-2.3,0-4.1-1.7-4.1-4.4c0-2.9,1.9-4.6,4.3-4.6c0.5,0,1,0.1,1.5,0.2c0.4,0.1,1,0.5,1.5,0.5c0.5,0,0.7-0.2,0.7-0.7
		c0-0.4-0.1-0.7-0.3-1L197.2,111.8z M190,117.6c0,1.9,1.1,3.3,2.6,3.3c1.5,0,2.6-1.4,2.6-3.3c0-1.5-0.7-3.3-2.6-3.3
		C190.8,114.2,190,115.9,190,117.6z M192,109.6l1.6,2.5h-1.1l-2.2-2.5H192z"/>
	<path class="st1" d="M201,110.9c0,0.5-0.4,1-1,1c-0.5,0-0.9-0.4-0.9-1c0-0.5,0.4-1,1-1C200.6,109.9,201,110.3,201,110.9z
		 M199.2,121.8v-8.6h1.6v8.6H199.2z"/>
	<path class="st1" d="M203.4,114.7c0-0.7,0.4-1.1,1.1-1.1s1,0.5,1,1.1c0,0.6-0.4,1.1-1.1,1.1C203.9,115.8,203.4,115.3,203.4,114.7z
		 M203.4,120.9c0-0.7,0.4-1.1,1.1-1.1s1,0.5,1,1.1c0,0.6-0.4,1.1-1.1,1.1C203.9,122,203.4,121.6,203.4,120.9z"/>
	<path class="st1" d="M211.8,120.9c0-0.7,0.4-1.1,1.1-1.1s1,0.5,1,1.1c0,0.6-0.4,1.1-1.1,1.1C212.2,122,211.8,121.6,211.8,120.9z"/>
	<path class="st1" d="M215.9,120.9c0-0.7,0.4-1.1,1.1-1.1s1,0.5,1,1.1c0,0.6-0.4,1.1-1.1,1.1C216.3,122,215.9,121.6,215.9,120.9z"/>
	<path class="st1" d="M220,120.9c0-0.7,0.4-1.1,1.1-1.1s1,0.5,1,1.1c0,0.6-0.4,1.1-1.1,1.1C220.4,122,220,121.6,220,120.9z"/>
	<path class="st1" d="M224.1,120.9c0-0.7,0.4-1.1,1.1-1.1s1,0.5,1,1.1c0,0.6-0.4,1.1-1.1,1.1C224.5,122,224.1,121.6,224.1,120.9z"/>
	<path class="st1" d="M228.2,120.9c0-0.7,0.4-1.1,1.1-1.1s1,0.5,1,1.1c0,0.6-0.4,1.1-1.1,1.1C228.6,122,228.2,121.6,228.2,120.9z"/>
	<path class="st1" d="M232.3,120.9c0-0.7,0.4-1.1,1.1-1.1s1,0.5,1,1.1c0,0.6-0.4,1.1-1.1,1.1C232.7,122,232.3,121.6,232.3,120.9z"/>
	<path class="st1" d="M236.4,120.9c0-0.7,0.4-1.1,1.1-1.1s1,0.5,1,1.1c0,0.6-0.4,1.1-1.1,1.1C236.8,122,236.4,121.6,236.4,120.9z"/>
	<path class="st1" d="M240.5,120.9c0-0.7,0.4-1.1,1.1-1.1s1,0.5,1,1.1c0,0.6-0.4,1.1-1.1,1.1C240.9,122,240.5,121.6,240.5,120.9z"/>
	<path class="st1" d="M244.6,120.9c0-0.7,0.4-1.1,1.1-1.1s1,0.5,1,1.1c0,0.6-0.4,1.1-1.1,1.1C245,122,244.6,121.6,244.6,120.9z"/>
	<path class="st1" d="M248.7,120.9c0-0.7,0.4-1.1,1.1-1.1s1,0.5,1,1.1c0,0.6-0.4,1.1-1.1,1.1C249.1,122,248.7,121.6,248.7,120.9z"/>
	<path class="st1" d="M252.8,120.9c0-0.7,0.4-1.1,1.1-1.1s1,0.5,1,1.1c0,0.6-0.4,1.1-1.1,1.1C253.3,122,252.8,121.6,252.8,120.9z"/>
	<path class="st1" d="M256.9,120.9c0-0.7,0.4-1.1,1.1-1.1s1,0.5,1,1.1c0,0.6-0.4,1.1-1.1,1.1C257.4,122,256.9,121.6,256.9,120.9z"/>
	<path class="st1" d="M261,120.9c0-0.7,0.4-1.1,1.1-1.1s1,0.5,1,1.1c0,0.6-0.4,1.1-1.1,1.1C261.5,122,261,121.6,261,120.9z"/>
	<path class="st1" d="M265.2,120.9c0-0.7,0.4-1.1,1.1-1.1s1,0.5,1,1.1c0,0.6-0.4,1.1-1.1,1.1C265.6,122,265.2,121.6,265.2,120.9z"/>
	<path class="st1" d="M269.3,120.9c0-0.7,0.4-1.1,1.1-1.1s1,0.5,1,1.1c0,0.6-0.4,1.1-1.1,1.1C269.7,122,269.3,121.6,269.3,120.9z"/>
	<path class="st1" d="M273.4,120.9c0-0.7,0.4-1.1,1.1-1.1s1,0.5,1,1.1c0,0.6-0.4,1.1-1.1,1.1C273.8,122,273.4,121.6,273.4,120.9z"/>
	<path class="st1" d="M277.5,120.9c0-0.7,0.4-1.1,1.1-1.1s1,0.5,1,1.1c0,0.6-0.4,1.1-1.1,1.1C277.9,122,277.5,121.6,277.5,120.9z"/>
	<path class="st1" d="M281.6,120.9c0-0.7,0.4-1.1,1.1-1.1s1,0.5,1,1.1c0,0.6-0.4,1.1-1.1,1.1C282,122,281.6,121.6,281.6,120.9z"/>
	<path class="st1" d="M285.7,120.9c0-0.7,0.4-1.1,1.1-1.1s1,0.5,1,1.1c0,0.6-0.4,1.1-1.1,1.1C286.1,122,285.7,121.6,285.7,120.9z"/>
	<path class="st1" d="M289.8,120.9c0-0.7,0.4-1.1,1.1-1.1s1,0.5,1,1.1c0,0.6-0.4,1.1-1.1,1.1C290.2,122,289.8,121.6,289.8,120.9z"/>
	<path class="st1" d="M293.9,120.9c0-0.7,0.4-1.1,1.1-1.1s1,0.5,1,1.1c0,0.6-0.4,1.1-1.1,1.1C294.3,122,293.9,121.6,293.9,120.9z"/>
	<path class="st1" d="M298,120.9c0-0.7,0.4-1.1,1.1-1.1s1,0.5,1,1.1c0,0.6-0.4,1.1-1.1,1.1C298.4,122,298,121.6,298,120.9z"/>
	<path class="st1" d="M302.1,120.9c0-0.7,0.4-1.1,1.1-1.1s1,0.5,1,1.1c0,0.6-0.4,1.1-1.1,1.1C302.6,122,302.1,121.6,302.1,120.9z"/>
	<path class="st1" d="M306.2,120.9c0-0.7,0.4-1.1,1.1-1.1s1,0.5,1,1.1c0,0.6-0.4,1.1-1.1,1.1C306.7,122,306.2,121.6,306.2,120.9z"/>
	<path class="st1" d="M310.3,120.9c0-0.7,0.4-1.1,1.1-1.1s1,0.5,1,1.1c0,0.6-0.4,1.1-1.1,1.1C310.8,122,310.3,121.6,310.3,120.9z"/>
	<path class="st1" d="M314.5,120.9c0-0.7,0.4-1.1,1.1-1.1s1,0.5,1,1.1c0,0.6-0.4,1.1-1.1,1.1C314.9,122,314.5,121.6,314.5,120.9z"/>
	<path class="st1" d="M318.6,120.9c0-0.7,0.4-1.1,1.1-1.1s1,0.5,1,1.1c0,0.6-0.4,1.1-1.1,1.1C319,122,318.6,121.6,318.6,120.9z"/>
	<path class="st1" d="M322.7,120.9c0-0.7,0.4-1.1,1.1-1.1s1,0.5,1,1.1c0,0.6-0.4,1.1-1.1,1.1C323.1,122,322.7,121.6,322.7,120.9z"/>
	<path class="st1" d="M326.8,120.9c0-0.7,0.4-1.1,1.1-1.1s1,0.5,1,1.1c0,0.6-0.4,1.1-1.1,1.1C327.2,122,326.8,121.6,326.8,120.9z"/>
	<path class="st1" d="M330.9,120.9c0-0.7,0.4-1.1,1.1-1.1s1,0.5,1,1.1c0,0.6-0.4,1.1-1.1,1.1C331.3,122,330.9,121.6,330.9,120.9z"/>
	<path class="st1" d="M335,120.9c0-0.7,0.4-1.1,1.1-1.1s1,0.5,1,1.1c0,0.6-0.4,1.1-1.1,1.1C335.4,122,335,121.6,335,120.9z"/>
	<path class="st1" d="M339.1,120.9c0-0.7,0.4-1.1,1.1-1.1s1,0.5,1,1.1c0,0.6-0.4,1.1-1.1,1.1C339.5,122,339.1,121.6,339.1,120.9z"/>
	<path class="st1" d="M343.2,120.9c0-0.7,0.4-1.1,1.1-1.1s1,0.5,1,1.1c0,0.6-0.4,1.1-1.1,1.1C343.6,122,343.2,121.6,343.2,120.9z"/>
	<path class="st1" d="M347.3,120.9c0-0.7,0.4-1.1,1.1-1.1s1,0.5,1,1.1c0,0.6-0.4,1.1-1.1,1.1C347.7,122,347.3,121.6,347.3,120.9z"/>
	<path class="st1" d="M351.4,120.9c0-0.7,0.4-1.1,1.1-1.1s1,0.5,1,1.1c0,0.6-0.4,1.1-1.1,1.1C351.8,122,351.4,121.6,351.4,120.9z"/>
	<path class="st1" d="M355.5,120.9c0-0.7,0.4-1.1,1.1-1.1s1,0.5,1,1.1c0,0.6-0.4,1.1-1.1,1.1C356,122,355.5,121.6,355.5,120.9z"/>
	<path class="st1" d="M359.6,120.9c0-0.7,0.4-1.1,1.1-1.1s1,0.5,1,1.1c0,0.6-0.4,1.1-1.1,1.1C360.1,122,359.6,121.6,359.6,120.9z"/>
	<path class="st1" d="M363.7,120.9c0-0.7,0.4-1.1,1.1-1.1s1,0.5,1,1.1c0,0.6-0.4,1.1-1.1,1.1C364.2,122,363.7,121.6,363.7,120.9z"/>
	<path class="st1" d="M367.9,120.9c0-0.7,0.4-1.1,1.1-1.1s1,0.5,1,1.1c0,0.6-0.4,1.1-1.1,1.1C368.3,122,367.9,121.6,367.9,120.9z"/>
	<path class="st1" d="M372,120.9c0-0.7,0.4-1.1,1.1-1.1s1,0.5,1,1.1c0,0.6-0.4,1.1-1.1,1.1C372.4,122,372,121.6,372,120.9z"/>
	<path class="st1" d="M376.1,120.9c0-0.7,0.4-1.1,1.1-1.1s1,0.5,1,1.1c0,0.6-0.4,1.1-1.1,1.1C376.5,122,376.1,121.6,376.1,120.9z"/>
	<path class="st1" d="M380.2,120.9c0-0.7,0.4-1.1,1.1-1.1s1,0.5,1,1.1c0,0.6-0.4,1.1-1.1,1.1C380.6,122,380.2,121.6,380.2,120.9z"/>
	<path class="st1" d="M384.3,120.9c0-0.7,0.4-1.1,1.1-1.1s1,0.5,1,1.1c0,0.6-0.4,1.1-1.1,1.1C384.7,122,384.3,121.6,384.3,120.9z"/>
	<path class="st1" d="M388.4,120.9c0-0.7,0.4-1.1,1.1-1.1s1,0.5,1,1.1c0,0.6-0.4,1.1-1.1,1.1C388.8,122,388.4,121.6,388.4,120.9z"/>
	<path class="st1" d="M392.5,120.9c0-0.7,0.4-1.1,1.1-1.1s1,0.5,1,1.1c0,0.6-0.4,1.1-1.1,1.1C392.9,122,392.5,121.6,392.5,120.9z"/>
	<path class="st1" d="M396.6,120.9c0-0.7,0.4-1.1,1.1-1.1s1,0.5,1,1.1c0,0.6-0.4,1.1-1.1,1.1C397,122,396.6,121.6,396.6,120.9z"/>
	<path class="st1" d="M400.7,120.9c0-0.7,0.4-1.1,1.1-1.1s1,0.5,1,1.1c0,0.6-0.4,1.1-1.1,1.1C401.1,122,400.7,121.6,400.7,120.9z"/>
	<path class="st1" d="M404.8,120.9c0-0.7,0.4-1.1,1.1-1.1s1,0.5,1,1.1c0,0.6-0.4,1.1-1.1,1.1C405.3,122,404.8,121.6,404.8,120.9z"/>
	<path class="st1" d="M408.9,120.9c0-0.7,0.4-1.1,1.1-1.1s1,0.5,1,1.1c0,0.6-0.4,1.1-1.1,1.1C409.4,122,408.9,121.6,408.9,120.9z"/>
	<path class="st1" d="M413,120.9c0-0.7,0.4-1.1,1.1-1.1s1,0.5,1,1.1c0,0.6-0.4,1.1-1.1,1.1C413.5,122,413,121.6,413,120.9z"/>
	<path class="st1" d="M417.1,120.9c0-0.7,0.4-1.1,1.1-1.1s1,0.5,1,1.1c0,0.6-0.4,1.1-1.1,1.1C417.6,122,417.1,121.6,417.1,120.9z"/>
	<path class="st1" d="M421.3,120.9c0-0.7,0.4-1.1,1.1-1.1s1,0.5,1,1.1c0,0.6-0.4,1.1-1.1,1.1C421.7,122,421.3,121.6,421.3,120.9z"/>
	<path class="st1" d="M425.4,120.9c0-0.7,0.4-1.1,1.1-1.1s1,0.5,1,1.1c0,0.6-0.4,1.1-1.1,1.1C425.8,122,425.4,121.6,425.4,120.9z"/>
	<path class="st1" d="M429.5,120.9c0-0.7,0.4-1.1,1.1-1.1s1,0.5,1,1.1c0,0.6-0.4,1.1-1.1,1.1C429.9,122,429.5,121.6,429.5,120.9z"/>
	<path class="st1" d="M433.6,120.9c0-0.7,0.4-1.1,1.1-1.1s1,0.5,1,1.1c0,0.6-0.4,1.1-1.1,1.1C434,122,433.6,121.6,433.6,120.9z"/>
	<path class="st1" d="M437.7,120.9c0-0.7,0.4-1.1,1.1-1.1s1,0.5,1,1.1c0,0.6-0.4,1.1-1.1,1.1C438.1,122,437.7,121.6,437.7,120.9z"/>
	<path class="st1" d="M441.8,120.9c0-0.7,0.4-1.1,1.1-1.1s1,0.5,1,1.1c0,0.6-0.4,1.1-1.1,1.1C442.2,122,441.8,121.6,441.8,120.9z"/>
	<path class="st1" d="M445.9,120.9c0-0.7,0.4-1.1,1.1-1.1s1,0.5,1,1.1c0,0.6-0.4,1.1-1.1,1.1C446.3,122,445.9,121.6,445.9,120.9z"/>
	<path class="st1" d="M450,120.9c0-0.7,0.4-1.1,1.1-1.1s1,0.5,1,1.1c0,0.6-0.4,1.1-1.1,1.1C450.4,122,450,121.6,450,120.9z"/>
	<path class="st1" d="M454.1,120.9c0-0.7,0.4-1.1,1.1-1.1s1,0.5,1,1.1c0,0.6-0.4,1.1-1.1,1.1C454.5,122,454.1,121.6,454.1,120.9z"/>
	<path class="st1" d="M458.2,120.9c0-0.7,0.4-1.1,1.1-1.1s1,0.5,1,1.1c0,0.6-0.4,1.1-1.1,1.1C458.7,122,458.2,121.6,458.2,120.9z"/>
	<path class="st1" d="M462.3,120.9c0-0.7,0.4-1.1,1.1-1.1s1,0.5,1,1.1c0,0.6-0.4,1.1-1.1,1.1C462.8,122,462.3,121.6,462.3,120.9z"/>
	<path class="st1" d="M466.4,120.9c0-0.7,0.4-1.1,1.1-1.1s1,0.5,1,1.1c0,0.6-0.4,1.1-1.1,1.1C466.9,122,466.4,121.6,466.4,120.9z"/>
</g>
<g>
	<path class="st1" d="M237.9,168.1h-3.6v-1.3h8.8v1.3h-3.6v10.6h-1.6V168.1z"/>
	<path class="st1" d="M251.8,168.7c0.2,0.4,0.3,0.8,0.3,1.3c0,1-0.6,1.6-1.6,1.5c0.6,0.7,0.9,1.7,0.9,2.8c0,3.2-2.2,4.6-4.3,4.6
		c-2.3,0-4.1-1.7-4.1-4.4c0-2.9,1.9-4.6,4.3-4.6c0.5,0,1,0.1,1.5,0.2c0.4,0.1,1,0.5,1.5,0.5c0.5,0,0.7-0.2,0.7-0.7
		c0-0.4-0.1-0.7-0.3-1L251.8,168.7z M244.5,174.5c0,1.9,1.1,3.3,2.6,3.3c1.5,0,2.6-1.4,2.6-3.3c0-1.5-0.7-3.3-2.6-3.3
		C245.3,171.1,244.5,172.8,244.5,174.5z M249.7,166.4l-2.2,2.5h-1.1l1.6-2.5H249.7z"/>
	<path class="st1" d="M255.5,167.7c0,0.5-0.4,1-1,1c-0.5,0-0.9-0.4-0.9-1c0-0.5,0.4-1,1-1C255.2,166.8,255.5,167.2,255.5,167.7z
		 M253.8,178.7v-8.6h1.6v8.6H253.8z"/>
	<path class="st1" d="M270,166.1v10.4c0,0.8,0,1.6,0.1,2.2h-1.4l-0.1-1.5h0c-0.5,1-1.5,1.7-2.9,1.7c-2.1,0-3.7-1.8-3.7-4.4
		c0-2.9,1.8-4.6,3.8-4.6c1.3,0,2.2,0.6,2.6,1.3h0v-5.1H270z M268.4,173.6c0-0.2,0-0.5-0.1-0.7c-0.2-1-1.1-1.8-2.3-1.8
		c-1.6,0-2.6,1.4-2.6,3.3c0,1.7,0.9,3.2,2.5,3.2c1,0,2-0.7,2.3-1.9c0.1-0.2,0.1-0.4,0.1-0.7V173.6z"/>
	<path class="st1" d="M281.6,168.2c0.2,0.4,0.3,0.8,0.3,1.3c0,0.9-0.6,1.5-1.5,1.5l-0.2,0v5.4c0,0.9,0,1.7,0.1,2.3h-1.4l-0.1-1.4h0
		c-0.4,0.7-1.3,1.6-2.8,1.6c-1.3,0-3-0.7-3-3.8v-5h1.6v4.7c0,1.6,0.5,2.7,1.9,2.7c1,0,1.8-0.7,2.1-1.4c0.1-0.2,0.1-0.5,0.1-0.8v-5.3
		h1.2c0.6,0,0.8-0.2,0.8-0.7c0-0.3-0.1-0.7-0.3-1L281.6,168.2z M277.4,181c0,0.5-0.4,0.9-0.9,0.9c-0.5,0-0.9-0.4-0.9-0.9
		s0.4-0.9,0.9-0.9C277.1,180.1,277.4,180.5,277.4,181z"/>
</g>
<g>
	<path class="st1" d="M198.3,262.9c-0.4,0.2-1.3,0.5-2.5,0.5c-2.6,0-4.3-1.8-4.3-4.4c0-2.6,1.8-4.6,4.6-4.6c0.9,0,1.7,0.2,2.2,0.4
		l-0.4,1.2c-0.4-0.2-1-0.4-1.8-0.4c-2,0-3,1.5-3,3.2c0,2,1.3,3.2,3,3.2c0.9,0,1.5-0.2,1.9-0.4L198.3,262.9z"/>
	<path class="st1" d="M207.8,260.9c0,0.9,0,1.7,0.1,2.3h-1.4l-0.1-1.4h0c-0.4,0.7-1.3,1.6-2.8,1.6c-1.3,0-3-0.7-3-3.8v-5h1.6v4.7
		c0,1.6,0.5,2.7,1.9,2.7c1,0,1.8-0.7,2.1-1.4c0.1-0.2,0.1-0.5,0.1-0.8v-5.3h1.6V260.9z M203.6,253.6c0.2-0.8,1-1,1-1.7
		c0-0.4-0.3-0.6-0.6-0.6c-0.4,0-0.7,0.3-0.8,0.6l-0.6-0.4c0.3-0.6,0.8-1.2,1.7-1.2c0.8,0,1.5,0.5,1.5,1.3c0,1-0.9,1.3-1.3,2.1
		L203.6,253.6z"/>
	<path class="st1" d="M215.5,263.2l-0.1-1.1h-0.1c-0.5,0.7-1.4,1.3-2.6,1.3c-1.7,0-2.6-1.2-2.6-2.5c0-2.1,1.8-3.2,5.2-3.2v-0.2
		c0-0.7-0.2-2-1.9-2c-0.8,0-1.6,0.2-2.2,0.6l-0.4-1c0.7-0.5,1.7-0.8,2.8-0.8c2.6,0,3.3,1.8,3.3,3.5v3.2c0,0.7,0,1.5,0.1,2.1H215.5z
		 M215.3,258.8c-1.7,0-3.6,0.3-3.6,1.9c0,1,0.7,1.5,1.5,1.5c1.1,0,1.8-0.7,2.1-1.4c0.1-0.2,0.1-0.3,0.1-0.5V258.8z"/>
	<path class="st1" d="M224,250.6h1.6v5.4h0c0.2-0.4,0.6-0.8,1.1-1.1c0.5-0.3,1-0.4,1.6-0.4c1.2,0,3,0.7,3,3.7v5.1h-1.6v-4.9
		c0-1.4-0.5-2.6-2-2.6c-1,0-1.8,0.7-2.1,1.6c-0.1,0.2-0.1,0.4-0.1,0.7v5.2H224V250.6z"/>
	<path class="st1" d="M239,263.2l-0.1-1.1h-0.1c-0.5,0.7-1.4,1.3-2.6,1.3c-1.7,0-2.6-1.2-2.6-2.5c0-2.1,1.8-3.2,5.2-3.2v-0.2
		c0-0.7-0.2-2-1.9-2c-0.8,0-1.6,0.2-2.2,0.6l-0.4-1c0.7-0.5,1.7-0.8,2.8-0.8c2.6,0,3.3,1.8,3.3,3.5v3.2c0,0.7,0,1.5,0.1,2.1H239z
		 M238.8,258.8c-1.7,0-3.6,0.3-3.6,1.9c0,1,0.7,1.5,1.5,1.5c1.1,0,1.8-0.7,2.1-1.4c0.1-0.2,0.1-0.3,0.1-0.5V258.8z"/>
	<path class="st1" d="M244.9,252.2c0,0.5-0.4,1-1,1c-0.5,0-0.9-0.4-0.9-1c0-0.5,0.4-1,1-1C244.6,251.3,244.9,251.7,244.9,252.2z
		 M243.2,263.2v-8.6h1.6v8.6H243.2z"/>
	<path class="st1" d="M258.1,262.9c-0.4,0.2-1.3,0.5-2.5,0.5c-2.6,0-4.3-1.8-4.3-4.4c0-2.6,1.8-4.6,4.6-4.6c0.9,0,1.7,0.2,2.2,0.4
		l-0.4,1.2c-0.4-0.2-1-0.4-1.8-0.4c-2,0-3,1.5-3,3.2c0,2,1.3,3.2,3,3.2c0.9,0,1.5-0.2,1.9-0.4L258.1,262.9z"/>
	<path class="st1" d="M260.4,250.6h1.6v5.4h0c0.2-0.4,0.6-0.8,1.1-1.1c0.5-0.3,1-0.4,1.6-0.4c1.2,0,3,0.7,3,3.7v5.1h-1.6v-4.9
		c0-1.4-0.5-2.6-2-2.6c-1,0-1.8,0.7-2.1,1.6c-0.1,0.2-0.1,0.4-0.1,0.7v5.2h-1.6V250.6z"/>
	<path class="st1" d="M277.8,260.9c0,0.9,0,1.7,0.1,2.3h-1.4l-0.1-1.4h0c-0.4,0.7-1.3,1.6-2.8,1.6c-1.3,0-3-0.7-3-3.8v-5h1.6v4.7
		c0,1.6,0.5,2.7,1.9,2.7c1,0,1.8-0.7,2.1-1.4c0.1-0.2,0.1-0.5,0.1-0.8v-5.3h1.6V260.9z M276.8,250.9l-2.2,2.5h-1.1l1.6-2.5H276.8z"
		/>
	<path class="st1" d="M280.8,257c0-0.9,0-1.6-0.1-2.3h1.4l0.1,1.4h0c0.4-0.8,1.4-1.6,2.8-1.6c1.2,0,3,0.7,3,3.6v5.1h-1.6v-4.9
		c0-1.4-0.5-2.5-2-2.5c-1,0-1.8,0.7-2.1,1.6c-0.1,0.2-0.1,0.5-0.1,0.7v5.2h-1.6V257z"/>
	<path class="st1" d="M298.5,254.6c0,0.6-0.1,1.3-0.1,2.4v5c0,2-0.4,3.2-1.2,3.9c-0.8,0.8-2,1-3.1,1c-1,0-2.2-0.2-2.9-0.7l0.4-1.2
		c0.6,0.4,1.5,0.7,2.5,0.7c1.6,0,2.8-0.8,2.8-3v-1h0c-0.5,0.8-1.4,1.4-2.7,1.4c-2.1,0-3.6-1.8-3.6-4.2c0-2.9,1.9-4.6,3.9-4.6
		c1.5,0,2.3,0.8,2.7,1.5h0l0.1-1.3H298.5z M296.9,258c0-0.3,0-0.5-0.1-0.7c-0.3-0.9-1-1.6-2.2-1.6c-1.5,0-2.6,1.3-2.6,3.2
		c0,1.7,0.9,3.1,2.5,3.1c1,0,1.8-0.6,2.2-1.6c0.1-0.3,0.1-0.6,0.1-0.8V258z"/>
	<path class="st1" d="M307.5,252.2v2.5h2.2v1.2h-2.2v4.6c0,1.1,0.3,1.7,1.2,1.7c0.4,0,0.7-0.1,0.9-0.1l0.1,1.2
		c-0.3,0.1-0.8,0.2-1.4,0.2c-0.7,0-1.3-0.2-1.7-0.7c-0.4-0.5-0.6-1.2-0.6-2.2v-4.7h-1.3v-1.2h1.3v-2.1L307.5,252.2z"/>
	<path class="st1" d="M319.6,258.9c0,3.2-2.2,4.6-4.3,4.6c-2.3,0-4.1-1.7-4.1-4.4c0-2.9,1.9-4.6,4.3-4.6
		C317.9,254.4,319.6,256.2,319.6,258.9z M312.8,258.9c0,1.9,1.1,3.3,2.6,3.3c1.5,0,2.6-1.4,2.6-3.3c0-1.5-0.7-3.3-2.6-3.3
		C313.6,255.6,312.8,257.3,312.8,258.9z M315.9,250.9l1.7,2.5h-1.2l-1-1.7h0l-1,1.7h-1.2l1.7-2.5H315.9z"/>
	<path class="st1" d="M323.7,252.2c0,0.5-0.4,1-1,1c-0.5,0-0.9-0.4-0.9-1c0-0.5,0.4-1,1-1C323.4,251.3,323.7,251.7,323.7,252.2z
		 M322,263.2v-8.6h1.6v8.6H322z"/>
</g>
<g>
	<g>
		<path class="st3" d="M158.5,151.5l0-4.8c0,0,0.6-6.2-5.9-6.2c-6.5-0.1-16.2,6.6-30.2,5c-11.6-1.3-20.4-7.6-24.2-14.3
			c0.3,3.7,1.1,14.2,7.1,21.8c-5.2,2.1-14.2,2.3-21.1-0.7c5.7,9.5,19,20.6,46.6,21.2C152.7,173.9,158.5,151.5,158.5,151.5z"/>
		<path class="st1" d="M97.5,128.4l1.3,2.3c4.1,7.4,13.4,12.9,23.8,14c1.4,0.2,2.8,0.2,4.3,0.2c6.7,0,12.4-1.8,17-3.3
			c3.4-1.1,6.3-2,8.7-2l0.1,0c2.3,0,4,0.8,5.2,2.2c1.6,2,1.4,4.7,1.4,4.8l-0.1,4.9c-0.1,0.2-6.1,22.5-27.6,22.5c-0.2,0-0.5,0-0.7,0
			c-30.1-0.7-42.4-13.8-47-21.5l-1.1-1.7l1.8,0.8c3.2,1.4,7.3,2.2,11.4,2.2c3.1,0,6.1-0.4,8.4-1.2c-5.6-7.8-6.4-18-6.6-21.4
			L97.5,128.4z M126.8,146.3c-1.5,0-2.9-0.1-4.4-0.2c-9.7-1.1-18.6-5.9-23.3-12.6c0.5,4.6,1.8,12.8,6.7,19l0.6,0.7l-0.8,0.3
			c-2.6,1-6,1.6-9.6,1.6c-3.6,0-7.1-0.6-10.1-1.6c5.2,7.6,17.6,18.6,45,19.2c0.2,0,0.5,0,0.7,0c20,0,26-20,26.4-21.4l0-4.7
			c0-0.1,0.2-2.2-1.1-3.8c-0.9-1.1-2.3-1.7-4.3-1.7l-0.1,0c-2.3,0-5.1,0.9-8.4,1.9C139.4,144.5,133.6,146.3,126.8,146.3z"/>
	</g>
	<g>
		<path class="st2" d="M358.5,151.5l0-4.8c0,0-0.6-6.2,5.9-6.2c6.5-0.1,16.2,6.6,30.2,5c11.6-1.3,20.4-7.6,24.2-14.3
			c-0.3,3.7-1.1,14.2-7.1,21.8c5.2,2.1,14.2,2.3,21.1-0.7c-5.7,9.5-19,20.6-46.6,21.2C364.3,173.9,358.5,151.5,358.5,151.5z"/>
		<path class="st1" d="M419.6,128.4l-0.2,2.7c-0.2,3.4-1,13.7-6.6,21.4c2.3,0.8,5.3,1.2,8.4,1.2c4.1,0,8.2-0.8,11.4-2.2l1.8-0.8
			l-1.1,1.7c-4.7,7.7-17,20.8-47,21.5c-0.2,0-0.5,0-0.7,0c-21.5,0-27.5-22.2-27.6-22.5l0-0.2l0-4.8c0,0-0.2-2.7,1.4-4.7
			c1.1-1.4,2.9-2.2,5.2-2.2l0.1,0h0c2.5,0,5.4,0.9,8.7,2c4.6,1.4,10.3,3.3,17,3.3c1.4,0,2.9-0.1,4.3-0.2c10.3-1.2,19.6-6.7,23.8-14
			L419.6,128.4z M421.1,155.1c-3.6,0-7-0.6-9.6-1.6l-0.8-0.3l0.6-0.7c4.9-6.2,6.2-14.4,6.7-19c-4.8,6.7-13.6,11.5-23.3,12.6
			c-1.5,0.2-2.9,0.2-4.4,0.2c-6.9,0-12.7-1.8-17.3-3.3c-3.3-1-6.1-1.9-8.4-1.9h0l-0.1,0c-1.9,0-3.4,0.6-4.3,1.7
			c-1.3,1.6-1.1,3.7-1.1,3.8l0,4.8c0.4,1.5,6.6,21.9,27.1,21.4c27.4-0.6,39.8-11.6,45-19.2C428.2,154.6,424.7,155.1,421.1,155.1z"/>
	</g>
	<g>
		<defs>
			<path id="SVGID_1_" d="M376.5,146c0,0-13.7-11.1-18-0.2c0.1,12,1.3,28.3,1.3,28.3l16,3.9L376.5,146z"/>
		</defs>
		<clipPath id="SVGID_2_">
			<use xlink:href="#SVGID_1_"  style="overflow:visible;"/>
		</clipPath>
		<g class="st4">
			<path class="st1" d="M349.8,167.9c0.2,0.7,0.4,1.5,0.6,2.2c6.5-3.7,15.5-2.5,23.6,7.2C366,166.7,356.7,164.7,349.8,167.9z"/>
			<path class="st1" d="M349.1,165.7c0.2,0.7,0.5,1.5,0.7,2.2c6.7-4,16-3.1,24.4,6.3C365.9,163.8,356.2,162.1,349.1,165.7z"/>
			<path class="st1" d="M348.4,163.5c0.3,0.7,0.5,1.5,0.8,2.2c6.9-4.4,16.4-3.8,25.2,5.4C365.6,160.9,355.7,159.5,348.4,163.5z"/>
			<path class="st1" d="M347.5,161.4c0.3,0.7,0.6,1.4,0.9,2.1c7-4.7,16.9-4.5,26,4.3C365.2,158,355,157,347.5,161.4z"/>
			<path class="st1" d="M346.5,159.3c0.4,0.7,0.7,1.4,1,2.1c7.2-5.1,17.3-5.3,26.8,3.2C364.7,155,354.2,154.4,346.5,159.3z"/>
			<path class="st1" d="M345.4,157.3c0.4,0.7,0.8,1.3,1.1,2c7.4-5.6,17.7-6.1,27.7,2C364.1,152.1,353.3,151.9,345.4,157.3z"/>
			<path class="st1" d="M344.1,155.3c0.4,0.6,0.8,1.3,1.2,2c7.6-6.1,18.2-7.1,28.5,0.7C363.4,149.1,352.3,149.4,344.1,155.3z"/>
			<path class="st1" d="M342.8,153.5c0.5,0.6,0.9,1.2,1.3,1.9c7.7-6.6,18.6-8.1,29.3-0.8C362.5,146.1,351.1,147,342.8,153.5z"/>
			<path class="st1" d="M341.4,151.7c0.5,0.6,1,1.2,1.4,1.8c7.9-7.1,19-9.2,30.1-2.3C361.6,143.2,349.9,144.6,341.4,151.7z"/>
			<path class="st1" d="M339.8,150.1c0.5,0.5,1.1,1.1,1.5,1.7c8-7.7,19.4-10.3,30.8-3.9C360.5,140.3,348.5,142.2,339.8,150.1z"/>
		</g>
	</g>
	<g>
		<defs>
			<path id="SVGID_3_" d="M140.9,146c0,0,13.7-11.1,18-0.2c-0.1,12-1.3,28.3-1.3,28.3l-16,3.9L140.9,146z"/>
		</defs>
		<clipPath id="SVGID_4_">
			<use xlink:href="#SVGID_3_"  style="overflow:visible;"/>
		</clipPath>
		<g class="st5">
			<path class="st1" d="M167.6,167.9c-0.2,0.7-0.4,1.5-0.6,2.2c-6.5-3.7-15.5-2.5-23.6,7.2C151.4,166.7,160.7,164.7,167.6,167.9z"/>
			<path class="st1" d="M168.3,165.7c-0.2,0.7-0.5,1.5-0.7,2.2c-6.7-4-16-3.1-24.4,6.3C151.5,163.8,161.2,162.1,168.3,165.7z"/>
			<path class="st1" d="M169,163.5c-0.3,0.7-0.5,1.5-0.8,2.2c-6.9-4.4-16.4-3.8-25.2,5.4C151.8,160.9,161.7,159.5,169,163.5z"/>
			<path class="st1" d="M169.9,161.4c-0.3,0.7-0.6,1.4-0.9,2.1c-7-4.7-16.9-4.5-26,4.3C152.2,158,162.4,157,169.9,161.4z"/>
			<path class="st1" d="M170.9,159.3c-0.4,0.7-0.7,1.4-1,2.1c-7.2-5.1-17.3-5.3-26.8,3.2C152.7,155,163.2,154.4,170.9,159.3z"/>
			<path class="st1" d="M172,157.3c-0.4,0.7-0.8,1.3-1.1,2c-7.4-5.6-17.7-6.1-27.7,2C153.3,152.1,164.1,151.9,172,157.3z"/>
			<path class="st1" d="M173.3,155.3c-0.4,0.6-0.8,1.3-1.2,2c-7.6-6.1-18.2-7.1-28.5,0.7C154,149.1,165.1,149.4,173.3,155.3z"/>
			<path class="st1" d="M174.6,153.5c-0.5,0.6-0.9,1.2-1.3,1.9c-7.7-6.6-18.6-8.1-29.3-0.8C154.9,146.1,166.3,147,174.6,153.5z"/>
			<path class="st1" d="M176,151.7c-0.5,0.6-1,1.2-1.4,1.8c-7.9-7.1-19-9.2-30.1-2.3C155.8,143.2,167.5,144.6,176,151.7z"/>
			<path class="st1" d="M177.6,150.1c-0.5,0.5-1.1,1.1-1.5,1.7c-8-7.7-19.4-10.3-30.8-3.9C156.9,140.3,168.9,142.2,177.6,150.1z"/>
		</g>
	</g>
	<g>
		<path class="st2" d="M383.7,180.4c9.8-3.8,16-10.2,16.5-17.2c-0.1-1.7-0.6-3.4-1.5-4.6c-5.8-7.8-13.8,0-28.2-1.6
			c-10.5-1.2-11.4-10.6-11.4-10.6l0.2,23.8C359.8,179.9,373.2,181.3,383.7,180.4z"/>
		<path class="st1" d="M359.7,146.3c0,0.4,1,8.9,10.9,10c1.3,0.1,2.6,0.2,4,0.2c4.1,0,7.6-0.7,10.7-1.3c2.4-0.5,4.5-0.9,6.5-0.9
			c3.2,0,5.5,1.2,7.4,3.8c0.9,1.2,1.4,2.9,1.6,5l0,0.1l0,0.1c-0.6,7.2-6.9,13.9-16.9,17.8l-0.2,0c-1.8,0.2-3.6,0.2-5.3,0.2
			c-12.4,0-19.4-3.9-19.7-11.1l-0.2-23.9L359.7,146.3z M374.6,157.8c-1.4,0-2.7-0.1-4.1-0.2c-6.3-0.7-9.3-4.3-10.7-7.3l0.2,19.8
			c0.4,8.5,11.8,9.8,18.5,9.8c1.7,0,3.4-0.1,5.1-0.2c9.5-3.7,15.5-9.9,16-16.6c-0.2-1.8-0.6-3.2-1.3-4.2c-1.7-2.3-3.7-3.3-6.5-3.3
			c-1.8,0-3.9,0.4-6.3,0.9C382.3,157.1,378.7,157.8,374.6,157.8z"/>
	</g>
	<g>
		<path class="st2" d="M134,180.4c-9.8-3.8-16-10.2-16.5-17.2c0.1-1.7,0.6-3.4,1.5-4.6c5.8-7.8,13.8,0,28.2-1.6
			c10.5-1.2,11.4-10.6,11.4-10.6l-0.2,23.8C157.9,179.9,144.5,181.3,134,180.4z"/>
		<path class="st1" d="M158,146.3l1.2,0.1l-0.2,23.8c-0.3,7.2-7.3,11.1-19.7,11.1c-1.7,0-3.5-0.1-5.3-0.2l-0.2,0
			c-10-3.9-16.3-10.6-16.9-17.8l0-0.1l0-0.1c0.2-2.1,0.7-3.8,1.6-5c1.9-2.6,4.2-3.8,7.4-3.8h0c1.9,0,4.1,0.4,6.5,0.9
			c3.1,0.6,6.6,1.3,10.7,1.3c1.3,0,2.7-0.1,4-0.2C157,155.2,158,146.4,158,146.3z M139.3,180c6.7,0,18.1-1.3,18.5-9.8l0.2-19.8
			c-1.4,2.9-4.4,6.6-10.7,7.3c-1.3,0.2-2.7,0.2-4.1,0.2c-4.2,0-7.7-0.7-10.9-1.3c-2.4-0.5-4.4-0.9-6.3-0.9h0c-2.9,0-4.8,1-6.5,3.3
			c-0.7,1-1.2,2.4-1.3,4.2c0.6,6.6,6.5,12.8,16,16.6C135.9,179.9,137.6,180,139.3,180z"/>
	</g>
	<g>
		<defs>
			<path id="SVGID_5_" d="M372.9,180c0,0-13.1-0.6-13.8-9.6c-0.7-9-0.5-22-0.5-22l23,11.4L372.9,180z"/>
		</defs>
		<clipPath id="SVGID_6_">
			<use xlink:href="#SVGID_5_"  style="overflow:visible;"/>
		</clipPath>
		<g class="st6">
			<path class="st1" d="M355.7,152.5c0.4-0.4,0.8-0.7,1.1-1.1c4.6,5.7,13,9.7,22.9,7.9C369.6,161.8,360.8,158.1,355.7,152.5z"/>
			<path class="st1" d="M354.5,153.5c0.4-0.3,0.8-0.7,1.2-1c4.7,6,13.2,10.3,23.4,8.9C368.7,163.5,359.7,159.5,354.5,153.5z"/>
			<path class="st1" d="M353.1,154.5c0.5-0.3,0.9-0.6,1.3-0.9c4.8,6.3,13.4,10.9,23.8,9.9C367.6,165.1,358.4,160.8,353.1,154.5z"/>
			<path class="st1" d="M351.7,155.3c0.5-0.3,1-0.6,1.4-0.9c4.8,6.6,13.6,11.6,24.3,10.9C366.4,166.7,357.1,162,351.7,155.3z"/>
			<path class="st1" d="M350.2,156.1c0.5-0.2,1-0.5,1.5-0.8c4.9,7,13.7,12.3,24.7,12.1C365.1,168.3,355.6,163.2,350.2,156.1z"/>
			<path class="st1" d="M348.6,156.8c0.5-0.2,1.1-0.4,1.6-0.7c4.9,7.3,13.9,13.1,25,13.3C363.7,169.8,354.1,164.3,348.6,156.8z"/>
			<path class="st1" d="M347,157.3c0.6-0.2,1.1-0.4,1.6-0.6c4.9,7.7,14,13.9,25.4,14.5C362.2,171.3,352.5,165.3,347,157.3z"/>
			<path class="st1" d="M345.3,157.8c0.6-0.1,1.2-0.3,1.7-0.5c4.9,8.1,14.1,14.7,25.7,15.8C360.6,172.7,350.7,166.2,345.3,157.8z"/>
			<path class="st1" d="M343.5,158.1c0.6-0.1,1.2-0.2,1.8-0.3c4.9,8.5,14.1,15.6,25.9,17.2C358.9,174,348.9,167,343.5,158.1z"/>
			<path class="st1" d="M341.6,158.3c0.6,0,1.2-0.1,1.9-0.2c4.9,9,14.1,16.5,26.1,18.6C357,175.2,347,167.7,341.6,158.3z"/>
		</g>
	</g>
	<g>
		<defs>
			<path id="SVGID_7_" d="M143.9,180c0,0,13.1-0.6,13.8-9.6c0.7-9,0.5-22,0.5-22l-23,11.4L143.9,180z"/>
		</defs>
		<clipPath id="SVGID_8_">
			<use xlink:href="#SVGID_7_"  style="overflow:visible;"/>
		</clipPath>
		<g class="st7">
			<path class="st1" d="M161.1,152.5c-0.4-0.4-0.8-0.7-1.1-1.1c-4.6,5.7-13,9.7-22.9,7.9C147.2,161.8,156,158.1,161.1,152.5z"/>
			<path class="st1" d="M162.3,153.5c-0.4-0.3-0.8-0.7-1.2-1c-4.7,6-13.2,10.3-23.4,8.9C148.1,163.5,157.1,159.5,162.3,153.5z"/>
			<path class="st1" d="M163.7,154.5c-0.5-0.3-0.9-0.6-1.3-0.9c-4.8,6.3-13.4,10.9-23.8,9.9C149.2,165.1,158.4,160.8,163.7,154.5z"
				/>
			<path class="st1" d="M165.1,155.3c-0.5-0.3-1-0.6-1.4-0.9c-4.8,6.6-13.6,11.6-24.3,10.9C150.4,166.7,159.7,162,165.1,155.3z"/>
			<path class="st1" d="M166.6,156.1c-0.5-0.2-1-0.5-1.5-0.8c-4.9,7-13.7,12.3-24.7,12.1C151.7,168.3,161.2,163.2,166.6,156.1z"/>
			<path class="st1" d="M168.1,156.8c-0.5-0.2-1.1-0.4-1.6-0.7c-4.9,7.3-13.9,13.1-25,13.3C153.1,169.8,162.7,164.3,168.1,156.8z"/>
			<path class="st1" d="M169.8,157.3c-0.6-0.2-1.1-0.4-1.7-0.6c-4.9,7.7-14,13.9-25.4,14.5C154.6,171.3,164.3,165.3,169.8,157.3z"/>
			<path class="st1" d="M171.5,157.8c-0.6-0.1-1.2-0.3-1.7-0.5c-4.9,8.1-14.1,14.7-25.7,15.8C156.2,172.7,166.1,166.2,171.5,157.8z"
				/>
			<path class="st1" d="M173.3,158.1c-0.6-0.1-1.2-0.2-1.8-0.3c-4.9,8.5-14.1,15.6-25.9,17.2C157.9,174,167.9,167,173.3,158.1z"/>
			<path class="st1" d="M175.2,158.3c-0.6,0-1.2-0.1-1.9-0.2c-4.9,9-14.1,16.5-26.1,18.6C159.8,175.2,169.7,167.7,175.2,158.3z"/>
		</g>
	</g>
	<g>
		<g>
			<path class="st2" d="M258.7,231.1c70,0,136.9-16.8,141.1-33.8v-35.3c-1,22.5-75.3,31.9-141.1,32.1
				c-65.9-0.3-140.2-9.6-141.1-32.1v35.3C121.9,214.3,185.9,231.1,258.7,231.1z"/>
			<path class="st1" d="M118.5,161.9c0.4,9.9,16.2,18.1,45.6,23.7c25.1,4.8,58.7,7.6,94.7,7.7c36-0.1,69.7-2.9,94.7-7.7
				c29.4-5.7,45.1-13.9,45.6-23.7l1.7,0v35.4l0,0.1c-2.1,8.5-19.1,17.2-46.5,23.8c-27.6,6.7-62.4,10.6-95.5,10.6
				c-34.6,0-68.9-3.7-96.5-10.6c-26.8-6.6-43.3-15.3-45.5-23.8l0-0.2v-35.3L118.5,161.9z M258.7,194.8c-36.2-0.1-69.9-2.9-95.1-7.7
				c-25.2-4.8-40.3-11.4-45.2-19.5v29.6c4.1,15.7,64.9,33.2,140.3,33.2c33,0,67.6-3.8,95-10.5c26.7-6.5,43.2-14.8,45.3-22.7v-29.6
				c-4.9,8.1-20,14.7-45.2,19.5C328.7,191.9,294.9,194.6,258.7,194.8z"/>
		</g>
		<g>
			<defs>
				<path id="SVGID_9_" d="M394.2,203.7c0,0,4.4-1.8,5.7-5.6c1.4-3.9,0.9-13.5-1.4-34.8l-40.5,23.1l17.2,25L394.2,203.7z"/>
			</defs>
			<clipPath id="SVGID_10_">
				<use xlink:href="#SVGID_9_"  style="overflow:visible;"/>
			</clipPath>
			<g class="st8">
				<path class="st1" d="M433.7,177.5c0.9,0.4,1.8,0.7,2.7,1.1c-12.8,13.1-31.3,24.4-54.1,31.2C404.3,202.4,421.7,190.7,433.7,177.5
					z"/>
				<path class="st1" d="M431.1,176.4c0.9,0.4,1.7,0.8,2.6,1.1c-12.8,12.9-31.2,23.8-53.9,30.3C401.7,200.7,419.1,189.4,431.1,176.4
					z"/>
				<path class="st1" d="M428.5,175.2c0.8,0.4,1.7,0.8,2.5,1.2c-12.8,12.6-31.1,23.3-53.7,29.4C399.2,199,416.6,187.9,428.5,175.2z"
					/>
				<path class="st1" d="M426,174c0.8,0.4,1.6,0.8,2.5,1.2c-12.8,12.3-31,22.7-53.4,28.5C396.8,197.2,414.1,186.4,426,174z"/>
				<path class="st1" d="M423.6,172.7c0.8,0.4,1.6,0.9,2.4,1.3c-12.7,12-30.9,22.1-53.2,27.7C394.4,195.4,411.7,184.9,423.6,172.7z"
					/>
				<path class="st1" d="M421.3,171.4c0.8,0.4,1.6,0.9,2.3,1.3c-12.7,11.8-30.8,21.6-52.9,26.8C392.2,193.6,409.4,183.3,421.3,171.4
					z"/>
				<path class="st1" d="M419,170c0.7,0.5,1.5,0.9,2.3,1.4c-12.6,11.5-30.6,21.1-52.6,26C390,191.7,407.2,181.7,419,170z"/>
				<path class="st1" d="M416.8,168.6c0.7,0.5,1.5,0.9,2.2,1.4c-12.6,11.3-30.5,20.5-52.3,25.2C387.9,189.8,405,180.1,416.8,168.6z"
					/>
				<path class="st1" d="M414.7,167.2c0.7,0.5,1.4,1,2.1,1.4c-12.5,11-30.3,20-52,24.4C385.9,187.9,402.9,178.4,414.7,167.2z"/>
				<path class="st1" d="M412.6,165.7c0.7,0.5,1.4,1,2.1,1.5c-12.5,10.8-30.2,19.5-51.7,23.6C383.9,185.9,400.9,176.7,412.6,165.7z"
					/>
				<path class="st1" d="M410.6,164.2c0.7,0.5,1.3,1,2,1.5c-12.4,10.5-30,19-51.3,22.8C382,184,398.9,175,410.6,164.2z"/>
			</g>
		</g>
		<g>
			<defs>
				<path id="SVGID_11_" d="M124,203.7c0,0-4.4-1.8-5.7-5.6c-1.4-3.9-2-13,0.4-34.3l41.6,22.5L143,211.7L124,203.7z"/>
			</defs>
			<clipPath id="SVGID_12_">
				<use xlink:href="#SVGID_11_"  style="overflow:visible;"/>
			</clipPath>
			<g class="st9">
				<path class="st1" d="M84.5,177.5c-0.9,0.4-1.8,0.7-2.7,1.1c12.8,13.1,31.3,24.4,54.1,31.2C113.9,202.4,96.5,190.7,84.5,177.5z"
					/>
				<path class="st1" d="M87.1,176.4c-0.9,0.4-1.7,0.8-2.6,1.1c12.8,12.9,31.2,23.8,53.9,30.3C116.5,200.7,99.1,189.4,87.1,176.4z"
					/>
				<path class="st1" d="M89.7,175.2c-0.8,0.4-1.7,0.8-2.5,1.2c12.8,12.6,31.1,23.3,53.7,29.4C119,199,101.6,187.9,89.7,175.2z"/>
				<path class="st1" d="M92.2,174c-0.8,0.4-1.6,0.8-2.5,1.2c12.8,12.3,31,22.7,53.4,28.5C121.4,197.2,104.1,186.4,92.2,174z"/>
				<path class="st1" d="M94.6,172.7c-0.8,0.4-1.6,0.9-2.4,1.3c12.7,12,30.9,22.1,53.2,27.7C123.8,195.4,106.5,184.9,94.6,172.7z"/>
				<path class="st1" d="M96.9,171.4c-0.8,0.4-1.6,0.9-2.3,1.3c12.7,11.8,30.8,21.6,52.9,26.8C126,193.6,108.8,183.3,96.9,171.4z"/>
				<path class="st1" d="M99.2,170c-0.7,0.5-1.5,0.9-2.3,1.4c12.6,11.5,30.6,21.1,52.6,26C128.2,191.7,111,181.7,99.2,170z"/>
				<path class="st1" d="M101.4,168.6c-0.7,0.5-1.5,0.9-2.2,1.4c12.6,11.3,30.5,20.5,52.3,25.2C130.3,189.8,113.2,180.1,101.4,168.6
					z"/>
				<path class="st1" d="M103.5,167.2c-0.7,0.5-1.4,1-2.1,1.4c12.5,11,30.3,20,52,24.4C132.3,187.9,115.3,178.4,103.5,167.2z"/>
				<path class="st1" d="M105.6,165.7c-0.7,0.5-1.4,1-2.1,1.5c12.5,10.8,30.2,19.5,51.7,23.6C134.3,185.9,117.3,176.7,105.6,165.7z"
					/>
				<path class="st1" d="M107.6,164.2c-0.7,0.5-1.3,1-2,1.5c12.4,10.5,30,19,51.3,22.8C136.1,184,119.3,175,107.6,164.2z"/>
			</g>
		</g>
	</g>
</g>
<g>
	<path class="st10" d="M176.5,200.5l3.8,0.5l-2,13.7l6.7,1l-0.5,3.2l-10.5-1.5L176.5,200.5z"/>
	<path class="st10" d="M198.3,213.3l-6.2-0.8l-0.5,4l7,0.8l-0.4,3.1l-10.8-1.3l2-16.9l10.5,1.3l-0.4,3.1l-6.6-0.8l-0.4,3.5l6.2,0.8
		L198.3,213.3z M197,199.2l2.2,3.4l-2.7-0.3l-1.1-1.7l0,0l-1.4,1.4l-2.7-0.3l2.9-2.8L197,199.2z M192.1,198.2
		c0.2-1.8,1.1-2.7,2.4-2.6c0.6,0.1,1.1,0.4,1.5,0.7c0.4,0.2,0.7,0.5,1,0.6c0.4,0,0.6-0.1,0.8-0.9l1.8,0.2c-0.2,2-1.1,2.8-2.4,2.6
		c-0.7-0.1-1.1-0.4-1.6-0.8c-0.4-0.3-0.6-0.4-0.9-0.5c-0.4,0-0.6,0.3-0.7,0.9L192.1,198.2z"/>
	<path class="st10" d="M210.6,207.9l-4.6-0.4l0.3-3.2l13,1.2l-0.3,3.2l-4.6-0.4l-1.2,13.8l-3.9-0.3L210.6,207.9z"/>
	<path class="st10" d="M225.4,205.9l-0.4,6.5l6.3,0.4l0.4-6.5l3.8,0.2l-1.1,17l-3.8-0.2l0.5-7.1l-6.3-0.4l-0.5,7.1l-3.9-0.2l1.1-17
		L225.4,205.9z"/>
	<path class="st10" d="M242.4,219.5l-1.4,4.3l-4-0.1l5.8-16.9l5.1,0.2l4.7,17.2l-4.1-0.1l-1.2-4.4L242.4,219.5z M245.3,202.9l2,3.1
		l-3.1-0.1l-3-3.2L245.3,202.9z M246.9,216.8l-0.9-3.7c-0.3-1-0.5-2.3-0.7-3.3l-0.1,0c-0.3,1-0.6,2.3-0.9,3.3l-1.1,3.6L246.9,216.8z
		"/>
	<path class="st10" d="M255.4,224.3l0-17.1l4.5,0l3.5,6.3c1,1.8,2,3.9,2.8,5.8l0.1,0c-0.3-2.3-0.3-4.6-0.3-7.1l0-5l3.5,0l0,17.1
		l-4,0l-3.6-6.6c-1-1.8-2.1-4-3-6l-0.1,0c0.1,2.3,0.1,4.7,0.1,7.4l0,5.1L255.4,224.3z"/>
	<path class="st10" d="M276.6,207l0.2,6.5l6.3-0.2l-0.2-6.5l3.8-0.1l0.6,17l-3.8,0.1l-0.3-7.1l-6.3,0.2l0.3,7.1l-3.9,0.1l-0.6-17
		L276.6,207z"/>
	<path class="st10" d="M299.6,205.8l0.6,6.5l6.3-0.6l-0.6-6.5l3.8-0.4l1.6,17l-3.8,0.4l-0.7-7.1l-6.3,0.6l0.7,7.1l-3.9,0.4l-1.6-17
		L299.6,205.8z"/>
	<path class="st10" d="M330,210.4c0.8,5.5-2,9.4-7,10.1c-5,0.7-8.5-2.6-9.2-7.4c-0.7-5.1,1.9-9.3,6.9-10
		C325.9,202.3,329.3,205.7,330,210.4z M321.5,199.1l3,2.7l-2.7,0.4l-1.5-1.4l0,0l-1,1.7l-2.7,0.4l2.1-3.4L321.5,199.1z M317.8,212.4
		c0.5,3.3,2.4,5.4,4.9,5c2.6-0.4,3.7-3,3.2-6.3c-0.4-3-2.3-5.4-4.9-5C318.5,206.5,317.4,209.1,317.8,212.4z"/>
	<path class="st10" d="M335,218.3l-3.5-16.7l4.4-0.9l4.8,5.4c1.4,1.5,2.8,3.4,3.9,5.1l0.1,0c-0.7-2.2-1.3-4.4-1.8-6.9l-1-4.9
		l3.5-0.7l3.5,16.7l-4,0.8l-4.9-5.7c-1.4-1.6-2.9-3.5-4.1-5.3l-0.1,0c0.6,2.2,1.1,4.5,1.7,7.2l1.1,5L335,218.3z"/>
</g>
<rect x="44.3" y="281.6" class="st1" width="428.4" height="44.9"/>
<rect x="45.9" y="282.8" class="st2" width="425.2" height="42.5"/>
<rect x="45.9" y="286.3" class="st1" width="425.2" height="3.2"/>
<rect x="45.9" y="319.2" class="st1" width="425.2" height="3.2"/>
<g>
	<g>
		<path class="st11" d="M66.2,309.3v-11.9h3.2l2.5,4.4c0.7,1.3,1.4,2.7,1.9,4.1h0.1c-0.2-1.6-0.2-3.2-0.2-5v-3.5h2.5v11.9h-2.8
			l-2.6-4.6c-0.7-1.3-1.5-2.8-2.1-4.2l-0.1,0c0.1,1.6,0.1,3.3,0.1,5.2v3.6H66.2z"/>
		<path class="st11" d="M87,300.6c0,0.5-0.1,1.3-0.1,2.6v4.8c0,1.7-0.3,3-1.3,3.9c-1,0.8-2.3,1.1-3.5,1.1c-1.1,0-2.3-0.2-3.1-0.7
			l0.5-2c0.5,0.3,1.5,0.7,2.5,0.7c1.3,0,2.3-0.7,2.3-2.3v-0.6h0c-0.5,0.7-1.3,1.1-2.3,1.1c-2.1,0-3.7-1.7-3.7-4.2
			c0-2.8,1.8-4.6,3.9-4.6c1.2,0,1.9,0.5,2.4,1.2h0l0.1-1H87z M84.2,304.1c0-0.2,0-0.4-0.1-0.5c-0.2-0.7-0.7-1.2-1.5-1.2
			c-1,0-1.8,0.9-1.8,2.5c0,1.3,0.6,2.3,1.8,2.3c0.7,0,1.2-0.5,1.4-1.1c0.1-0.2,0.1-0.5,0.1-0.7V304.1z"/>
		<path class="st11" d="M97.7,306.5c0,1.1,0,2.1,0.1,2.8h-2.3l-0.1-1.2h-0.1c-0.3,0.5-1.2,1.4-2.7,1.4c-1.8,0-3-1.1-3-3.8v-5.1h2.7
			v4.7c0,1.3,0.4,2,1.3,2c0.7,0,1.2-0.5,1.3-0.9c0.1-0.2,0.1-0.4,0.1-0.6v-5.2h2.7V306.5z"/>
		<path class="st11" d="M102.3,300.6l1.3,4.3c0.1,0.5,0.3,1.2,0.4,1.6h0.1c0.1-0.5,0.3-1.1,0.4-1.6l1.1-4.3h2.9l-2,5.7
			c-1.2,3.4-2.1,4.8-3,5.7c-0.9,0.8-1.9,1.1-2.6,1.2l-0.6-2.3c0.3-0.1,0.8-0.2,1.2-0.5c0.4-0.2,0.9-0.6,1.1-1.1
			c0.1-0.1,0.1-0.3,0.1-0.4c0-0.1,0-0.2-0.1-0.4l-3.2-7.9H102.3z"/>
		<path class="st11" d="M111.8,305.8c0.1,1.1,1.2,1.6,2.4,1.6c0.9,0,1.7-0.1,2.4-0.4l0.4,1.8c-0.9,0.4-2,0.5-3.1,0.5
			c-2.9,0-4.6-1.7-4.6-4.4c0-2.2,1.4-4.6,4.4-4.6c2.8,0,3.9,2.2,3.9,4.3c0,0.5-0.1,0.9-0.1,1.1H111.8z M114.5,297.2l1.7,2.3h-1.7
			l-0.9-1.3h0l-0.9,1.3h-1.8l1.7-2.3H114.5z M111.1,296.9c0-1.2,0.5-2,1.5-2c0.4,0,0.8,0.2,1.1,0.4c0.3,0.1,0.5,0.3,0.8,0.3
			c0.3,0,0.4-0.1,0.5-0.7h1.2c0.1,1.4-0.5,2-1.5,2c-0.5,0-0.8-0.2-1.2-0.4c-0.3-0.2-0.5-0.2-0.7-0.2c-0.2,0-0.4,0.2-0.4,0.7H111.1z
			 M115,303.9c0-0.7-0.3-1.8-1.5-1.8c-1.1,0-1.6,1-1.7,1.8H115z"/>
		<path class="st11" d="M119.5,303.4c0-1.1,0-2-0.1-2.8h2.3l0.1,1.2h0.1c0.4-0.5,1.2-1.4,2.7-1.4c1.8,0,3.1,1.2,3.1,3.7v5.1h-2.7
			v-4.8c0-1.1-0.4-1.9-1.4-1.9c-0.7,0-1.2,0.5-1.4,1c-0.1,0.2-0.1,0.4-0.1,0.7v5h-2.7V303.4z"/>
		<path class="st11" d="M140.8,309.3l-1.1-2.2c-0.4-0.8-0.7-1.5-1.1-2.1h0c-0.2,0.7-0.5,1.3-0.9,2.1l-1,2.2h-3.1l3.5-6l-3.3-5.9h3.1
			l1,2.2c0.4,0.7,0.6,1.3,0.9,2h0c0.3-0.8,0.5-1.3,0.8-2l1-2.2h3.1l-3.4,5.8l3.5,6.1H140.8z"/>
		<path class="st11" d="M153.6,306.5c0,1.1,0,2.1,0.1,2.8h-2.3l-0.1-1.2h-0.1c-0.3,0.5-1.2,1.4-2.7,1.4c-1.8,0-3-1.1-3-3.8v-5.1h2.7
			v4.7c0,1.3,0.4,2,1.3,2c0.7,0,1.2-0.5,1.3-0.9c0.1-0.2,0.1-0.4,0.1-0.6v-5.2h2.7V306.5z"/>
		<path class="st11" d="M161.2,309.3l-0.2-0.9h-0.1c-0.6,0.7-1.5,1.1-2.5,1.1c-1.8,0-2.8-1.3-2.8-2.7c0-2.3,2-3.3,5.1-3.3v-0.1
			c0-0.5-0.2-1.1-1.6-1.1c-0.9,0-1.8,0.3-2.4,0.7l-0.5-1.7c0.6-0.3,1.8-0.8,3.4-0.8c2.9,0,3.8,1.7,3.8,3.7v3c0,0.8,0,1.6,0.1,2.1
			H161.2z M160.7,296.8l1.8,2.7h-1.8l-0.9-1.5h0l-0.9,1.5h-1.8l1.8-2.7H160.7z M160.8,305.2c-1.4,0-2.5,0.3-2.5,1.4
			c0,0.7,0.5,1,1.1,1c0.7,0,1.2-0.4,1.4-1c0-0.1,0.1-0.3,0.1-0.5V305.2z"/>
		<path class="st11" d="M166,303.4c0-1.1,0-2-0.1-2.8h2.3l0.1,1.2h0.1c0.4-0.5,1.2-1.4,2.7-1.4c1.8,0,3.1,1.2,3.1,3.7v5.1h-2.7v-4.8
			c0-1.1-0.4-1.9-1.4-1.9c-0.7,0-1.2,0.5-1.4,1c-0.1,0.2-0.1,0.4-0.1,0.7v5H166V303.4z"/>
		<path class="st11" d="M182.6,299.6h-3.2v-2.3h9.2v2.3h-3.3v9.7h-2.7V299.6z"/>
		<path class="st11" d="M190.1,296.7h2.7v4.9h0c0.3-0.4,0.6-0.7,1.1-0.9c0.4-0.2,0.9-0.3,1.4-0.3c1.7,0,3,1.2,3,3.8v5.1h-2.7v-4.8
			c0-1.1-0.4-1.9-1.4-1.9c-0.7,0-1.2,0.5-1.3,0.9c-0.1,0.2-0.1,0.4-0.1,0.6v5.1h-2.7V296.7z"/>
		<path class="st11" d="M205.8,309.3l-0.2-0.9h-0.1c-0.6,0.7-1.5,1.1-2.5,1.1c-1.8,0-2.8-1.3-2.8-2.7c0-2.3,2-3.3,5.1-3.3v-0.1
			c0-0.5-0.2-1.1-1.6-1.1c-0.9,0-1.8,0.3-2.4,0.7l-0.5-1.7c0.6-0.3,1.8-0.8,3.4-0.8c2.9,0,3.8,1.7,3.8,3.7v3c0,0.8,0,1.6,0.1,2.1
			H205.8z M204.1,296.8l1.5,2.7h-1.8l-2.2-2.7H204.1z M205.5,305.2c-1.4,0-2.5,0.3-2.5,1.4c0,0.7,0.5,1,1.1,1c0.7,0,1.2-0.4,1.4-1
			c0-0.1,0.1-0.3,0.1-0.5V305.2z"/>
		<path class="st11" d="M210.7,303.4c0-1.1,0-2-0.1-2.8h2.3l0.1,1.2h0.1c0.4-0.5,1.2-1.4,2.7-1.4c1.8,0,3.1,1.2,3.1,3.7v5.1h-2.7
			v-4.8c0-1.1-0.4-1.9-1.4-1.9c-0.7,0-1.2,0.5-1.4,1c-0.1,0.2-0.1,0.4-0.1,0.7v5h-2.7V303.4z"/>
		<path class="st11" d="M221.5,296.7h2.7v4.9h0c0.3-0.4,0.6-0.7,1.1-0.9c0.4-0.2,0.9-0.3,1.4-0.3c1.7,0,3,1.2,3,3.8v5.1h-2.7v-4.8
			c0-1.1-0.4-1.9-1.4-1.9c-0.7,0-1.2,0.5-1.3,0.9c-0.1,0.2-0.1,0.4-0.1,0.6v5.1h-2.7V296.7z"/>
	</g>
</g>
<g>
	<g>
		<path class="st11" d="M294.4,308.9c-0.5,0.2-1.6,0.5-3.1,0.5c-4.1,0-6.3-2.6-6.3-6c0-4.1,2.9-6.3,6.5-6.3c1.4,0,2.5,0.3,2.9,0.5
			l-0.5,2.1c-0.5-0.2-1.3-0.4-2.3-0.4c-2.1,0-3.8,1.3-3.8,4c0,2.4,1.4,3.9,3.8,3.9c0.8,0,1.7-0.2,2.3-0.4L294.4,308.9z"/>
		<path class="st11" d="M296.5,296.7h2.7v4.9h0c0.3-0.4,0.6-0.7,1.1-0.9c0.4-0.2,0.9-0.3,1.4-0.3c1.7,0,3,1.2,3,3.8v5.1H302v-4.8
			c0-1.1-0.4-1.9-1.4-1.9c-0.7,0-1.2,0.5-1.3,0.9c-0.1,0.2-0.1,0.4-0.1,0.6v5.1h-2.7V296.7z"/>
		<path class="st11" d="M315.5,306.5c0,1.1,0,2.1,0.1,2.8h-2.3l-0.1-1.2H313c-0.3,0.5-1.2,1.4-2.7,1.4c-1.8,0-3-1.1-3-3.8v-5.1h2.7
			v4.7c0,1.3,0.4,2,1.3,2c0.7,0,1.2-0.5,1.3-0.9c0.1-0.2,0.1-0.4,0.1-0.6v-5.2h2.7V306.5z"/>
		<path class="st11" d="M323.8,299.6h-3.2v-2.3h9.2v2.3h-3.3v9.7h-2.7V299.6z"/>
		<path class="st11" d="M331.4,296.7h2.7v4.9h0c0.3-0.4,0.6-0.7,1.1-0.9c0.4-0.2,0.9-0.3,1.4-0.3c1.7,0,3,1.2,3,3.8v5.1h-2.7v-4.8
			c0-1.1-0.4-1.9-1.4-1.9c-0.7,0-1.2,0.5-1.3,0.9c-0.1,0.2-0.1,0.4-0.1,0.6v5.1h-2.7V296.7z"/>
		<path class="st11" d="M345,298.2c0,0.7-0.6,1.3-1.5,1.3c-0.9,0-1.4-0.6-1.4-1.3c0-0.8,0.5-1.4,1.4-1.4S344.9,297.4,345,298.2z
			 M342.2,309.3v-8.7h2.7v8.7H342.2z M344.8,311.9c0,0.7-0.5,1.2-1.2,1.2c-0.7,0-1.3-0.6-1.3-1.2c0-0.7,0.5-1.3,1.3-1.3
			C344.2,310.7,344.8,311.2,344.8,311.9z"/>
		<path class="st11" d="M361.8,311.3c-1.7-0.5-3.1-1-4.7-1.7c-0.3-0.1-0.5-0.2-0.8-0.2c-2.7-0.2-5.2-2.2-5.2-6.1
			c0-3.6,2.3-6.3,5.8-6.3c3.6,0,5.7,2.8,5.7,6c0,2.7-1.3,4.6-2.8,5.3v0.1c0.9,0.3,1.9,0.5,2.9,0.7L361.8,311.3z M359.7,303.3
			c0-2.2-1-4-2.9-4c-1.8,0-2.9,1.8-2.9,4c0,2.3,1.1,4,2.9,4C358.6,307.3,359.7,305.6,359.7,303.3z"/>
		<path class="st11" d="M372.9,306.5c0,1.1,0,2.1,0.1,2.8h-2.3l-0.1-1.2h-0.1c-0.3,0.5-1.2,1.4-2.7,1.4c-1.8,0-3-1.1-3-3.8v-5.1h2.7
			v4.7c0,1.3,0.4,2,1.3,2c0.7,0,1.2-0.5,1.3-0.9c0.1-0.2,0.1-0.4,0.1-0.6v-5.2h2.7V306.5z"/>
		<path class="st11" d="M377.5,300.6l1.3,4.3c0.1,0.5,0.3,1.2,0.4,1.6h0.1c0.1-0.5,0.3-1.1,0.4-1.6l1.1-4.3h2.9l-2,5.7
			c-1.2,3.4-2.1,4.8-3,5.7c-0.9,0.8-1.9,1.1-2.6,1.2l-0.6-2.3c0.3-0.1,0.8-0.2,1.2-0.5c0.4-0.2,0.9-0.6,1.1-1.1
			c0.1-0.1,0.1-0.3,0.1-0.4c0-0.1,0-0.2-0.1-0.4l-3.2-7.9H377.5z M378.9,296.8l1.5,2.7h-1.8l-2.2-2.7H378.9z"/>
		<path class="st11" d="M385.2,303.4c0-1.1,0-2-0.1-2.8h2.3l0.1,1.2h0.1c0.4-0.5,1.2-1.4,2.7-1.4c1.8,0,3.1,1.2,3.1,3.7v5.1h-2.7
			v-4.8c0-1.1-0.4-1.9-1.4-1.9c-0.7,0-1.2,0.5-1.4,1c-0.1,0.2-0.1,0.4-0.1,0.7v5h-2.7V303.4z"/>
		<path class="st11" d="M396,296.7h2.7v4.9h0c0.3-0.4,0.6-0.7,1.1-0.9c0.4-0.2,0.9-0.3,1.4-0.3c1.7,0,3,1.2,3,3.8v5.1h-2.7v-4.8
			c0-1.1-0.4-1.9-1.4-1.9c-0.7,0-1.2,0.5-1.3,0.9c-0.1,0.2-0.1,0.4-0.1,0.6v5.1H396V296.7z"/>
		<path class="st11" d="M413.6,297.3v4.6h4.4v-4.6h2.7v11.9h-2.7v-5h-4.4v5h-2.7v-11.9H413.6z"/>
		<path class="st11" d="M432,304.8c0,3.2-2.3,4.6-4.6,4.6c-2.5,0-4.5-1.7-4.5-4.5c0-2.8,1.8-4.6,4.6-4.6
			C430.2,300.4,432,302.2,432,304.8z M425.7,304.9c0,1.5,0.6,2.6,1.8,2.6c1,0,1.7-1,1.7-2.6c0-1.3-0.5-2.6-1.7-2.6
			C426.2,302.3,425.7,303.6,425.7,304.9z"/>
		<path class="st11" d="M439,309.3l-0.2-0.9h-0.1c-0.6,0.7-1.5,1.1-2.5,1.1c-1.8,0-2.8-1.3-2.8-2.7c0-2.3,2-3.3,5.1-3.3v-0.1
			c0-0.5-0.2-1.1-1.6-1.1c-0.9,0-1.8,0.3-2.4,0.7l-0.5-1.7c0.6-0.3,1.8-0.8,3.4-0.8c2.9,0,3.8,1.7,3.8,3.7v3c0,0.8,0,1.6,0.1,2.1
			H439z M438.7,305.2c-1.4,0-2.5,0.3-2.5,1.4c0,0.7,0.5,1,1.1,1c0.7,0,1.2-0.4,1.4-1c0-0.1,0.1-0.3,0.1-0.5V305.2z"/>
	</g>
</g>
<circle class="st11" cx="258.5" cy="304.1" r="12.8"/>
<circle class="st2" cx="258.5" cy="304.1" r="11.5"/>
<circle class="st11" cx="258.5" cy="304.1" r="11"/>
<g>
	<g>
		<path class="st2" d="M260.7,309.2c-0.2-0.2-0.4-0.5-0.7-0.7c-0.7,0.5-1.6,0.9-2.8,0.9c-2.5,0-3.5-1.5-3.5-2.9
			c0-1.3,0.8-2.3,1.9-2.9v-0.1c-0.4-0.5-0.8-1.2-0.8-2c0-1.3,1-2.7,3-2.7c1.6,0,2.8,0.9,2.8,2.4c0,1-0.6,1.9-2,2.6l0,0.1
			c0.6,0.6,1.2,1.4,1.7,1.9c0.4-0.6,0.7-1.6,0.9-2.5h2.1c-0.3,1.5-0.8,2.9-1.7,3.9c0.6,0.6,1.2,1.3,1.8,2H260.7z M258.9,307.1
			c-0.6-0.6-1.5-1.6-2.3-2.5c-0.4,0.3-0.8,0.7-0.8,1.4c0,0.9,0.6,1.6,1.7,1.6C258.1,307.7,258.6,307.4,258.9,307.1z M256.9,301.3
			c0,0.5,0.2,1,0.7,1.5c0.7-0.5,1.1-0.9,1.1-1.5c0-0.5-0.3-1-0.9-1C257.2,300.2,256.9,300.8,256.9,301.3z"/>
	</g>
</g>
<polygon class="st1" points="472.8,326.5 448,351.2 448,326.5 "/>
<g>
	<path class="st11" d="M275.1,139c0.1-1.1-1.7-2.4-3-1.6c-1.4,0.9-2,2.9-2.6,4.8c-0.5,1.9-1.1,3.7-3.7,4.7c-0.3,0.1-0.6,0.2-1,0.3
		c0.2-0.5,0.3-1,0.2-1.5c0.8-0.3,1.5-0.8,1.9-1.3c1.1-1.3,1.1-2.4,0.9-4.3c-0.2-1.9,1.6-3.3,1.6-3.3c-0.6,0.1-1.2,0-1.6-0.2
		c0.2-0.4,0.6-0.7,1-0.7c0.9-0.2,0.9-1,0.3-1.1c0,0-0.2-0.7-0.7-0.4c-0.4,0.2-0.2,1-0.6,1.7c-0.1,0.1-0.1,0.2-0.2,0.4
		c-0.7-0.3-1-0.8-1-0.8c0.2-0.7-0.1-1.3-0.7-0.9c-0.6,0.4,0.5,1.1,0.5,1.1c0,0.4-0.2,0.8-0.4,1.2c-0.2-0.1-0.4-0.2-0.5-0.3
		c-0.7-0.5-0.9-1.2-1.4-1.2c-0.6,0-0.4,0.7-0.4,0.7c-0.5,0.3-0.1,1.1,0.8,0.8c0.5-0.2,1,0,1.4,0.3c-0.4,0.6-0.9,1-0.9,1
		s1.5,0,2.5,1.9c0.8,1.6,0,4.4-2.4,5.3l-0.1,0c-0.1-0.3-0.2-0.5-0.4-0.8c-0.6-0.9-1.8-1.1-2.5-0.3c-0.2,0.2-0.3,0.4-0.4,0.6
		c-0.8-0.5-1.4-1.1-1.5-1.2c0-0.2,0.1-0.5,0.1-0.7c0-1.1-0.2-2-0.6-2.8c0.6-0.6,1.5-1.1,2.4-1c1.7,0.2,2.3,2.1,1.7,2.9
		c-0.6,0.7-1.1,0.6-1.1,0.6c0.5-0.3,0.6-0.7,0.3-1c-0.3-0.3-0.9-0.2-1.1,0.3c-0.2,0.7,0.9,1.6,1.9,0.5c1-1.1,0.1-3.4-1.9-3.5
		c-0.9-0.1-1.8,0.3-2.4,1c-0.4-0.8-0.8-1.3-0.8-1.3l0,0c0.3-0.3,0.2-0.8,0-1c-0.3-0.3-0.8-0.3-1.1,0c-0.3,0.3-0.3,0.8,0,1.1
		c0,0-0.4,0.4-0.8,1.3c-0.6-0.7-1.4-1.1-2.4-1c-2,0.1-2.9,2.4-1.9,3.5c1,1.1,2.1,0.3,1.9-0.5c-0.2-0.6-0.8-0.6-1.1-0.3
		c-0.3,0.3-0.3,0.8,0.3,1c0,0-0.5,0.2-1.1-0.6c-0.6-0.8,0.1-2.7,1.8-2.9c1-0.1,1.8,0.3,2.4,1c-0.3,0.7-0.6,1.6-0.6,2.8
		c0,0.3,0,0.5,0.1,0.8c-0.2,0.2-0.8,0.7-1.6,1.1c-0.1-0.2-0.2-0.4-0.4-0.6c-0.8-0.8-1.9-0.5-2.6,0.3c-0.2,0.2-0.3,0.5-0.4,0.7l0,0
		c-2.4-0.9-3.2-3.7-2.4-5.3c1-1.9,2.5-1.9,2.5-1.9s-0.5-0.4-0.9-1.1c0.4-0.3,0.9-0.4,1.4-0.2c0.9,0.3,1.3-0.4,0.8-0.7
		c0,0,0.2-0.7-0.4-0.7c-0.4,0-0.7,0.8-1.4,1.2c-0.1,0.1-0.3,0.2-0.5,0.3c-0.2-0.4-0.4-0.8-0.4-1.2c0,0,1-0.7,0.5-1.1
		c-0.5-0.4-0.9,0.2-0.7,0.9c0,0-0.4,0.5-1,0.8c-0.1-0.1-0.2-0.3-0.2-0.4c-0.4-0.8-0.2-1.5-0.6-1.8c-0.5-0.3-0.7,0.4-0.7,0.4
		c-0.6,0-0.6,0.9,0.3,1.1c0.4,0.1,0.8,0.4,1,0.8c-0.4,0.2-1,0.3-1.6,0.2c0,0,1.7,1.5,1.6,3.3c-0.2,1.9-0.2,2.9,0.9,4.3
		c0.5,0.6,1.1,1.1,1.9,1.4c-0.1,0.5,0,1,0.2,1.5c-0.3-0.1-0.6-0.2-1-0.3c-2.6-1-3.2-2.8-3.7-4.7c-0.5-1.9-1.2-3.9-2.5-4.9
		c-1.3-0.9-3.2,0.4-3,1.5c0,0,1-1.9,2.4-1.5c1.2,0.4,1.7,2.2,2.1,3.2c0.4,1,0.9,6.1,5.8,6.9l0,0c0.1,0.1,0.2,0.3,0.3,0.4
		c0.8,1,2,1.4,3.5,1l0,0c-0.4,0.3-1,1-1.1,1.8c-0.2,1.2,1,2,2.2,2.3c1,0.3,1.7,0.8,1.7,0.8s-0.5,0.3-0.6,1c-0.1,0.7,0.5,1.1,1,1
		c0,0,1.2-0.5,0-2c0,0,0.7-0.5,1.7-0.8c1.1-0.3,2.4-1.1,2.2-2.3c-0.1-0.9-0.7-1.5-1.1-1.8l0,0c1.4,0.5,2.7,0,3.5-0.9
		c0.1-0.1,0.2-0.3,0.3-0.4l0,0c4.9-0.7,5.5-5.8,5.9-6.8c0.4-1,0.9-2.9,2.1-3.2C274.1,137.1,275.1,139,275.1,139z M247.9,135.7
		c0,0-0.9-0.1-1-0.4c0-0.3,0.3-0.3,0.6-0.1c0,0-0.4-0.5,0-0.6C247.8,134.5,247.8,135.4,247.9,135.7z M252.1,135.8
		c0.3,0.2-0.3,0.5-0.3,0.5c0.3-0.1,0.6,0.1,0.4,0.3c-0.2,0.2-1-0.1-1-0.1C251.4,136.4,251.8,135.6,252.1,135.8z M249.7,135.6
		c-0.2-0.7,0.2-0.9,0.3-0.7C250.3,135.2,249.7,135.6,249.7,135.6z M248.9,138.2c0-0.7-0.2-1.2-0.4-1.6c0.6-0.3,1-0.7,1-0.7
		c0.1,0.5,0.2,0.9,0.4,1.2C249.6,137.3,249.2,137.7,248.9,138.2z M248.6,139c-0.1,0.2-0.1,0.4-0.2,0.7c0,0,0,0,0,0.1
		c0-1.7-1.1-2.7-1.1-2.7c0.4,0,0.8-0.1,1-0.2c0.3,0.5,0.4,1.1,0.4,1.4C248.7,138.4,248.7,138.7,248.6,139z M248.8,139.5l-0.2,0.3
		c0,0,0,0,0-0.1c0.1-0.2,0.1-0.5,0.2-0.7c0.1-0.3,0.2-0.6,0.4-0.8c0.1-0.2,0.4-0.6,0.9-0.9c0.3,0.5,0.6,0.7,0.6,0.7
		C249.4,138.5,248.8,139.5,248.8,139.5z M253.9,142.5c-0.2,0.2-0.4,0.2-0.6,0c-0.2-0.2-0.2-0.4,0-0.6c0.2-0.2,0.4-0.2,0.6,0
		C254,142.1,254,142.4,253.9,142.5z M262.8,142.5c-0.2,0.2-0.4,0.2-0.6,0c-0.2-0.2-0.2-0.4,0-0.6c0.2-0.2,0.4-0.2,0.6,0
		C262.9,142.1,262.9,142.4,262.8,142.5z M264.9,136.6c0,0-0.9,0.3-1,0.1c-0.2-0.2,0.1-0.4,0.4-0.3c0,0-0.6-0.3-0.3-0.5
		C264.3,135.6,264.7,136.4,264.9,136.6z M266.4,135.7c0,0-0.6-0.4-0.3-0.7C266.3,134.8,266.7,135,266.4,135.7z M266,137.4
		c0.4,0.3,0.7,0.7,0.8,0.9c0.1,0.3,0.3,0.5,0.3,0.8c0,0.2,0.1,0.4,0.2,0.7c0,0,0,0,0,0.1l-0.2-0.3c0,0-0.6-1.1-1.9-1.5
		C265.4,138.1,265.7,137.9,266,137.4z M268.3,135.8c0.1-0.3,0.1-1.2,0.5-1.1c0.4,0.1-0.1,0.6-0.1,0.6c0.2-0.2,0.6-0.2,0.6,0.1
		C269.2,135.6,268.3,135.8,268.3,135.8z M267.1,138.3c-0.3-0.6-0.7-0.9-1-1.2c0.2-0.3,0.3-0.7,0.4-1.2c0,0,0.3,0.4,1,0.7
		C267.3,137.1,267.1,137.6,267.1,138.3z M267.6,139.8C267.6,139.8,267.6,139.8,267.6,139.8c-0.1-0.3-0.1-0.5-0.2-0.7
		c-0.1-0.3-0.1-0.6-0.1-0.9c0-0.3,0.1-0.9,0.4-1.4c0.3,0.1,0.6,0.2,1,0.3C268.8,137.1,267.7,138.1,267.6,139.8z M257.9,153.9
		c0.7,0.7,0.5,1.4,0.1,1.4c-0.4,0.1-0.6-0.2-0.6-0.6C257.4,154.3,257.9,153.9,257.9,153.9z M255.9,148.5c1.1-0.5,2-1.2,2-1.2
		s0.8,0.6,2.2,1.2c0.6,0.5,1.5,1.3,1.6,2.2c0.1,1-0.6,1.5-1.4,1.7c-0.8-0.1-1-0.6-1.1-0.9c-0.2-0.6,0.5-1,0.5-1
		c-0.3,0.4,0,1.1,0.4,1.2c0.4,0.1,1.1-0.5,0.6-1.1c-0.5-0.6-0.9-0.4-1.2-0.3c-0.2,0.1-0.8,0.6-0.5,1.3c0.2,0.6,0.7,0.8,1,0.9
		c-0.3,0.1-0.5,0.2-0.8,0.2c-0.8,0.2-1.2,0.7-1.2,0.7s-0.4-0.4-1.2-0.7c-0.2-0.1-0.5-0.2-0.8-0.2c0.3-0.1,0.8-0.3,1-0.9
		c0.3-0.8-0.3-1.2-0.5-1.3c-0.2-0.1-0.7-0.3-1.2,0.3c-0.5,0.6,0.2,1.2,0.6,1.1c0.4-0.1,0.8-0.8,0.4-1.2c0,0,0.7,0.4,0.4,1
		c-0.1,0.2-0.3,0.8-1.1,0.9c-0.8-0.3-1.5-0.8-1.4-1.8C254.3,149.8,255.3,149,255.9,148.5z M256.2,151.3c-0.1,0.2-0.4,0.3-0.5,0.2
		c-0.2-0.1-0.3-0.4-0.2-0.6c0.1-0.2,0.4-0.3,0.5-0.2C256.2,150.8,256.3,151,256.2,151.3z M260.5,150.9c0.1,0.2,0,0.5-0.2,0.6
		c-0.2,0.1-0.4,0-0.5-0.2c-0.1-0.2,0-0.5,0.2-0.6C260.1,150.6,260.4,150.7,260.5,150.9z M251.9,147.6c2.3,0.2,3.8-0.6,4.7-1.7
		c0.5,0.9,1,1.4,1,1.4s-1.4,1.2-3.1,1.5C253.2,148.9,252.4,148.2,251.9,147.6z M254,145c0,0-0.7-0.5-1,0.2c-0.1,0.2-0.1,0.3-0.1,0.5
		c-0.5,0.1-0.9,0.1-1.4,0c0.1-0.4,0.3-0.8,0.8-1C253.2,144,253.9,144.5,254,145z M253.9,145.8c-0.2,0.2-0.5,0.2-0.6,0
		c-0.2-0.2-0.2-0.5,0-0.6s0.5-0.2,0.6,0C254,145.3,254,145.6,253.9,145.8z M256,144.2c0.1,0.5,0.3,1,0.4,1.4c0,0.1-0.1,0.1-0.1,0.2
		c-0.9,1-2.6,1.8-4.6,1.6c-0.1-0.1-0.1-0.3-0.2-0.4c-0.1-0.3-0.2-0.7-0.1-1.1c0.5,0.1,1,0.1,1.5,0c0.2,0.3,0.5,0.4,0.8,0.3
		c0.4-0.1,0.7-0.5,0.7-0.9C254.9,145,255.5,144.7,256,144.2z M256.7,140.6c0.3,0.4,0.5,0.9,0.6,1.3c0.2,1.1,0.1,2.1-0.6,3.2
		c-0.3-0.7-0.5-1.6-0.4-2.5C256.4,141.8,256.5,141.2,256.7,140.6z M258.4,138.6c0,0-0.1,0.1-0.1,0.1l0,0l0,0c-0.2,0.1-0.4,0-0.5-0.1
		c-0.2-0.2-0.2-0.5,0-0.7c0.2-0.2,0.5-0.2,0.7,0C258.5,138.1,258.5,138.4,258.4,138.6z M258.4,142.6c0,0.8,0.2,1.8,0.8,2.8
		c-0.5,1-1.2,1.7-1.2,1.7s-0.6-0.6-1.1-1.6c0.6-0.9,0.8-2,0.8-2.7c0-0.9-0.3-1.7-0.8-2.3c0.3-0.8,0.7-1.2,0.9-1.3
		c0.2,0.1,0.5,0.1,0.7,0c0.2,0.2,0.5,0.6,0.8,1.3C258.7,140.9,258.4,141.8,258.4,142.6z M259.3,145.1c-0.7-1.1-0.8-2.2-0.6-3.2
		c0.1-0.4,0.3-0.9,0.6-1.3c0.2,0.5,0.3,1.2,0.4,2C259.8,143.6,259.6,144.4,259.3,145.1z M264.5,145.6c-0.5,0.1-0.9,0.1-1.4,0
		c0-0.1,0-0.3-0.1-0.5c-0.4-0.6-1-0.2-1-0.2c0.1-0.4,0.8-1,1.8-0.4C264.2,144.9,264.4,145.2,264.5,145.6z M262.8,145.2
		c0.2,0.2,0.2,0.5,0,0.6c-0.2,0.2-0.5,0.2-0.6,0c-0.2-0.2-0.2-0.5,0-0.6C262.3,145,262.6,145,262.8,145.2z M264.2,147.3
		c-2,0.2-3.7-0.6-4.6-1.6c-0.1-0.1-0.1-0.1-0.2-0.2c0.2-0.4,0.4-0.8,0.5-1.3c0.5,0.5,1.1,0.9,1.6,1.2c0,0.4,0.3,0.8,0.7,0.9
		c0.3,0.1,0.7-0.1,0.8-0.3c0.5,0.1,1,0.1,1.5,0c0,0.4,0,0.8-0.1,1.1C264.4,147,264.3,147.2,264.2,147.3z M261.4,148.7
		c-1.7-0.3-3.2-1.5-3.2-1.5s0.6-0.5,1.2-1.4c0.9,1.1,2.3,2,4.7,1.8C263.6,148.2,262.7,148.9,261.4,148.7z"/>
</g>
</svg>
