<?xml version="1.0" encoding="utf-8"?>
<!-- Generator: Adobe Illustrator 19.1.0, SVG Export Plug-In . SVG Version: 6.00 Build 0)  -->
<svg version="1.1" id="Layer_1" xmlns="http://www.w3.org/2000/svg" xmlns:xlink="http://www.w3.org/1999/xlink" x="0px" y="0px"
	 viewBox="0 0 517 745" style="enable-background:new 0 0 517 745;" xml:space="preserve">
<style type="text/css">
	.st0{fill:#7BAA82;}
	.st1{fill:#DFE7C4;}
</style>
<path class="st0" d="M0,745.4h484.9c17.8,0,32.2-14.4,32.2-32.2V32.2C517,14.4,502.6,0,484.9,0H0V745.4z"/>
<g>
	<path d="M236.5,27.1h-7.3v-2.6H247v2.6h-7.4v21.4h-3.1V27.1z"/>
	<path d="M252.8,24.5v10.1h11.6V24.5h3.1v24.1h-3.1V37.3h-11.6v11.3h-3.1V24.5H252.8z"/>
	<path d="M285.4,37.3h-9.4v8.7h10.4v2.6H273V24.5h13v2.6h-9.9v7.6h9.4V37.3z"/>
</g>
<g>
	<path d="M195.1,168.8V187h-2.3v-18.2H195.1z"/>
	<path d="M200,187v-18.2h2.6l5.8,9.2c1.3,2.1,2.4,4,3.3,5.9l0.1,0c-0.2-2.4-0.3-4.6-0.3-7.5v-7.6h2.2V187h-2.4l-5.8-9.2
		c-1.3-2-2.5-4.1-3.4-6.1l-0.1,0c0.1,2.3,0.2,4.5,0.2,7.5v7.8H200z"/>
	<path d="M222.5,187l-5.9-18.2h2.5l2.8,8.9c0.8,2.5,1.5,4.7,1.9,6.8h0.1c0.5-2.1,1.3-4.4,2.1-6.8l3.1-9h2.5l-6.5,18.2H222.5z"/>
	<path d="M236.7,168.8V187h-2.3v-18.2H236.7z"/>
	<path d="M245.1,170.8h-5.5v-2H253v2h-5.6V187h-2.4V170.8z"/>
	<path d="M256.7,181.3l-1.9,5.7h-2.4l6.2-18.2h2.8l6.2,18.2h-2.5l-1.9-5.7H256.7z M262.7,179.4l-1.8-5.2c-0.4-1.2-0.7-2.3-0.9-3.3
		h-0.1c-0.3,1.1-0.6,2.2-0.9,3.3l-1.8,5.3H262.7z"/>
	<path d="M272.5,170.8h-5.5v-2h13.4v2h-5.6V187h-2.4V170.8z"/>
	<path d="M285.6,168.8V187h-2.3v-18.2H285.6z"/>
	<path d="M306,177.7c0,6.3-3.8,9.6-8.4,9.6c-4.8,0-8.2-3.7-8.2-9.2c0-5.8,3.6-9.5,8.4-9.5C302.8,168.5,306,172.3,306,177.7z
		 M291.9,178c0,3.9,2.1,7.4,5.8,7.4c3.7,0,5.8-3.4,5.8-7.5c0-3.6-1.9-7.4-5.8-7.4C293.8,170.4,291.9,174,291.9,178z"/>
	<path d="M309.9,187v-18.2h2.6l5.8,9.2c1.3,2.1,2.4,4,3.3,5.9l0.1,0c-0.2-2.4-0.3-4.6-0.3-7.5v-7.6h2.2V187h-2.4l-5.8-9.2
		c-1.3-2-2.5-4.1-3.4-6.1l-0.1,0c0.1,2.3,0.2,4.5,0.2,7.5v7.8H309.9z"/>
</g>
<g>
	<g>
		<circle cx="153.5" cy="42.4" r="1.2"/>
		<circle cx="153.5" cy="37" r="1.2"/>
		<circle cx="153.5" cy="31.5" r="1.2"/>
	</g>
	<g>
		<circle cx="159.7" cy="42.4" r="1.2"/>
		<circle cx="159.7" cy="37" r="1.2"/>
		<circle cx="159.7" cy="31.5" r="1.2"/>
	</g>
	<g>
		<circle cx="165.9" cy="42.4" r="1.2"/>
		<circle cx="165.9" cy="37" r="1.2"/>
		<circle cx="165.9" cy="31.5" r="1.2"/>
	</g>
	<g>
		<circle cx="172.1" cy="42.4" r="1.2"/>
		<circle cx="172.1" cy="37" r="1.2"/>
		<circle cx="172.1" cy="31.5" r="1.2"/>
	</g>
	<g>
		<circle cx="178.3" cy="42.4" r="1.2"/>
		<circle cx="178.3" cy="37" r="1.2"/>
		<circle cx="178.3" cy="31.5" r="1.2"/>
	</g>
	<g>
		<circle cx="184.5" cy="42.4" r="1.2"/>
		<circle cx="184.5" cy="37" r="1.2"/>
		<circle cx="184.5" cy="31.5" r="1.2"/>
	</g>
	<g>
		<circle cx="190.6" cy="42.4" r="1.2"/>
		<circle cx="190.6" cy="37" r="1.2"/>
		<circle cx="190.6" cy="31.5" r="1.2"/>
	</g>
	<g>
		<circle cx="196.8" cy="42.4" r="1.2"/>
		<circle cx="196.8" cy="37" r="1.2"/>
		<circle cx="196.8" cy="31.5" r="1.2"/>
	</g>
	<g>
		<circle cx="203" cy="42.4" r="1.2"/>
		<circle cx="203" cy="37" r="1.2"/>
		<circle cx="203" cy="31.5" r="1.2"/>
	</g>
	<g>
		<circle cx="209.2" cy="42.4" r="1.2"/>
		<circle cx="209.2" cy="37" r="1.2"/>
		<circle cx="209.2" cy="31.5" r="1.2"/>
	</g>
	<g>
		<circle cx="215.4" cy="42.4" r="1.2"/>
		<circle cx="215.4" cy="37" r="1.2"/>
		<circle cx="215.4" cy="31.5" r="1.2"/>
	</g>
	<g>
		<circle cx="301.7" cy="42.4" r="1.2"/>
		<circle cx="301.7" cy="37" r="1.2"/>
		<circle cx="301.7" cy="31.5" r="1.2"/>
	</g>
	<g>
		<circle cx="307.8" cy="42.4" r="1.2"/>
		<circle cx="307.8" cy="37" r="1.2"/>
		<circle cx="307.8" cy="31.5" r="1.2"/>
	</g>
	<g>
		<circle cx="314" cy="42.4" r="1.2"/>
		<circle cx="314" cy="37" r="1.2"/>
		<circle cx="314" cy="31.5" r="1.2"/>
	</g>
	<g>
		<circle cx="320.2" cy="42.4" r="1.2"/>
		<circle cx="320.2" cy="37" r="1.2"/>
		<circle cx="320.2" cy="31.5" r="1.2"/>
	</g>
	<g>
		<circle cx="326.4" cy="42.4" r="1.2"/>
		<circle cx="326.4" cy="37" r="1.2"/>
		<circle cx="326.4" cy="31.5" r="1.2"/>
	</g>
	<g>
		<circle cx="332.6" cy="42.4" r="1.2"/>
		<circle cx="332.6" cy="37" r="1.2"/>
		<circle cx="332.6" cy="31.5" r="1.2"/>
	</g>
	<g>
		<circle cx="338.8" cy="42.4" r="1.2"/>
		<circle cx="338.8" cy="37" r="1.2"/>
		<circle cx="338.8" cy="31.5" r="1.2"/>
	</g>
	<g>
		<circle cx="344.9" cy="42.4" r="1.2"/>
		<circle cx="344.9" cy="37" r="1.2"/>
		<circle cx="344.9" cy="31.5" r="1.2"/>
	</g>
	<g>
		<circle cx="351.1" cy="42.4" r="1.2"/>
		<circle cx="351.1" cy="37" r="1.2"/>
		<circle cx="351.1" cy="31.5" r="1.2"/>
	</g>
	<g>
		<circle cx="357.3" cy="42.4" r="1.2"/>
		<circle cx="357.3" cy="37" r="1.2"/>
		<circle cx="357.3" cy="31.5" r="1.2"/>
	</g>
	<g>
		<circle cx="363.5" cy="42.4" r="1.2"/>
		<circle cx="363.5" cy="37" r="1.2"/>
		<circle cx="363.5" cy="31.5" r="1.2"/>
	</g>
</g>
<g>
	<path d="M276,67.7c0,0.1-0.1,0.2-0.3,0.3c-0.1,0.1-0.3,0-0.5-0.4c-1.7-2.8-5.2-4.3-10.4-4.6c-10.5-0.5-26.9,9.4-49,29.7l-13.5,12.3
		c-13,12-22,18-26.9,18c-1.7,0-2.5-0.8-2.5-2.4c-0.4-3,4.3-10,14.2-20.8c11.5-12.6,18.8-20.9,21.8-25c0.7-0.9,1-1.5,0.9-1.8
		c-0.3-0.3-1.5,0.3-3.6,2c-9.4,7.1-16.9,13-22.4,17.5c-11.5,9.4-18.7,15.1-21.4,17.2c-11.6,8.8-19.4,13.2-23.4,13.2
		c-1.6,0-2.3-0.8-2.1-2.4c0.2-1.2,0.7-2.5,1.5-3.8c2.3-2.9,4.1-5.1,5.5-6.4c2.9-2.9,6.4-6.3,10.6-10.3c10.3-9.7,18.9-18.8,25.9-27.2
		c2.5-3,4.1-5.2,4.7-6.5c-4.6-0.9-10.5-1.2-17.5-1c-12.8,0.3-24.6,4.1-35.5,11.4c-4.1,2.8-7.5,5.8-10.3,9.2
		c-3.3,4.3-5.1,8.4-5.3,12.5c-0.1,2.5,0.1,4.6,0.5,6.3c1,3.7,3,6.6,6,8.8c0.7,0.4,1,0.7,1,0.9c-0.1,0.3-0.2,0.4-0.4,0.3
		c-0.2,0-0.4,0-0.6-0.1c-5.8-3.1-8.5-8.6-8.2-16.4c0.1-2,0.5-4,1.2-6c2.5-7.5,7.3-13.5,14.3-18.1c10.6-7,23-10.4,37-10.4
		c6.8,0,12.9,0.5,18.3,1.5c0.7-1.6,1.1-2.8,1.4-3.6c0.1-0.2,0.3-0.3,0.5-0.2c0.8,0.7,1,2.1,0.8,4.4c2.9,0.5,5.2,1.3,7,2.4
		c0.7,0.4,1,0.8,1,1c0,0.1-0.1,0.2-0.2,0.4c-0.1,0.1-0.5-0.1-1.5-0.6c-1.8-0.8-4-1.5-6.7-2.1c-1.6,6.7-8.9,16-21.8,27.9
		c-6.5,5.9-13.1,11.8-19.7,17.6c-4.6,3.9-7,6.6-7.4,8.1c-0.1,0.5,0.1,0.8,0.5,0.9c2.4,0.5,6.7-1.7,12.7-6.4
		c14.1-11.3,23.6-18.9,28.4-22.7l12.9-10.1c9.9-7.8,16.5-12.1,19.8-13.2c1-0.3,1.8-0.2,2.3,0.4c0.4,0.5,0.4,1.3-0.1,2.3
		c-1.3,2.6-3.3,5.7-6.1,9.2c-1.3,1.6-3.7,4.5-7.2,8.5c-5.1,6-9.5,10.8-13,14.5l-8.3,8.6c-3.7,3.9-5.7,6.6-5.9,8.1
		c0,0.5,0.2,0.8,0.7,0.9c2.4,0.4,6.3-1.7,11.8-6.2c4.4-3.6,8.4-7.1,12.2-10.7c10.2-9.5,16.7-15.6,19.6-18.3
		c19.7-18.3,34.9-27.2,45.6-26.8c5.9,0.3,9.5,2.8,10.9,7.5C275.9,67.4,276,67.5,276,67.7z"/>
	<path d="M240.2,94.6c0.2,1.9-1.4,4-4.8,6.3c-2.7,1.9-5.8,3-9.3,3.5c-1,0.1-1.8,0-2.2-0.3c-1.3,1.2-2.7,2.6-4.2,4.3
		c-3.6,4.1-5.5,7.1-5.5,9c0,1.1,0.8,1.6,2.4,1.6c1.8,0,4.3-1.1,7.6-3.2c4.1-2.6,7.9-5.7,11.5-9.2c0.2-0.2,0.5-0.3,0.8-0.4
		c0.2-0.1,0.4-0.1,0.6,0.2c0.1,0.2,0.1,0.4,0,0.5c-1.2,1.8-4.9,4.8-11,9.1c-4.3,3-8,4.4-11.1,4.2c-3.1-0.2-4.4-1.9-4.1-4.9
		c0-1.2,0.5-2.6,1.4-4.5c2.1-4.1,5.9-8.1,11.5-12.1c4.2-3,8.1-4.9,11.5-5.8c1.6-0.4,2.8-0.4,3.6,0C239.8,93.4,240.2,94,240.2,94.6z
		 M238.1,93.7c-0.8,0-2.5,1-5.2,2.9c-3.3,2.4-6.1,4.7-8.4,7c0.2,0.1,0.4,0.1,0.7,0.1c2.5,0,5.6-1.5,9.4-4.4c2.8-2.2,4.3-3.8,4.3-4.8
		C238.8,94,238.6,93.7,238.1,93.7z"/>
	<path d="M302.7,71.7c-2.1,0.5-4.5,1.8-7.2,3.9c-8.5,6.5-18.6,15.9-30.5,28.2c-7.5,7.8-11.2,12.5-11.2,14.2c0,0.3,0.1,0.5,0.4,0.7
		c0.4,0.2,1,0.1,1.7-0.3c2.2-0.9,4.6-2.5,7.1-4.5c3.7-3,6.6-5.4,8.7-7.4c0.2-0.2,0.4-0.4,0.6-0.4c0.2,0,0.4,0.1,0.6,0.4
		c0,0.4-0.9,1.3-2.7,2.8l-2.4,2c-2.4,2-3.8,3.2-4,3.3c-4.6,3.6-7.8,5.5-9.7,5.5c-2.2,0-3.3-1-3.3-3c0-1.2,0.6-2.8,1.9-4.8
		c-6.1,5.1-10.5,7.7-13.1,7.7c-2.1,0-3.1-1-3.1-3c0-2.1,1-4.6,2.9-7.6c2.2-3.5,5.6-6.9,10.2-10.2c4.6-3.3,8.8-5.4,12.7-6.3
		c1-0.2,1.8-0.4,2.5-0.4c1.6,0,2.4,0.7,2.4,2c0,0.7-0.3,1.5-1,2.4l0.1,0.1c2.1-2.3,3.7-3.9,4.7-4.9l3-2.8c4.9-4.5,8.7-7.9,11.5-10.2
		c4.5-3.6,8.2-5.9,11.3-7c1.3-0.5,3.3-0.7,5.9-0.7L302.7,71.7z M264.8,94c-2.4,0-8.1,4.2-17,12.6c-1.3,1.2-2.6,2.5-3.9,4
		c-2.5,2.7-4,4.9-4.4,6.6c-0.3,0.8-0.1,1.4,0.5,1.6c1.2,0.5,4.2-1.3,9-5.2c6-4.9,10.8-9.7,14.6-14.4c1.7-2,2.5-3.4,2.5-4.4
		C266.1,94.3,265.7,94,264.8,94z"/>
	<path d="M338.1,71.7c-2.1,0.5-4.5,1.8-7.2,3.9c-8.5,6.5-18.6,15.9-30.5,28.2c-7.5,7.8-11.2,12.5-11.2,14.2c0,0.3,0.1,0.5,0.4,0.7
		c0.4,0.2,1,0.1,1.7-0.3c2.2-0.9,4.6-2.5,7.1-4.5c3.7-3,6.6-5.4,8.7-7.4c0.2-0.2,0.4-0.4,0.6-0.4c0.2,0,0.4,0.1,0.6,0.4
		c0,0.4-0.9,1.3-2.7,2.8l-2.4,2c-2.4,2-3.8,3.2-4,3.3c-4.6,3.6-7.8,5.5-9.7,5.5c-2.2,0-3.3-1-3.3-3c0-1.2,0.6-2.8,1.9-4.8
		c-6.1,5.1-10.5,7.7-13.1,7.7c-2.1,0-3.1-1-3.1-3c0-2.1,1-4.6,2.9-7.6c2.2-3.5,5.6-6.9,10.2-10.2c4.6-3.3,8.8-5.4,12.7-6.3
		c1-0.2,1.8-0.4,2.5-0.4c1.6,0,2.4,0.7,2.4,2c0,0.7-0.3,1.5-1,2.4l0.1,0.1c2.1-2.3,3.7-3.9,4.7-4.9l3-2.8c4.9-4.5,8.7-7.9,11.5-10.2
		c4.5-3.6,8.2-5.9,11.3-7c1.3-0.5,3.3-0.7,5.9-0.7L338.1,71.7z M300.2,94c-2.4,0-8.1,4.2-17,12.6c-1.3,1.2-2.6,2.5-3.9,4
		c-2.5,2.7-4,4.9-4.4,6.6c-0.3,0.8-0.1,1.4,0.5,1.6c1.2,0.5,4.2-1.3,9-5.2c6-4.9,10.8-9.7,14.6-14.4c1.7-2,2.5-3.4,2.5-4.4
		C301.4,94.3,301,94,300.2,94z"/>
	<path d="M310.4,118c0,0.4,0.1,0.7,0.4,0.8c0.4,0.2,0.9,0.1,1.6-0.1c3.6-1.2,8.5-4.6,14.8-10.3l1.8-1.6c0.3-0.2,0.5-0.3,0.6-0.4
		c0.2-0.1,0.4-0.1,0.6,0.1c0.2,0.2,0.3,0.4,0.1,0.6c-0.1,0.2-0.3,0.4-0.4,0.5c-2.8,2.8-6,5.5-9.6,8.1c-4.3,3.1-7.5,4.6-9.7,4.6
		c-2.3,0-3.5-1-3.5-2.9c0-3.9,4.6-9.9,13.7-17.9c2.7-2.4,4.5-3.9,5.5-4.4c2.2-1.4,4.4-2,6.6-1.8C317.9,106.8,310.4,115.1,310.4,118z
		 M339.1,87.4c-0.5,0.5-1.1,0.8-1.8,0.8c-0.7,0-1.3-0.3-1.8-0.8c-0.5-0.5-0.8-1.1-0.8-1.8c0-0.7,0.3-1.2,0.8-1.8
		c0.5-0.5,1.1-0.8,1.8-0.8c0.7,0,1.2,0.3,1.8,0.8c0.5,0.5,0.8,1.1,0.8,1.8C339.9,86.3,339.6,86.9,339.1,87.4z"/>
	<path d="M367,107.5c0,0.2-0.3,0.5-0.8,0.9c-4.2,3.7-7.6,6.4-10.2,8.2c-3.7,2.5-6.6,3.8-8.7,3.8c-1.8,0-2.8-0.9-3.1-2.8
		c-0.4-2.9,2-6.7,7.1-11.5l2.5-2.3c3-2.7,5.1-4.5,6.3-5.5c2-1.7,2.9-2.9,2.9-3.6c0-0.2-0.1-0.3-0.3-0.4c-1.1-0.4-4.2,0.9-9.5,4.2
		c-8.6,5.3-15.6,11.4-21.2,18.5l-3,3.8c-0.9,0-1.2-0.9-1.1-2.7c0.1-0.4,0.1-0.7,0.3-0.9c2.1-4.1,6-9.2,11.7-15.2
		c3.2-3.4,6-5.9,8.4-7.4c1.5-1,3.6-1.5,6.3-1.5c-3.7,2.5-7.9,6.5-12.7,11.8c3.5-2.7,6.9-5.2,10.2-7.4c5-3.3,8.7-4.9,10.9-4.9
		c0.8,0,1.5,0.2,2.1,0.7s0.9,1.1,0.9,1.8c-0.1,2.3-2.4,5.4-6.7,9.5c-2.9,2.6-4.8,4.4-5.7,5.3c-4.4,4.1-6.7,6.8-6.7,8.2
		c0,0.6,0.5,0.9,1.4,0.9c2.5,0,8.3-4,17.2-11.9l0.5-0.4C366.7,106.5,367,106.7,367,107.5z"/>
	<path d="M401.2,97.6L391,109.4c-3.4,3.9-6.5,7.2-9.3,10.1c-5.7,5.8-10.4,10.1-14.3,13.1c-11.4,8.7-22.4,13.1-33.2,13.1
		c-4.1,0-7.8-0.8-11.2-2.5c-4.7-2.3-7.1-5.5-7.1-9.5c0-0.7,0.2-1.1,0.5-1.2c0.1-0.1,0.4,0.4,0.8,1.5c0.3,1.7,1,3.2,2.1,4.4
		c3.3,3.8,8.1,5.7,14.4,5.7c11,0,22.8-5.9,35.5-17.6c5.9-5.5,11.8-11.4,17.4-17.7l-0.2-0.2c-8.2,7.7-13.8,11.5-16.8,11.5
		c-2.1,0-3.2-1-3.2-3.1c0-3.8,2.3-8,6.9-12.7c3.8-3.8,8.1-6.8,13.1-9.2c3.6-1.7,6.4-2.5,8.6-2.5c2,0,2.9,0.8,2.7,2.3
		c-0.2,1.3-1,2.8-2.5,4.4l0.3,0.2l1.4-1.3c0.8-0.9,1.4-1.4,1.7-1.6c1.7-1.4,2.6-2.1,2.7-2.2c0.9-0.6,2-0.9,3.4-0.8
		C403,95.6,401.9,96.9,401.2,97.6z M395.1,94c-2,0-5.6,2.2-10.8,6.6c-9,7.5-14,13-15,16.6c-0.2,0.8-0.1,1.4,0.5,1.6
		c1.2,0.5,4.2-1.3,9-5.2c6.1-5,11-9.8,14.8-14.4c1.8-2.2,2.7-3.6,2.7-4.4C396.3,94.3,395.9,94,395.1,94z"/>
</g>
<g>
	<g>
		<path class="st1" d="M311.1,265.7c-9.3,0-16.8,7.5-16.8,16.8c0,9.3,7.5,16.8,16.8,16.8c9.3,0,16.8-7.5,16.8-16.8
			C327.8,273.2,320.3,265.7,311.1,265.7z M311.1,294.4c-6.6,0-11.9-5.3-11.9-11.9c0-6.6,5.3-11.9,11.9-11.9
			c6.6,0,11.9,5.3,11.9,11.9C323,289.1,317.7,294.4,311.1,294.4z"/>
		<path class="st1" d="M307.2,315.8c-0.7-0.1-1.2,0.4-1.3,1.1l-0.5,6.5c-0.1,0.7,0.4,1.2,1.1,1.3c0.7,0.1,1.2-0.4,1.3-1.1l0.5-6.5
			C308.4,316.4,307.9,315.8,307.2,315.8z"/>
		<path class="st1" d="M311.1,237.2c0.4,0,0.8,0,1.2,0V233c-0.4,0-0.8,0-1.2,0c-0.4,0-0.8,0-1.2,0v4.2
			C310.3,237.2,310.7,237.2,311.1,237.2z"/>
		<path class="st1" d="M311.1,248.2c0.4,0,0.8,0,1.2,0v-8.4c-0.4,0-0.8,0-1.2,0c-0.4,0-0.8,0-1.2,0v8.4
			C310.3,248.2,310.7,248.2,311.1,248.2z"/>
		<path class="st1" d="M311.1,260.8c0.4,0,0.8,0,1.2,0.1v-9.5c-0.4,0-0.8-0.1-1.2-0.1c-0.4,0-0.8,0-1.2,0.1v9.5
			C310.3,260.9,310.7,260.8,311.1,260.8z"/>
		<path class="st1" d="M312.3,229v-3.7c0-0.7-0.5-1.2-1.2-1.2c-0.7,0-1.2,0.5-1.2,1.2v3.7c0.4,0,0.8,0,1.2,0
			C311.5,228.9,311.9,229,312.3,229z"/>
		<path class="st1" d="M317,261.7l1.8-9.4c-0.8-0.2-1.5-0.4-2.3-0.5l-1.8,9.4C315.5,261.3,316.3,261.5,317,261.7z"/>
		<path class="st1" d="M321.5,238.4l0.8-4.1c-0.8-0.2-1.6-0.3-2.3-0.5l-0.8,4.1C320,238.1,320.8,238.3,321.5,238.4z"/>
		<path class="st1" d="M319.4,249.2l1.6-8.3c-0.8-0.2-1.5-0.3-2.3-0.5l-1.6,8.3C317.9,248.9,318.7,249.1,319.4,249.2z"/>
		<path class="st1" d="M323.7,227.3c0.1-0.6-0.3-1.3-0.9-1.4c-0.6-0.1-1.3,0.3-1.4,0.9l-0.6,3c0.8,0.1,1.6,0.3,2.3,0.5L323.7,227.3z
			"/>
		<path class="st1" d="M334.8,230.8c0.2-0.6,0-1.3-0.7-1.6c-0.6-0.2-1.3,0-1.6,0.7l-1.3,3c0.7,0.3,1.5,0.6,2.2,1L334.8,230.8z"/>
		<path class="st1" d="M321.4,263.5l3.6-8.8c-0.7-0.4-1.4-0.7-2.2-1l-3.6,8.8C320,262.8,320.7,263.1,321.4,263.5z"/>
		<path class="st1" d="M326.2,251.7l3.2-7.8c-0.7-0.3-1.4-0.7-2.2-1l-3.2,7.8C324.8,251.1,325.5,251.4,326.2,251.7z"/>
		<path class="st1" d="M330.4,241.6l1.6-3.9c-0.7-0.3-1.4-0.7-2.2-1l-1.6,3.9C329,240.9,329.7,241.2,330.4,241.6z"/>
		<path class="st1" d="M324.6,265.6l5.5-7.8c-0.6-0.5-1.3-1-1.9-1.4l-5.5,7.8C323.4,264.7,324,265.1,324.6,265.6z"/>
		<path class="st1" d="M344.8,236.7c0.4-0.5,0.2-1.3-0.3-1.7c-0.5-0.4-1.3-0.2-1.7,0.3l-1.9,2.7c0.7,0.4,1.3,0.9,1.9,1.4
			L344.8,236.7z"/>
		<path class="st1" d="M338.2,246.2l2.4-3.4c-0.6-0.5-1.3-0.9-1.9-1.4l-2.4,3.4C336.9,245.3,337.5,245.7,338.2,246.2z"/>
		<path class="st1" d="M331.9,255.3l4.8-6.9c-0.6-0.5-1.3-0.9-1.9-1.4l-4.8,6.9C330.6,254.3,331.2,254.8,331.9,255.3z"/>
		<path class="st1" d="M326.9,267.8l6.8-6.7c-0.5-0.6-1.1-1.1-1.7-1.7l-6.8,6.7C325.8,266.7,326.4,267.2,326.9,267.8z"/>
		<path class="st1" d="M343.8,251.3l3-2.9c-0.5-0.6-1.1-1.1-1.7-1.7l-3,2.9C342.7,250.1,343.3,250.7,343.8,251.3z"/>
		<path class="st1" d="M336,259l6-5.9c-0.5-0.6-1.1-1.1-1.7-1.7l-6,5.9C334.9,257.8,335.4,258.4,336,259z"/>
		<path class="st1" d="M349.7,245.5l2.4-2.3c0.5-0.5,0.5-1.2,0-1.7c-0.5-0.5-1.2-0.5-1.7,0l-2.4,2.3
			C348.6,244.3,349.2,244.9,349.7,245.5z"/>
		<path class="st1" d="M329.9,271.8l8-5.3c-0.4-0.7-0.8-1.4-1.3-2l-8,5.3C329,270.4,329.5,271.1,329.9,271.8z"/>
		<path class="st1" d="M349.6,258.8l3.5-2.3c-0.4-0.7-0.9-1.3-1.3-2l-3.5,2.3C348.8,257.4,349.2,258.1,349.6,258.8z"/>
		<path class="st1" d="M359.2,252.5c0.5-0.4,0.7-1.1,0.3-1.7c-0.4-0.5-1.1-0.7-1.7-0.3l-2.7,1.7c0.4,0.7,0.9,1.3,1.3,2L359.2,252.5z
			"/>
		<path class="st1" d="M340.4,264.8l7.1-4.7c-0.4-0.7-0.9-1.3-1.3-2l-7.1,4.6C339.6,263.5,340,264.1,340.4,264.8z"/>
		<path class="st1" d="M305.5,248.7l-1.5-8.3c-0.8,0.1-1.6,0.3-2.3,0.5l1.5,8.3C303.9,249,304.7,248.8,305.5,248.7z"/>
		<path class="st1" d="M303.5,237.8l-0.8-4.1c-0.8,0.1-1.6,0.3-2.3,0.5l0.8,4.1C301.9,238.1,302.7,238,303.5,237.8z"/>
		<path class="st1" d="M301.3,226.1c-0.1-0.6-0.7-1.1-1.4-1c-0.6,0.1-1.1,0.7-1,1.4l0.7,3.7c0.8-0.2,1.6-0.3,2.3-0.4L301.3,226.1z"
			/>
		<path class="st1" d="M307.8,261.1l-1.7-9.4c-0.8,0.1-1.6,0.3-2.3,0.5l1.7,9.4C306.2,261.4,307,261.2,307.8,261.1z"/>
		<path class="st1" d="M298.5,250.6l-3.1-7.9c-0.7,0.3-1.5,0.6-2.2,0.9l3.1,7.9C297.1,251.2,297.8,250.9,298.5,250.6z"/>
		<path class="st1" d="M303.2,262.3l-3.5-8.9c-0.7,0.3-1.5,0.6-2.2,1l3.5,8.9C301.7,263,302.4,262.6,303.2,262.3z"/>
		<path class="st1" d="M290.4,229.7c-0.2-0.6-0.9-0.9-1.5-0.7c-0.6,0.2-0.9,0.9-0.7,1.5l1.2,3c0.7-0.3,1.5-0.6,2.2-0.9L290.4,229.7z
			"/>
		<path class="st1" d="M294.5,240.3l-1.5-3.9c-0.7,0.3-1.5,0.6-2.2,0.9l1.5,3.9C293.1,240.9,293.8,240.6,294.5,240.3z"/>
		<path class="st1" d="M285.8,244.9l-2.4-3.4c-0.7,0.4-1.3,0.9-1.9,1.4l2.4,3.4C284.5,245.8,285.2,245.3,285.8,244.9z"/>
		<path class="st1" d="M292.2,253.9l-4.9-6.9c-0.7,0.4-1.3,0.9-1.9,1.4l4.9,6.9C290.9,254.8,291.5,254.3,292.2,253.9z"/>
		<path class="st1" d="M299.5,264.2l-5.5-7.8c-0.7,0.4-1.3,0.9-1.9,1.4l5.5,7.8C298.2,265.1,298.8,264.6,299.5,264.2z"/>
		<path class="st1" d="M279,235.2c-0.4-0.5-1.1-0.7-1.7-0.3c-0.5,0.4-0.7,1.1-0.3,1.7l2,2.9c0.6-0.5,1.3-0.9,1.9-1.4L279,235.2z"/>
		<path class="st1" d="M279.2,250.3l-3-3c-0.6,0.6-1.1,1.1-1.7,1.7l3,3C278.1,251.4,278.6,250.9,279.2,250.3z"/>
		<path class="st1" d="M287,258l-6-5.9c-0.6,0.6-1.1,1.1-1.7,1.7l6,5.9C285.9,259.2,286.5,258.6,287,258z"/>
		<path class="st1" d="M273.3,244.5l-2.6-2.6c-0.5-0.5-1.2-0.5-1.7,0c-0.5,0.5-0.5,1.2,0,1.7l2.6,2.6
			C272.2,245.6,272.8,245.1,273.3,244.5z"/>
		<path class="st1" d="M296,266.9l-6.8-6.7c-0.6,0.6-1.1,1.1-1.6,1.7l6.8,6.7C294.9,268.1,295.4,267.5,296,266.9z"/>
		<path class="st1" d="M293.2,270.2l-8.1-5c-0.4,0.7-0.8,1.3-1.2,2l8.1,5C292.3,271.6,292.8,270.9,293.2,270.2z"/>
		<path class="st1" d="M263,251.5c-0.6-0.3-1.3-0.2-1.6,0.4c-0.3,0.6-0.2,1.3,0.4,1.6l3.1,1.9c0.4-0.7,0.8-1.4,1.3-2L263,251.5z"/>
		<path class="st1" d="M282.5,263.6l-7.2-4.4c-0.4,0.7-0.9,1.3-1.2,2l7.2,4.4C281.6,264.9,282,264.2,282.5,263.6z"/>
		<path class="st1" d="M273.1,257.8l-3.6-2.2c-0.4,0.7-0.9,1.3-1.3,2l3.6,2.2C272.3,259.1,272.7,258.4,273.1,257.8z"/>
		<path class="st1" d="M256.5,261.3c-0.6-0.2-1.3,0.1-1.5,0.7c-0.2,0.6,0.1,1.3,0.7,1.5l4.6,1.7c0.3-0.8,0.5-1.5,0.8-2.2
			L256.5,261.3z"/>
		<path class="st1" d="M268.9,265.9l-3.9-1.4c-0.3,0.7-0.6,1.5-0.8,2.2l3.9,1.4C268.4,267.3,268.6,266.6,268.9,265.9z"/>
		<path class="st1" d="M291.1,274l-9-3.3c-0.3,0.7-0.6,1.5-0.8,2.2l9,3.3C290.6,275.5,290.8,274.7,291.1,274z"/>
		<path class="st1" d="M279.3,269.7l-7.9-2.9c-0.3,0.7-0.6,1.5-0.8,2.2l7.9,2.9C278.7,271.1,279,270.4,279.3,269.7z"/>
		<path class="st1" d="M289.8,278.3l-9.4-1.7c-0.1,0.8-0.3,1.6-0.4,2.4l9.4,1.7C289.6,279.9,289.7,279.1,289.8,278.3z"/>
		<path class="st1" d="M269.8,277.1l7.2,1.3c0.1-0.8,0.2-1.6,0.4-2.4l-7.2-1.3c-0.6-0.1-1.1,0.3-1.3,0.8c0,0.1,0,0.2-0.1,0.3
			C268.8,276.5,269.2,277,269.8,277.1z"/>
		<path class="st1" d="M276.9,285.5c-0.1-0.8-0.1-1.6-0.1-2.4l-8.2,0.4c-0.1,0-0.2,0-0.2,0.1c0,0.8,0.1,1.5,0.1,2.3
			c0.1,0,0.2,0,0.2,0L276.9,285.5z"/>
		<path class="st1" d="M289.4,282.5l-9.5,0.5c0,0.8,0,1.6,0.1,2.4l9.5-0.5C289.5,284.1,289.4,283.3,289.4,282.5z"/>
		<path class="st1" d="M291,290.6l-8.5,4.3c0.3,0.7,0.7,1.4,1,2.2l8.5-4.3C291.6,292.1,291.3,291.3,291,290.6z"/>
		<path class="st1" d="M273.9,301.9l6.8-3.5c-0.4-0.7-0.7-1.4-1-2.1l-6.8,3.5c-0.3,0.1-0.5,0.4-0.6,0.6c0.2,0.5,0.5,1,0.8,1.6
			C273.3,302.1,273.7,302.1,273.9,301.9z"/>
		<path class="st1" d="M284.6,304.3c-0.5-0.6-1-1.2-1.5-1.9l-6.4,5.3c-0.1,0-0.1,0.1-0.1,0.2c0.5,0.6,0.9,1.2,1.4,1.8
			c0.1,0,0.2-0.1,0.2-0.1L284.6,304.3z"/>
		<path class="st1" d="M292.9,294.3l-7.4,6.1c0.5,0.7,0.9,1.3,1.4,1.9l7.3-6.1C293.8,295.6,293.4,295,292.9,294.3z"/>
		<path class="st1" d="M296.3,298.3l-6.2,7.3c0.6,0.5,1.2,1,1.8,1.5l6.2-7.3C297.5,299.4,296.9,298.9,296.3,298.3z"/>
		<path class="st1" d="M283.9,313c-0.4,0.5-0.4,1.3,0.1,1.7c0.5,0.4,1.3,0.4,1.7-0.1l4.2-5c-0.6-0.5-1.2-1-1.8-1.5L283.9,313z"/>
		<path class="st1" d="M298.6,300.2l-4.7,8.3c0.7,0.4,1.3,0.9,2,1.2l4.7-8.3C300,301.1,299.3,300.7,298.6,300.2z"/>
		<path class="st1" d="M290.9,318.9l3.6-6.4c-0.7-0.4-1.4-0.8-2-1.2l-3.6,6.4c-0.3,0.5-0.2,1,0.2,1.4c0.2,0.1,0.4,0.2,0.6,0.3
			C290.1,319.5,290.6,319.3,290.9,318.9z"/>
		<path class="st1" d="M296.5,321c-0.2,0.6,0.1,1.3,0.7,1.5c0.6,0.2,1.3-0.1,1.5-0.7l2.3-6.5c-0.8-0.2-1.5-0.5-2.3-0.8L296.5,321z"
			/>
		<path class="st1" d="M303.2,302.6l-3.3,9c0.7,0.3,1.5,0.6,2.3,0.8l3.3-9C304.7,303.2,303.9,302.9,303.2,302.6z"/>
		<path class="st1" d="M282.1,288.7c-0.6,0.2-1,0.8-0.9,1.5c0.2,0.6,0.8,1,1.5,0.9l7.8-2c-0.2-0.8-0.4-1.5-0.6-2.3L282.1,288.7z"/>
		<path class="st1" d="M343.4,271.2l7.9-3.1c-0.3-0.8-0.6-1.5-0.9-2.2l-7.9,3.1C342.9,269.7,343.2,270.5,343.4,271.2z"/>
		<path class="st1" d="M364.1,263.1c0.6-0.2,0.9-0.9,0.7-1.5c-0.2-0.6-0.9-0.9-1.5-0.7l-2.7,1.1c0.3,0.7,0.6,1.5,0.9,2.2
			L364.1,263.1z"/>
		<path class="st1" d="M331.7,275.9l8.9-3.5c-0.3-0.8-0.5-1.5-0.8-2.2l-8.9,3.5C331.1,274.4,331.4,275.1,331.7,275.9z"/>
		<path class="st1" d="M353.7,267.2l3.9-1.5c-0.3-0.7-0.6-1.5-0.9-2.2l-3.9,1.5C353.1,265.7,353.4,266.5,353.7,267.2z"/>
		<path class="st1" d="M367.1,274.2c0.6-0.1,1.1-0.7,1-1.4c-0.1-0.6-0.7-1.1-1.4-1l-3,0.6c0.1,0.8,0.3,1.6,0.4,2.4L367.1,274.2z"/>
		<path class="st1" d="M355.9,276.3l4.1-0.8c-0.1-0.8-0.2-1.6-0.4-2.4l-4.1,0.8C355.7,274.7,355.8,275.5,355.9,276.3z"/>
		<path class="st1" d="M332.6,280.6l9.4-1.7c-0.1-0.8-0.2-1.6-0.4-2.4l-9.4,1.7C332.4,279,332.5,279.7,332.6,280.6z"/>
		<path class="st1" d="M345.1,278.3l8.3-1.5c-0.1-0.8-0.2-1.6-0.4-2.4l-8.3,1.5C344.8,276.7,345,277.5,345.1,278.3z"/>
		<path class="st1" d="M345.2,285.3l8.4,0.3c0.1-0.8,0.1-1.6,0.1-2.4l-8.4-0.3C345.3,283.7,345.3,284.5,345.2,285.3z"/>
		<path class="st1" d="M332.6,284.9l9.6,0.3c0.1-0.8,0.1-1.6,0.1-2.4l-9.5-0.3C332.7,283.4,332.6,284.2,332.6,284.9z"/>
		<path class="st1" d="M356.2,285.7l4.2,0.1c0.1-0.8,0.1-1.6,0.1-2.4l-4.2-0.1C356.3,284.1,356.3,284.9,356.2,285.7z"/>
		<path class="st1" d="M367.3,283.6l-2.7-0.1c0,0.8,0,1.6-0.1,2.4l2.7,0.1c0.7,0,1.2-0.5,1.2-1.2
			C368.4,284.2,367.9,283.6,367.3,283.6z"/>
		<path class="st1" d="M331.7,289l9.3,2.1c0.2-0.8,0.4-1.5,0.6-2.3l-9.3-2.1C332.1,287.5,331.9,288.2,331.7,289z"/>
		<path class="st1" d="M344.1,291.7l8.3,1.8c0.2-0.8,0.4-1.5,0.6-2.3l-8.2-1.8C344.5,290.2,344.3,291,344.1,291.7z"/>
		<path class="st1" d="M268.8,275.8c0,0.1,0,0.1,0,0.2c0-0.1,0-0.2,0.1-0.3C268.9,275.7,268.8,275.7,268.8,275.8z"/>
		<path class="st1" d="M267.5,284.7c0,0.6,0.5,1,1,1.1c-0.1-0.8-0.1-1.5-0.1-2.3C267.8,283.7,267.4,284.2,267.5,284.7z"/>
		<path class="st1" d="M272.3,301.4c0.2,0.3,0.4,0.5,0.7,0.6c-0.3-0.5-0.5-1-0.8-1.6C272.2,300.8,272.2,301.1,272.3,301.4z"/>
		<path class="st1" d="M276.7,309.4c0.4,0.4,1,0.5,1.4,0.3c-0.5-0.6-1-1.2-1.4-1.8C276.3,308.3,276.3,309,276.7,309.4z"/>
		<path class="st1" d="M289.3,319.3c0.1,0.1,0.2,0.1,0.3,0.1c-0.2-0.1-0.4-0.2-0.6-0.3C289.1,319.2,289.2,319.3,289.3,319.3z"/>
		<path class="st1" d="M360.5,283.4c0,0.8,0,1.6-0.1,2.4l4.1,0.1c0-0.8,0.1-1.6,0.1-2.4L360.5,283.4z"/>
		<path class="st1" d="M311.1,288.7c0,0-11.4-4-5.2-9.9c2.2-1.8,5.2,2.3,5.2,2.3s1.5-3.3,3.9-2.5
			C317.4,279.4,321.3,284.3,311.1,288.7z"/>
	</g>
	<g>
		<path class="st1" d="M213.7,279.9c5.3,0,9.6,4.3,9.6,9.6c0,5.3-4.3,9.6-9.6,9.6c-5.3,0-9.6-4.3-9.6-9.6
			C204.2,284.2,208.4,279.9,213.7,279.9z M213.7,296.2c3.8,0,6.8-3,6.8-6.8c0-3.8-3-6.8-6.8-6.8c-3.8,0-6.8,3-6.8,6.8
			C206.9,293.2,210,296.2,213.7,296.2z"/>
		<path class="st1" d="M215.9,308.4c0.4,0,0.7,0.3,0.7,0.6l0.3,3.7c0,0.4-0.3,0.7-0.6,0.7c-0.4,0-0.7-0.3-0.7-0.6l-0.3-3.7
			C215.3,308.7,215.5,308.4,215.9,308.4z"/>
		<path class="st1" d="M213.7,263.7c-0.2,0-0.5,0-0.7,0v-2.4c0.2,0,0.5,0,0.7,0c0.2,0,0.4,0,0.7,0v2.4
			C214.2,263.7,213.9,263.7,213.7,263.7z"/>
		<path class="st1" d="M213.7,269.9c-0.2,0-0.5,0-0.7,0v-4.8c0.2,0,0.5,0,0.7,0c0.2,0,0.4,0,0.7,0v4.8
			C214.2,269.9,213.9,269.9,213.7,269.9z"/>
		<path class="st1" d="M213.7,277.1c-0.2,0-0.5,0-0.7,0v-5.4c0.2,0,0.5,0,0.7,0c0.2,0,0.4,0,0.7,0v5.4
			C214.2,277.1,213.9,277.1,213.7,277.1z"/>
		<path class="st1" d="M213,259v-2.1c0-0.4,0.3-0.7,0.7-0.7c0.4,0,0.7,0.3,0.7,0.7v2.1c-0.2,0-0.4,0-0.7,0
			C213.5,259,213.2,259,213,259z"/>
		<path class="st1" d="M210.3,277.6l-1-5.3c0.4-0.1,0.9-0.2,1.3-0.3l1,5.3C211.2,277.4,210.8,277.5,210.3,277.6z"/>
		<path class="st1" d="M207.8,264.4l-0.5-2.3c0.4-0.1,0.9-0.2,1.3-0.3l0.5,2.3C208.6,264.2,208.2,264.3,207.8,264.4z"/>
		<path class="st1" d="M208.9,270.5l-0.9-4.7c0.4-0.1,0.9-0.2,1.3-0.3l0.9,4.7C209.8,270.3,209.4,270.4,208.9,270.5z"/>
		<path class="st1" d="M206.5,258c-0.1-0.4,0.2-0.7,0.5-0.8c0.4-0.1,0.7,0.2,0.8,0.5l0.3,1.7c-0.4,0.1-0.9,0.2-1.3,0.3L206.5,258z"
			/>
		<path class="st1" d="M200.2,260c-0.1-0.3,0-0.7,0.4-0.9c0.3-0.1,0.7,0,0.9,0.4l0.7,1.7c-0.4,0.2-0.8,0.4-1.2,0.5L200.2,260z"/>
		<path class="st1" d="M207.8,278.6l-2.1-5c0.4-0.2,0.8-0.4,1.2-0.6l2.1,5C208.6,278.2,208.2,278.4,207.8,278.6z"/>
		<path class="st1" d="M205.1,272l-1.8-4.5c0.4-0.2,0.8-0.4,1.2-0.5l1.8,4.4C205.9,271.6,205.5,271.7,205.1,272z"/>
		<path class="st1" d="M202.7,266.1l-0.9-2.2c0.4-0.2,0.8-0.4,1.2-0.5l0.9,2.2C203.5,265.8,203.1,266,202.7,266.1z"/>
		<path class="st1" d="M206,279.8l-3.1-4.5c0.4-0.3,0.7-0.5,1.1-0.8l3.1,4.5C206.7,279.3,206.3,279.6,206,279.8z"/>
		<path class="st1" d="M194.5,263.4c-0.2-0.3-0.1-0.7,0.2-0.9c0.3-0.2,0.7-0.1,0.9,0.2l1.1,1.6c-0.4,0.3-0.7,0.5-1.1,0.8
			L194.5,263.4z"/>
		<path class="st1" d="M198.3,268.8l-1.4-2c0.4-0.3,0.7-0.5,1.1-0.8l1.4,2C199,268.3,198.6,268.5,198.3,268.8z"/>
		<path class="st1" d="M201.9,273.9l-2.8-3.9c0.4-0.3,0.7-0.5,1.1-0.8l2.8,3.9C202.6,273.4,202.2,273.7,201.9,273.9z"/>
		<path class="st1" d="M204.7,281.1l-3.9-3.8c0.3-0.3,0.6-0.6,1-1l3.9,3.8C205.3,280.4,205,280.8,204.7,281.1z"/>
		<path class="st1" d="M195.1,271.7l-1.7-1.7c0.3-0.3,0.6-0.6,1-1l1.7,1.7C195.7,271,195.4,271.3,195.1,271.7z"/>
		<path class="st1" d="M199.5,276.1l-3.4-3.4c0.3-0.3,0.6-0.6,1-1l3.4,3.4C200.2,275.4,199.8,275.7,199.5,276.1z"/>
		<path class="st1" d="M191.7,268.4l-1.3-1.3c-0.3-0.3-0.3-0.7,0-1c0.3-0.3,0.7-0.3,1,0l1.4,1.3C192.3,267.7,192,268.1,191.7,268.4z
			"/>
		<path class="st1" d="M203,283.4l-4.5-3c0.2-0.4,0.5-0.8,0.7-1.1l4.5,3C203.5,282.6,203.2,283,203,283.4z"/>
		<path class="st1" d="M191.8,275.9l-2-1.3c0.2-0.4,0.5-0.8,0.7-1.1l2,1.3C192.3,275.2,192,275.6,191.8,275.9z"/>
		<path class="st1" d="M186.3,272.4c-0.3-0.2-0.4-0.6-0.2-0.9c0.2-0.3,0.6-0.4,0.9-0.2l1.5,1c-0.3,0.4-0.5,0.8-0.7,1.1L186.3,272.4z
			"/>
		<path class="st1" d="M197,279.4l-4-2.6c0.2-0.4,0.5-0.8,0.7-1.1l4,2.6C197.5,278.6,197.2,279,197,279.4z"/>
		<path class="st1" d="M216.9,270.2l0.9-4.7c0.4,0.1,0.9,0.2,1.3,0.3l-0.9,4.7C217.8,270.4,217.3,270.3,216.9,270.2z"/>
		<path class="st1" d="M218,264l0.4-2.3c0.4,0.1,0.9,0.2,1.3,0.3l-0.4,2.4C218.9,264.2,218.5,264.1,218,264z"/>
		<path class="st1" d="M219.2,257.3c0.1-0.4,0.4-0.6,0.8-0.5c0.4,0.1,0.6,0.4,0.5,0.8l-0.4,2.1c-0.4-0.1-0.9-0.2-1.3-0.3
			L219.2,257.3z"/>
		<path class="st1" d="M215.6,277.3l1-5.3c0.4,0.1,0.9,0.2,1.3,0.3l-1,5.3C216.5,277.4,216,277.3,215.6,277.3z"/>
		<path class="st1" d="M220.8,271.3l1.8-4.5c0.4,0.2,0.8,0.3,1.3,0.5l-1.8,4.5C221.7,271.6,221.3,271.4,220.8,271.3z"/>
		<path class="st1" d="M218.2,278l2-5.1c0.4,0.2,0.8,0.4,1.2,0.5l-2,5.1C219,278.3,218.6,278.1,218.2,278z"/>
		<path class="st1" d="M225.5,259.4c0.1-0.3,0.5-0.5,0.9-0.4c0.3,0.1,0.5,0.5,0.4,0.9l-0.7,1.7c-0.4-0.2-0.8-0.4-1.3-0.5
			L225.5,259.4z"/>
		<path class="st1" d="M223.1,265.5l0.9-2.2c0.4,0.2,0.8,0.3,1.3,0.5l-0.9,2.2C224,265.8,223.5,265.6,223.1,265.5z"/>
		<path class="st1" d="M228.1,268l1.4-2c0.4,0.3,0.7,0.5,1.1,0.8l-1.4,2C228.8,268.6,228.4,268.3,228.1,268z"/>
		<path class="st1" d="M224.4,273.2l2.8-3.9c0.4,0.3,0.7,0.5,1.1,0.8l-2.8,3.9C225.2,273.7,224.8,273.4,224.4,273.2z"/>
		<path class="st1" d="M220.3,279l3.1-4.4c0.4,0.2,0.7,0.5,1.1,0.8l-3.1,4.4C221,279.5,220.7,279.3,220.3,279z"/>
		<path class="st1" d="M231.9,262.6c0.2-0.3,0.6-0.4,0.9-0.2c0.3,0.2,0.4,0.6,0.2,0.9l-1.2,1.6c-0.4-0.3-0.7-0.5-1.1-0.8
			L231.9,262.6z"/>
		<path class="st1" d="M231.8,271.1l1.7-1.7c0.3,0.3,0.6,0.6,0.9,1l-1.7,1.7C232.5,271.8,232.2,271.4,231.8,271.1z"/>
		<path class="st1" d="M227.4,275.5l3.4-3.4c0.3,0.3,0.6,0.6,0.9,1l-3.4,3.4C228,276.2,227.7,275.8,227.4,275.5z"/>
		<path class="st1" d="M235.2,267.8l1.5-1.5c0.3-0.3,0.7-0.3,1,0c0.3,0.3,0.3,0.7,0,1l-1.5,1.5C235.8,268.5,235.5,268.1,235.2,267.8
			z"/>
		<path class="st1" d="M222.3,280.6l3.9-3.8c0.3,0.3,0.6,0.7,0.9,1l-3.9,3.8C222.9,281.2,222.6,280.9,222.3,280.6z"/>
		<path class="st1" d="M223.9,282.5l4.6-2.9c0.3,0.4,0.5,0.8,0.7,1.2l-4.6,2.9C224.4,283.2,224.1,282.8,223.9,282.5z"/>
		<path class="st1" d="M241.1,271.8c0.3-0.2,0.7-0.1,0.9,0.2c0.2,0.3,0.1,0.7-0.2,0.9l-1.8,1.1c-0.2-0.4-0.5-0.8-0.7-1.2
			L241.1,271.8z"/>
		<path class="st1" d="M230,278.7l4.1-2.5c0.2,0.4,0.5,0.8,0.7,1.2l-4.1,2.5C230.5,279.4,230.2,279.1,230,278.7z"/>
		<path class="st1" d="M235.3,275.4l2-1.3c0.2,0.4,0.5,0.8,0.7,1.2l-2,1.3C235.8,276.1,235.5,275.8,235.3,275.4z"/>
		<path class="st1" d="M244.7,277.4c0.4-0.1,0.7,0.1,0.9,0.4c0.1,0.4-0.1,0.7-0.4,0.9l-2.6,1c-0.1-0.4-0.3-0.9-0.5-1.3L244.7,277.4z
			"/>
		<path class="st1" d="M237.7,280l2.2-0.8c0.2,0.4,0.3,0.8,0.5,1.3l-2.2,0.8C238,280.8,237.8,280.4,237.7,280z"/>
		<path class="st1" d="M225.1,284.6l5.1-1.9c0.2,0.4,0.3,0.8,0.5,1.3l-5.1,1.9C225.4,285.5,225.2,285,225.1,284.6z"/>
		<path class="st1" d="M231.8,282.1l4.5-1.7c0.2,0.4,0.3,0.8,0.5,1.3l-4.5,1.7C232.1,283,232,282.6,231.8,282.1z"/>
		<path class="st1" d="M225.8,287.1l5.3-1c0.1,0.4,0.2,0.9,0.2,1.3l-5.4,1C225.9,288,225.9,287.5,225.8,287.1z"/>
		<path class="st1" d="M237.2,286.4l-4.1,0.7c-0.1-0.5-0.1-0.9-0.2-1.3l4.1-0.7c0.3-0.1,0.6,0.1,0.8,0.5c0,0.1,0,0.1,0,0.2
			C237.8,286,237.5,286.3,237.2,286.4z"/>
		<path class="st1" d="M233.1,291.2c0-0.4,0.1-0.9,0.1-1.4l4.7,0.2c0,0,0.1,0,0.1,0c0,0.4,0,0.9-0.1,1.3c0,0-0.1,0-0.1,0
			L233.1,291.2z"/>
		<path class="st1" d="M226,289.5l5.4,0.3c0,0.5,0,0.9-0.1,1.4l-5.4-0.3C226,290.4,226,289.9,226,289.5z"/>
		<path class="st1" d="M225.1,294.1l4.9,2.5c-0.2,0.4-0.4,0.8-0.6,1.2l-4.8-2.5C224.8,294.9,225,294.5,225.1,294.1z"/>
		<path class="st1" d="M234.8,300.5l-3.9-2c0.2-0.4,0.4-0.8,0.6-1.2l3.9,2c0.2,0.1,0.3,0.2,0.3,0.4c-0.1,0.3-0.3,0.6-0.4,0.9
			C235.2,300.6,235,300.6,234.8,300.5z"/>
		<path class="st1" d="M228.8,301.9c0.3-0.3,0.6-0.7,0.8-1.1l3.6,3c0,0,0,0.1,0.1,0.1c-0.3,0.3-0.5,0.7-0.8,1c0,0-0.1,0-0.1-0.1
			L228.8,301.9z"/>
		<path class="st1" d="M224,296.2l4.2,3.5c-0.3,0.4-0.5,0.7-0.8,1.1l-4.2-3.5C223.5,296.9,223.8,296.5,224,296.2z"/>
		<path class="st1" d="M222.1,298.5l3.5,4.1c-0.3,0.3-0.7,0.6-1,0.9l-3.5-4.1C221.4,299.1,221.8,298.8,222.1,298.5z"/>
		<path class="st1" d="M229.2,306.8c0.2,0.3,0.2,0.7-0.1,1c-0.3,0.2-0.7,0.2-1-0.1l-2.4-2.9c0.4-0.3,0.7-0.6,1-0.9L229.2,306.8z"/>
		<path class="st1" d="M220.8,299.5l2.7,4.7c-0.4,0.2-0.8,0.5-1.2,0.7l-2.7-4.7C220,300,220.4,299.8,220.8,299.5z"/>
		<path class="st1" d="M225.2,310.1l-2-3.6c0.4-0.2,0.8-0.5,1.2-0.7l2.1,3.7c0.2,0.3,0.1,0.6-0.1,0.8c-0.1,0.1-0.2,0.1-0.3,0.2
			C225.7,310.5,225.3,310.4,225.2,310.1z"/>
		<path class="st1" d="M222,311.3c0.1,0.4-0.1,0.7-0.4,0.9c-0.4,0.1-0.7-0.1-0.9-0.4l-1.3-3.7c0.4-0.1,0.9-0.3,1.3-0.4L222,311.3z"
			/>
		<path class="st1" d="M218.2,300.9l1.9,5.1c-0.4,0.2-0.8,0.3-1.3,0.4l-1.9-5.1C217.4,301.2,217.8,301.1,218.2,300.9z"/>
		<path class="st1" d="M230.2,293c0.4,0.1,0.6,0.5,0.5,0.8c-0.1,0.4-0.5,0.6-0.8,0.5l-4.4-1.1c0.1-0.4,0.2-0.9,0.3-1.3L230.2,293z"
			/>
		<path class="st1" d="M195.3,283l-4.5-1.8c0.2-0.4,0.3-0.9,0.5-1.3l4.5,1.8C195.6,282.2,195.4,282.6,195.3,283z"/>
		<path class="st1" d="M183.5,278.4c-0.3-0.1-0.5-0.5-0.4-0.9c0.1-0.3,0.5-0.5,0.9-0.4l1.5,0.6c-0.2,0.4-0.3,0.8-0.5,1.3
			L183.5,278.4z"/>
		<path class="st1" d="M202,285.7l-5.1-2c0.1-0.4,0.3-0.9,0.5-1.3l5.1,2C202.3,284.8,202.1,285.2,202,285.7z"/>
		<path class="st1" d="M189.5,280.8l-2.2-0.9c0.2-0.4,0.3-0.8,0.5-1.3l2.2,0.9C189.8,279.9,189.6,280.3,189.5,280.8z"/>
		<path class="st1" d="M181.8,284.7c-0.4-0.1-0.6-0.4-0.5-0.8c0.1-0.4,0.4-0.6,0.8-0.5l1.7,0.3c-0.1,0.4-0.2,0.9-0.2,1.3
			L181.8,284.7z"/>
		<path class="st1" d="M188.2,285.9l-2.4-0.4c0.1-0.5,0.1-0.9,0.2-1.3l2.3,0.4C188.3,285,188.3,285.4,188.2,285.9z"/>
		<path class="st1" d="M201.4,288.3l-5.4-1c0.1-0.5,0.1-0.9,0.2-1.3l5.3,1C201.5,287.4,201.5,287.9,201.4,288.3z"/>
		<path class="st1" d="M194.4,287l-4.7-0.9c0.1-0.5,0.1-0.9,0.2-1.3l4.7,0.9C194.5,286.1,194.4,286.6,194.4,287z"/>
		<path class="st1" d="M194.3,291.1l-4.8,0.1c0-0.4-0.1-0.9-0.1-1.4l4.8-0.1C194.2,290.2,194.2,290.6,194.3,291.1z"/>
		<path class="st1" d="M201.5,290.8L196,291c0-0.4-0.1-0.9-0.1-1.4l5.4-0.2C201.4,289.9,201.4,290.4,201.5,290.8z"/>
		<path class="st1" d="M188,291.2l-2.4,0.1c0-0.4,0-0.9-0.1-1.4l2.4-0.1C188,290.3,188,290.8,188,291.2z"/>
		<path class="st1" d="M181.7,290.1l1.5,0c0,0.5,0,0.9,0.1,1.4l-1.5,0c-0.4,0-0.7-0.3-0.7-0.7C181.1,290.4,181.4,290.1,181.7,290.1z
			"/>
		<path class="st1" d="M202,293.1l-5.3,1.2c-0.1-0.4-0.2-0.9-0.3-1.3l5.3-1.2C201.7,292.3,201.8,292.7,202,293.1z"/>
		<path class="st1" d="M194.9,294.7l-4.7,1c-0.1-0.4-0.2-0.9-0.3-1.3l4.7-1C194.7,293.8,194.8,294.3,194.9,294.7z"/>
		<path class="st1" d="M237.7,285.6C237.8,285.6,237.7,285.7,237.7,285.6C237.7,285.7,237.7,285.6,237.7,285.6
			C237.7,285.6,237.7,285.6,237.7,285.6z"/>
		<path class="st1" d="M238.5,290.7c0,0.3-0.3,0.6-0.6,0.6c0-0.4,0.1-0.9,0.1-1.3C238.3,290.1,238.5,290.4,238.5,290.7z"/>
		<path class="st1" d="M235.7,300.2c-0.1,0.2-0.2,0.3-0.4,0.3c0.2-0.3,0.3-0.6,0.4-0.9C235.8,299.8,235.8,300,235.7,300.2z"/>
		<path class="st1" d="M233.3,304.8c-0.2,0.2-0.5,0.3-0.8,0.2c0.3-0.3,0.5-0.7,0.8-1C233.5,304.1,233.5,304.5,233.3,304.8z"/>
		<path class="st1" d="M226.1,310.4c-0.1,0-0.1,0-0.2,0.1c0.1-0.1,0.2-0.1,0.3-0.2C226.2,310.3,226.2,310.4,226.1,310.4z"/>
		<path class="st1" d="M185.6,290c0,0.5,0,0.9,0.1,1.4l-2.3,0.1c0-0.4,0-0.9-0.1-1.4L185.6,290z"/>
		<path class="st1" d="M213.7,293c0,0,6.5-2.3,3-5.6c-1.3-1-3,1.3-3,1.3s-0.8-1.9-2.2-1.4C210.1,287.7,207.9,290.5,213.7,293z"/>
	</g>
	<g>
		<path class="st1" d="M128.7,547.7l-6.6,20.7c0,0,29.2,30.6,136.7,30.6s132.5-30.2,132.5-30.2l-3.8-20.7c0,0-21.2,30.2-128.2,30.2
			S128.7,547.7,128.7,547.7z"/>
		<path class="st1" d="M122.1,573.4l-0.7,2.2c0,0,29.2,30.6,136.7,30.6s133.9-30,133.9-30l-1.4-2.8c0,0-25.7,28.6-132.7,28.6
			S122.1,573.4,122.1,573.4z"/>
		<path class="st1" d="M129.3,544.8l-0.7,2.1c0,0,27.7,29.7,129.4,29.7s126.7-29.1,126.7-29.1v-2.7c0,0-25.7,27.7-127,27.7
			S129.3,544.8,129.3,544.8z"/>
		<polygon class="st1" points="223.4,607.8 292.6,607.8 258,634.9 		"/>
		<polygon class="st1" points="135.5,544.8 144.8,539.9 142.6,550.2 		"/>
		<polygon class="st1" points="131.5,540.9 133.4,543.8 144.3,537.6 146.4,533 		"/>
		<path class="st1" d="M135.5,535.8c0,0-5.6-5.7-6.3-11.8c-0.7-6.1-4.6-10.3-13.8-11.9c0,0,5.8,4.1,6.6,10.2
			C122.9,528.4,129,534.3,135.5,535.8z"/>
		<path class="st1" d="M130.8,538.4c0,0-9.6-4.8-17.2-14.5c-8.6-7.5-14.2-1.2-14.7,0c-0.5,1.2-2.1,3.2-0.7,7.2
			c0.4,1.8-1.3,1.9-2.4,1.8c0,0,4.6,2.4,5.1-4.5c0.5-6.9,7.1-2.6,7.5-1.1C108.9,528.9,124.3,541.4,130.8,538.4z"/>
		<path class="st1" d="M127.1,544.8c0,0-30.7-15.9-35.2-3.5c0,0,7.3-3.4,11.9-0.6S122.8,548.7,127.1,544.8z"/>
		<path class="st1" d="M125.5,549.3c0,0-13.8,1.6-21.4,0s-17.9,6.2-12.2,15.1c8,5.5,11.1-3.7,11.1-3.7s-7.7,5.4-7.3-0.7
			s10.3-5.8,11.4-4.9C108.3,556.1,127.5,553.2,125.5,549.3z"/>
		<polygon class="st1" points="373.3,550.3 380.3,545.4 371.3,540.8 		"/>
		<polygon class="st1" points="382,543.9 371.3,538.2 370.6,533.1 384.1,541.9 		"/>
		<path class="st1" d="M380.3,536.6c0,0,6.5-6,7.2-13.9c0.7-7.9,11-9.1,12.3-8.5c0,0-5.1,4.9-6.2,10.1S387.4,535.4,380.3,536.6z"/>
		<path class="st1" d="M386.2,539.4c0,0,11.7-7.5,15-13s20.6-7.7,15.9,5.4c0,0-0.5,3,3.3,1.3c0,0-4.3,6.9-5.4-1.8
			c-1-8.7-5.4-4.1-6.9-3.2C406.5,529.1,394,543.6,386.2,539.4z"/>
		<path class="st1" d="M389.2,544.8c0,0,12.8-3.3,16.3-5.2c3.5-1.9,12.5-3.4,16.3,0c0,0-12.1,2.3-16.8,6c0,0-12.4,5.2-15.8,1.5
			C389.2,547,387.8,545.2,389.2,544.8z"/>
		<path class="st1" d="M390.5,550.9c0,0,11.6,0.7,20.3-0.6c8.8-1.3,20.8,7.7,11.9,16.4c-9.1,5-9.5-4.6-9.5-4.6s7.5,5.9,7.1-2.1
			c-2.7-4.4-8.9-3.3-11-3.3C407.3,556.7,393.6,556.6,390.5,550.9z"/>
		<path class="st1" d="M195.4,436c-35.1,7.1-78.9,0-78.9,0c3.9,21.2,0,69.4,0,69.4c11.9,2.9,39.4,20,39.4,20
			c6.7-8.8,39.4-19.8,39.4-19.8C190.1,480.5,195.4,436,195.4,436z M186.7,500.5c0,0-29,11.4-30.7,16.8c-3.2-5-31.6-16.6-31.6-16.6
			c2.7-11.7,1.2-55,1.2-55c19.9,4.6,61.2,0,61.2,0C183,461.8,186.7,500.5,186.7,500.5z"/>
		<path class="st1" d="M401.3,436c-35.1,7.1-78.9,0-78.9,0c3.9,21.2,0,69.4,0,69.4c11.9,2.9,39.4,20,39.4,20
			c6.7-8.8,39.4-19.8,39.4-19.8C395.9,480.5,401.3,436,401.3,436z M392.5,500.5c0,0-29,11.4-30.7,16.8c-3.2-5-31.6-16.6-31.6-16.6
			c2.7-11.7,1.2-55,1.2-55c19.9,4.6,61.2,0,61.2,0C388.8,461.8,392.5,500.5,392.5,500.5z"/>
		<path class="st1" d="M300.4,406.8c0,0,9.5-9.7,13.1,7.3c0,0-0.2,4.6,2.9,2.4c0,0-0.8,5.1-3.1,3.5c0,0-4.4-4.9-5.4-8.5
			s-2.2-0.9-2.3-0.5C305.7,411.4,298.3,411.3,300.4,406.8z"/>
		<path class="st1" d="M254.4,432.8c0,0,11.2,1,15.5,0l-7.7,25.7L254.4,432.8z"/>
		<circle class="st1" cx="257.9" cy="418.5" r="3.3"/>
		<circle class="st1" cx="267.5" cy="419" r="3.3"/>
		<circle class="st1" cx="270.8" cy="425.6" r="3.3"/>
		<circle class="st1" cx="262.1" cy="427.3" r="3.3"/>
		<circle class="st1" cx="253.5" cy="425.6" r="3.3"/>
		<path class="st1" d="M110.7,362.9c0,0-4.6,15.4-25.1,10.5c-21.2-6.6-27,11.3-27,11.3l11.4,37.6c0,0,3.9-15.3,21.9-11.8
			c26.3,7.2,30.7-9.9,30.7-9.9L110.7,362.9z M90.6,399.5c0,0-15.5-3.7-7.2-12.2c4.9-1.5,6.1,2.7,6.1,2.7s1.7-5.3,4.6-5.2
			C97.1,384.9,105.1,391.4,90.6,399.5z"/>
		<path class="st1" d="M141.9,436l-6.3-1l-21.2-76.4c0,0-5.6-4.4,0-7.8c4.9-1.5,6.6,4.9,5.4,6.6L141.9,436z"/>
		<path class="st1" d="M431.4,374c-20.4,4.9-25.1-10.5-25.1-10.5l-11.9,37.7c0,0,4.4,17.1,30.7,9.9c18-3.6,21.9,11.8,21.9,11.8
			l11.4-37.6C458.4,385.4,452.6,367.5,431.4,374z M426.4,400.1c-14.5-8-6.5-14.6-3.5-14.7c2.9-0.1,4.6,5.2,4.6,5.2s1.2-4.1,6.1-2.7
			C441.9,396.4,426.4,400.1,426.4,400.1z"/>
		<path class="st1" d="M375.9,436l6.3-1l21.2-76.4c0,0,5.6-4.4,0-7.8c-4.9-1.5-6.6,4.9-5.4,6.6L375.9,436z"/>
		<path class="st1" d="M155.5,434.7l-0.9-32.1c0,0,8.5-5.2,13.1-5.2l1.1,37.3C168.7,434.7,158.8,436.8,155.5,434.7z"/>
		<path class="st1" d="M151.1,402.6V424l-12.5-10.7C138.6,413.3,142.1,405.6,151.1,402.6z"/>
		<path class="st1" d="M361.2,434.7l0.9-32.1c0,0-8.5-5.2-13.1-5.2l-1.1,37.3C347.9,434.7,357.8,436.8,361.2,434.7z"/>
		<path class="st1" d="M365.5,402.6V424l12.5-10.7C378.1,413.3,374.5,405.6,365.5,402.6z"/>
		<path class="st1" d="M214.3,348.6c0,0-0.5-3.5-1.3-4c-0.8-0.5-55.3-1-86.1,25.1l1.2,3.4C128.1,373,149.6,349.3,214.3,348.6z"/>
		<path class="st1" d="M127.9,376.2c0,0,19.3-23.3,86.4-25.6c0,0,5.9,28.7,5.9,32c0,0-52.4-2.4-84.5,21L127.9,376.2z"/>
		<path class="st1" d="M136.8,409.7l-0.9-3.3c0,0,22.3-22.6,87.1-21.7l4.7,2.9C227.7,387.7,164.9,385.3,136.8,409.7z"/>
		<path class="st1" d="M302.4,348.6c0,0,0.5-3.5,1.3-4c0.8-0.5,55.3-1,86.1,25.1l-1.2,3.4C388.7,373,367.1,349.3,302.4,348.6z"/>
		<path class="st1" d="M388.8,376.2c0,0-19.3-23.3-86.4-25.6c0,0-5.9,28.7-5.9,32c0,0,52.4-2.4,84.5,21L388.8,376.2z"/>
		<path class="st1" d="M379.9,409.7l0.9-3.3c0,0-22.3-22.6-87.1-21.7l-4.7,2.9C289,387.7,351.8,385.3,379.9,409.7z"/>
		<polygon class="st1" points="237.7,387.9 237.7,379.7 226,382.3 		"/>
		<polyline class="st1" points="279.8,378.9 279.1,387.9 291.8,383.4 280.6,378.9 		"/>
		<path class="st1" d="M222.7,380.6c0,0,33-12.6,71.7,0v-2.8c0,0-25.5-12.5-71.7-0.8C222.7,377,222,378,222.7,380.6z"/>
		<path class="st1" d="M215.6,332.2c0,0,37.9-21.4,86.8-0.2v-2.8c0,0-38.2-22.3-86.8-0.5C215.6,328.7,214.9,329.7,215.6,332.2z"/>
		<path class="st1" d="M215.3,334l7.2,41.1c0,0,26.5-11.5,72,0l8-41.1C302.4,334,259.8,314.6,215.3,334z"/>
		<path class="st1" d="M137.9,357.7c0,0,15.9-8.3,20-8l0.6-12.4h-21.3L137.9,357.7z"/>
		<polygon class="st1" points="186.8,337.3 186.1,342.9 207.5,341.4 207.5,337.6 		"/>
		<path class="st1" d="M137.1,335.1l21.3-0.5l0.9-3.7h-0.9c0,0,1.6-7.9,13-8.3c11.4-0.4,15.2,7.7,15.2,7.7l-2.1,1l0.6,4.4l23.1-0.7
			v-3.3l-1.5-0.9l0.6-15.1h-69.3l-0.5,15h-1.2L137.1,335.1z"/>
		<path class="st1" d="M138.2,313.9l-2.3-4.4l72.4,0.6c0,0-0.2,3-1.6,3.8H138.2z"/>
		<path class="st1" d="M137.1,299.9l1.1,7.9h69.3l-0.9-4l0.9-4C207.5,299.9,179.1,296,137.1,299.9z"/>
		<path class="st1" d="M380.4,358.2c0,0-15.9-8.3-20-8l-0.6-12.4h21.3L380.4,358.2z"/>
		<polygon class="st1" points="331.4,337.7 332.2,343.3 310.7,341.9 310.7,338.1 		"/>
		<path class="st1" d="M381.1,335.6l-21.3-0.5l-0.9-3.7h0.9c0,0-1.6-7.9-13-8.3c-11.4-0.4-15.2,7.7-15.2,7.7l2.1,1l-0.6,4.4
			l-23.1-0.7v-3.3l1.5-0.9l-0.6-15.1H380l0.5,15h1.2L381.1,335.6z"/>
		<path class="st1" d="M380,314.4l2.3-4.4l-72.4,0.6c0,0,0.2,3,1.6,3.8H380z"/>
		<path class="st1" d="M381.1,300.4l-1.1,7.9h-69.3l0.9-4l-0.9-4C310.7,300.4,339.1,296.5,381.1,300.4z"/>
		<path class="st1" d="M369.4,548.4l-3.7-23l-4.6,3.5c0,0-6.2-5.9-11-6.7l-0.2,3.3c0,0-14.4-7.4-33.6-8.6l-3.8-29.4
			c0,0,3.7-0.7,6,0.9l-12.1-54.8c0,0-2.2-0.7-2.9,0l0.2-3.5c0,0,14.1-7.3,2.7-19.5c-13.5-6.4-17.3,4.9-17.5,9.9
			c1.1,4.7,2.6,7.5,5.1,9.1l-0.2,4l-4.9-1.1l-21.7,20.1c0,0-3.5,8.4-2.4,12.1l24.3-20.3l-10.8,43.1c0,0,4.9-1.5,7.7,0l-1.8,26.8
			c0,0-28.3-1.2-33.6,0l2.7-30.1l-27.2-7.7l1.8-16.2l32.5,4.2l-2.4-8.9l-38.3-5.8l-0.2-1.3c5.9-0.5,10.6-5.5,10.6-11.6
			c0-6.5-5.2-11.7-11.7-11.7c-6.5,0-11.7,5.2-11.7,11.7c0,3.1,1.2,6,3.2,8.1l-2.9,2.7c0,0-4.7,21.4,2.7,56.6l-20.3,11.3l0.9,3.1
			c0,0-21.4,3.8-24.5,5.5v-3.6c0,0-8.8,4.9-10.8,8.5c0,0-1.8-3.9-5.5-4.9c0,0-0.1,15.2-3.6,23.8c0,0,6.1-3.6,50.3,18.4
			c0,0-1.6-9.5,1.1-16.6l-10.2-5.5c0,0,11.3-13.6,22.6-20l21.5-1.8l-3.5,3.3l8.4,1.2l4-4.5H255l-1.6,12l4.9,6.1l5.9-6.3l-1.8-11.8
			h14.1l4,4.3l8.6-0.2l-4.4-4.1l21.4,1.8c0,0,14.4,8.5,22.5,19.9l-9.9,5.3c0,0,2.2,14.4,2,16C320.5,565.1,359.8,548.9,369.4,548.4z
			 M177.8,540.2c0,0-10.4-4.6-14.2-4.4c0,0,7.8-7.8,34.2-10.4C197.9,525.4,182.3,535.7,177.8,540.2z M242,514.1l-31.6,1.8l11.1-6.4
			c1.2-2.8,0-18.9,0-18.9l20.5,2.8V514.1z M292.6,514.1l5.1-26.8h4l6.2,28.6L292.6,514.1z M319.2,525.4c0,0,30.7,4.8,33.3,10.4
			l-13,4.1C339.5,539.9,326.7,529.7,319.2,525.4z"/>
		<path class="st1" d="M287.5,529c-19-2-29.5,17.2-29.5,17.2s-5.6-21-34.6-16.6c-28.6,7.6-24.2,36.5-24.2,36.5
			c54.9,9,117.8,0,117.8,0C319.6,546.9,306.4,531.7,287.5,529z M268.8,563.2c0,0-2.3-1.5-2.1-3.4l-7.2-3.7c0,0-4.3,2.8-4.7,4.6
			l-1.8,0.7l-1.6-1.7c0,0,0-6.3,1.5-7.7l-10.9-5.5c0,0-1.3-1,1.3-1c0,0,11.7,5.4,12.8,5.8c0,0,9.7-1.6,13,2.1c0,0-6-0.4-7.9,0.6
			c0,0,7.5,4.3,9.1,4.1c1.6-0.1,5.1,0.9,5.6,1.5C275.9,559.6,271.1,559,268.8,563.2z"/>
	</g>
</g>
<g>
	<g>
		<g>
			<g>
				<g>
					<path d="M387,152.8c-16.5-10.4-38.8-11.8-59.1-7.4c-12.7,2.8-25.5,7.1-39.1,6.6c-6.9-0.3-14.2-1.8-19.4-5.2
						c-3.5-2.3-6.4-5.6-6.3-9.1c-0.1-2.7,1.5-4.8,4.5-6.2c3.1-1.8,5.2-0.9,6.2,2.6c0-0.7-1.5-0.9-1.7-0.2c-0.8,2.7,2.6,5,6.3,3.4
						c4.2-1.8,2.2-6-1.1-7.6c-4.6-2.2-10.8-0.6-14,2.3c-4.5,4-2.6,9.7,1.3,13.6c11.9,11.8,35.2,8.5,51.4,4.6
						c11.7-2.8,23.4-6,35.9-5.7c12.8,0.3,24.1,3.8,34.5,9C386.9,153.7,387.5,153.1,387,152.8L387,152.8z"/>
				</g>
				<g>
					<path d="M349.2,158.9c-3.5-3-9.4,1.3-4.9,4c6.3,3.8,10.5-3.8,7.3-7.3c-6.6-7.4-21.8-4.6-30.9-2.2c-9.2,2.5-19,5.4-28.9,3
						c-6.1-1.5-11.4-5.4-11.4-10.3c0-2.4,2-5.2,4.6-6.7c1.7-0.9,3.6-1.2,5.6-0.9c3.4-0.5,4.5,0.8,3.3,4.1c-0.4-0.5-1.6-0.3-1.5,0.3
						c0.6,4.3,9.4,2.1,7.3-2.3c-3.2-6.8-16.9-4.2-20.4,0.8c-5.5,8,4.5,15.7,14.9,17.2c8,1.2,15.9-0.5,23.4-2.6
						c4.2-1.1,8.3-2.4,12.7-3.1c3.5-0.6,7.5-0.8,11.1-0.2c1.3,0.4,2.7,0.7,4,1.1c3.5,0.9,4.5,2.7,3.1,5.4
						C349,159.8,349.7,159.3,349.2,158.9L349.2,158.9z"/>
				</g>
			</g>
			<g>
				<g>
					<path d="M130.7,153.5c10.3-5.2,21.7-8.8,34.4-9c12.1-0.3,23.4,2.7,34.7,5.4c16.5,4,40.4,7.8,52.6-4.3c3.9-3.9,5.7-9.5,1.2-13.6
						c-3-2.8-8.7-4.3-13.2-2.6c-3.7,1.4-6.5,5.9-1.9,7.9c3.7,1.6,7.1-0.6,6.3-3.4c-0.2-0.7-1.7-0.5-1.7,0.2c1-3.5,3.1-4.4,6.3-2.6
						c3.1,1.4,4.6,3.5,4.5,6.2c0.1,3.5-2.8,6.8-6.3,9.1c-5.2,3.4-12.5,5-19.4,5.2c-13.6,0.5-26.4-3.8-39.1-6.6
						c-20.3-4.5-42.6-3.1-59.1,7.4C129.5,153.1,130.2,153.7,130.7,153.5L130.7,153.5z"/>
				</g>
				<g>
					<path d="M168.6,159.5c-1.4-2.2-0.9-3.8,1.5-4.6c1.6-1,3.4-1.6,5.6-1.9c2.9-0.5,6-0.4,8.9-0.1c4.7,0.5,9.2,1.8,13.6,3
						c7.5,2.1,15.4,4,23.6,3.1c10.9-1.3,21.6-9,16-17.4c-3.4-5.1-15.9-7.4-20-1.4c-3.3,4.8,6.3,7.3,6.9,2.9c0.1-0.6-1.1-0.8-1.5-0.3
						c0.3-1.4,0.6-2.7,0.9-4.1c2.3-0.5,4.4-0.4,6.4,0.4c3.5,1.3,6.2,4.2,6.2,7.1c0,4.4-4.3,7.9-9.6,9.7c-9.7,3.3-20.1,0.4-29.4-2.1
						c-9.5-2.6-25.1-6-32.2,1.8c-3.2,3.5,0.8,10.9,7.2,7.4c4.8-2.6-1.2-7.2-4.8-4.1C167.3,159.3,168,159.8,168.6,159.5L168.6,159.5z
						"/>
				</g>
			</g>
		</g>
		<g>
			<g>
				<g>
					<path d="M216.8,135.4c-16.9,14.3-44.6,5.8-66.1,3.8c-12.2-1.2-24.6-1.4-36.9-0.5c-7.1,0.5-16.1,1.1-20.9,5.5
						c-6.9,6.2,2.8,18.6,13.6,13.3c9.7-4.8-5.5-11.2-5.9-4.3c0,0.6,1.3,0.8,1.5,0.1c1.3,4.5-1,4.9-6.8,1.3c-3.6-3.3-3.7-6.6-0.1-9.9
						c2.2-1.8,5.8-2.7,8.9-3.3c6.7-1.3,14.1-1.5,21-1.7c14.1-0.3,28,1.1,41.8,3.1c17.1,2.5,39.3,5.3,50.9-6.9
						C218.2,135.5,217.3,135,216.8,135.4L216.8,135.4z"/>
				</g>
				<g>
					<path d="M124.2,146.2c-0.8,3-2.5,3.2-5.3,0.7c-3.2-0.5-4.6-1.9-4.2-4.2c-0.7-3,0.1-5.1,3.2-7.2c5.1-3.5,12.6-3.8,19.1-2.8
						c8.2,1.2,15.7,4.2,23.8,5.5c8.3,1.3,22.9,0.8,25.1-6.9c1.4-5-8.1-10.3-12.1-4.7c-3.1,4.3,5.8,7.7,8.4,3.2
						c0.4-0.7-0.8-1.5-1.5-0.9c3.6,0.4,3.8,1.6,0.6,3.4c-0.4,1.4-1.4,2.3-3,2.8c-2.3,1.3-6.1,1.7-9,1.7c-4.8,0.1-9.5-0.7-14-1.8
						c-7.6-1.8-15.1-4.4-23.3-4.6c-9.7-0.2-23.1,4.8-20,13.3c1.6,4.3,14.7,10.4,17.2,3.3c1.5-4-6.7-5.1-5.7-0.9
						C123.7,146.5,124.2,146.4,124.2,146.2L124.2,146.2z"/>
				</g>
			</g>
			<g>
				<g>
					<path d="M299.2,135.9c11.5,12.1,33.8,9.4,50.9,6.9c13.8-2,27.7-3.4,41.8-3.1c7,0.1,14.3,0.4,21,1.7c3.2,0.6,6.6,1.4,8.9,3.3
						c3.6,3.3,3.6,6.6-0.1,9.9c-5.8,3.6-8,3.2-6.8-1.3c0.2,0.6,1.5,0.5,1.5-0.1c-0.4-6.9-15.6-0.5-5.9,4.3
						c10.7,5.3,20.5-7.1,13.6-13.3c-4.8-4.4-13.8-4.9-20.9-5.5c-12.3-0.9-24.7-0.7-36.9,0.5c-21.5,2.1-49.2,10.6-66.1-3.8
						C299.7,135,298.8,135.5,299.2,135.9L299.2,135.9z"/>
				</g>
				<g>
					<path d="M393.4,146.2c1.1-4.2-7.2-3.1-5.7,0.8c2.6,7.1,15.7,1.2,17.3-3.3c2.9-8-9.3-13.2-18.7-13.3c-8.2-0.1-15.7,2.4-23.3,4.2
						c-4.6,1.1-9.2,2.1-14.1,2.1c-3.1,0-6.5-0.3-9.4-1.4c-1-0.5-2-0.9-3-1.4c-3.7-2-3.7-3.6,0-5c-0.8-0.7-2.2-0.1-1.7,0.7
						c2.6,4.4,11.4,1.2,8.5-3.1c-3.4-5.2-12.6-1.2-12.4,3.5c0.4,8.2,15.8,9.4,24.1,8.3c8.6-1.2,16.4-4.4,25-5.7
						c6.1-0.9,12.4-0.7,17.6,2c2.3,1.2,5,3.2,5.4,5.4c-0.4,1.7-0.8,3.4-1.2,5.1c-3.2,3.9-6.1,4.2-8.9,0.9
						C392.8,146.4,393.4,146.5,393.4,146.2L393.4,146.2z"/>
				</g>
			</g>
		</g>
	</g>
</g>
</svg>
