<?xml version="1.0" encoding="utf-8"?>
<!-- Generator: Adobe Illustrator 19.1.0, SVG Export Plug-In . SVG Version: 6.00 Build 0)  -->
<svg version="1.1" id="Layer_1" xmlns="http://www.w3.org/2000/svg" xmlns:xlink="http://www.w3.org/1999/xlink" x="0px" y="0px"
	 viewBox="0 0 1030 405" style="enable-background:new 0 0 1030 405;" xml:space="preserve">
<style type="text/css">
	.st0{fill:#9AD3C1;}
	.st1{fill:#FFFFFF;stroke:#826D5A;stroke-width:0.5;stroke-miterlimit:10;}
	.st2{fill:#826D5B;}
	.st3{fill:#FFFFFF;}
	.st4{fill:#EF4849;}
</style>
<polygon class="st0" points="1030,51.7 1030,38.9 1025.9,45.3 "/>
<path class="st1" d="M28,405h238c15.5,0,28-12.5,28-28c0,15.5,12.5,28,28,28h680c15.5,0,28-12.5,28-28V28c0-15.5-12.5-28-28-28
	L322,0c-15.5,0-28,12.5-28,28c0-15.5-12.5-28-28-28L28,0C12.5,0,0,12.5,0,28l0,349C0,392.5,12.5,405,28,405z"/>
<g>
	<g>
		<rect x="62.8" y="243.6" class="st2" width="316.6" height="2.8"/>
		<rect x="62.8" y="266.3" class="st2" width="316.6" height="2.8"/>
		<rect x="401" y="243.6" class="st2" width="394.8" height="2.8"/>
		<rect x="401" y="266.3" class="st2" width="394.8" height="2.8"/>
		<rect x="821.2" y="243.6" class="st2" width="101.3" height="2.8"/>
		<rect x="821.2" y="266.3" class="st2" width="101.3" height="2.8"/>
		<rect x="795.8" y="202.7" class="st2" width="2.8" height="43.8"/>
		<rect x="818.4" y="202.7" class="st2" width="2.8" height="43.8"/>
		<rect x="377.5" y="17.1" class="st2" width="2.8" height="229.4"/>
		<rect x="400.1" y="17.1" class="st2" width="2.8" height="229.4"/>
		<rect x="377.5" y="266.3" class="st2" width="2.8" height="116.1"/>
		<rect x="400.1" y="266.3" class="st2" width="2.8" height="116.1"/>
		<rect x="795.8" y="266.3" class="st2" width="2.8" height="50.5"/>
		<rect x="818.4" y="266.3" class="st2" width="2.8" height="50.5"/>
		<rect x="354.1" y="128.6" class="st2" width="21.2" height="21.2"/>
		<rect x="355.3" y="129.9" class="st3" width="18.6" height="18.6"/>
		
			<rect x="350.6" y="138.2" transform="matrix(0.7071 0.7071 -0.7071 0.7071 205.1958 -217.0678)" class="st2" width="28" height="1.9"/>
		
			<rect x="350.6" y="138.2" transform="matrix(-0.7071 0.7071 -0.7071 -0.7071 720.8489 -20.2667)" class="st2" width="28" height="1.9"/>
		<rect x="354.1" y="164.5" class="st2" width="21.2" height="21.2"/>
		<rect x="355.3" y="165.8" class="st3" width="18.6" height="18.6"/>
		
			<rect x="350.6" y="174.1" transform="matrix(0.7071 0.7071 -0.7071 0.7071 230.572 -206.5566)" class="st2" width="28" height="1.9"/>
		
			<rect x="350.6" y="174.1" transform="matrix(-0.7071 0.7071 -0.7071 -0.7071 746.2252 40.9968)" class="st2" width="28" height="1.9"/>
		<rect x="225.7" y="269.8" class="st2" width="40.3" height="40.3"/>
		<rect x="228.2" y="272.2" class="st3" width="35.4" height="35.4"/>
		
			<rect x="219.2" y="288.1" transform="matrix(0.7071 0.7071 -0.7071 0.7071 276.9655 -88.9112)" class="st2" width="53.2" height="3.6"/>
		
			<rect x="219.2" y="288.1" transform="matrix(-0.7071 0.7071 -0.7071 -0.7071 624.5906 321.0287)" class="st2" width="53.2" height="3.6"/>
		<g>
			<rect x="81.9" y="243.6" class="st2" width="13.6" height="24"/>
			<rect x="82.8" y="245.1" class="st3" width="11.9" height="21.1"/>
			<polygon class="st2" points="94.6,267.6 81.9,245.2 82.8,243.6 95.5,266.1 			"/>
			<polygon class="st2" points="82.8,267.6 95.5,245.2 94.6,243.6 81.9,266.1 			"/>
		</g>
		<g>
			<rect x="94.7" y="243.6" class="st2" width="13.6" height="24"/>
			<rect x="95.5" y="245.1" class="st3" width="11.9" height="21.1"/>
			<polygon class="st2" points="107.4,267.6 94.7,245.2 95.6,243.6 108.3,266.1 			"/>
			<polygon class="st2" points="95.6,267.6 108.3,245.2 107.4,243.6 94.7,266.1 			"/>
		</g>
		<g>
			<rect x="106.6" y="243.6" class="st2" width="13.6" height="24"/>
			<rect x="107.4" y="245.1" class="st3" width="11.9" height="21.1"/>
			<polygon class="st2" points="119.3,267.6 106.6,245.2 107.4,243.6 120.1,266.1 			"/>
			<polygon class="st2" points="107.4,267.6 120.1,245.2 119.3,243.6 106.6,266.1 			"/>
		</g>
		<rect x="526.8" y="243.6" class="st2" width="40.1" height="25.4"/>
		<rect x="529.3" y="245.2" class="st3" width="35.2" height="22.3"/>
		<polygon class="st2" points="564.3,269 526.8,245.2 529.3,243.6 566.8,267.4 		"/>
		<polygon class="st2" points="529.3,269 566.8,245.2 564.3,243.6 526.8,267.4 		"/>
		<polygon class="st2" points="134,252.5 143.9,257.4 134,262.3 		"/>
		<rect x="125.3" y="256.7" class="st2" width="9.9" height="1.4"/>
		<g>
			<polygon class="st2" points="385.5,230.4 390.4,220.5 395.3,230.4 			"/>
			<rect x="389.7" y="229.2" class="st2" width="1.4" height="9.9"/>
		</g>
		<g>
			<polygon class="st2" points="282.2,280.7 272.3,275.8 282.2,270.9 			"/>
			<rect x="281" y="275.1" class="st2" width="9.9" height="1.4"/>
		</g>
		<g>
			<polygon class="st2" points="362,270.9 371.9,275.8 362,280.7 			"/>
			<rect x="353.3" y="275.1" class="st2" width="9.9" height="1.4"/>
		</g>
		<g>
			<polygon class="st2" points="418.1,280.7 408.2,275.8 418.1,270.9 			"/>
			<rect x="416.9" y="275.1" class="st2" width="9.9" height="1.4"/>
		</g>
		<g>
			<polygon class="st2" points="497.9,270.9 507.8,275.8 497.9,280.7 			"/>
			<rect x="489.2" y="275.1" class="st2" width="9.9" height="1.4"/>
		</g>
		<g>
			<polygon class="st2" points="395.3,280.9 390.4,290.8 385.5,280.9 			"/>
			<rect x="389.7" y="272.2" class="st2" width="1.4" height="9.9"/>
		</g>
		<g>
			<path d="M97.9,283.6c-0.5,0.2-1.4,0.5-2.5,0.5c-2.7,0-4.7-1.7-4.7-4.8c0-3,2-5,5-5c1.2,0,1.9,0.3,2.3,0.4l-0.3,1
				c-0.5-0.2-1.1-0.4-1.9-0.4c-2.2,0-3.7,1.4-3.7,3.9c0,2.3,1.3,3.8,3.7,3.8c0.7,0,1.5-0.2,2-0.4L97.9,283.6z"/>
			<path d="M103.1,283.9l-0.1-0.9h0c-0.4,0.5-1.1,1-2.1,1c-1.4,0-2.1-1-2.1-2c0-1.7,1.5-2.6,4.1-2.5v-0.1c0-0.6-0.2-1.6-1.6-1.6
				c-0.6,0-1.3,0.2-1.8,0.5l-0.3-0.8c0.6-0.4,1.4-0.6,2.2-0.6c2.1,0,2.6,1.4,2.6,2.8v2.6c0,0.6,0,1.2,0.1,1.6H103.1z M102,274.1
				l1.2,2h-0.9l-0.7-1.3h0l-0.7,1.3h-0.9l1.2-2H102z M102.9,280.4c-1.4,0-2.9,0.2-2.9,1.5c0,0.8,0.5,1.2,1.2,1.2
				c0.9,0,1.5-0.6,1.7-1.1c0-0.1,0.1-0.3,0.1-0.4V280.4z M103.2,273l0.9,1.9h-0.7l-1.3-1.9H103.2z"/>
			<path d="M111.8,282.1c0,0.7,0,1.3,0.1,1.9h-1.1l-0.1-1.1h0c-0.3,0.6-1,1.3-2.3,1.3c-1.1,0-2.4-0.6-2.4-3v-4h1.2v3.8
				c0,1.3,0.4,2.2,1.5,2.2c0.8,0,1.4-0.6,1.6-1.1c0.1-0.2,0.1-0.4,0.1-0.6v-4.2h1.2V282.1z"/>
			<path d="M69.2,293.8h-2.9v-1h7.1v1h-2.9v8.5h-1.2V293.8z"/>
			<path d="M74.3,292.3h1.2v4.3h0c0.2-0.4,0.5-0.7,0.9-0.9c0.4-0.2,0.8-0.4,1.3-0.4c0.9,0,2.4,0.6,2.4,2.9v4.1h-1.2v-3.9
				c0-1.1-0.4-2-1.6-2c-0.8,0-1.4,0.6-1.7,1.2c-0.1,0.2-0.1,0.4-0.1,0.6v4.1h-1.2V292.3z"/>
			<path d="M85.9,302.3l-0.1-0.9h0c-0.4,0.5-1.1,1-2.1,1c-1.4,0-2.1-1-2.1-2c0-1.7,1.5-2.6,4.1-2.5v-0.1c0-0.6-0.2-1.6-1.6-1.6
				c-0.6,0-1.3,0.2-1.8,0.5l-0.3-0.8c0.6-0.4,1.4-0.6,2.2-0.6c2.1,0,2.6,1.4,2.6,2.8v2.6c0,0.6,0,1.2,0.1,1.6H85.9z M83.5,292.7
				c0.1,0.6,0.4,1,1,1c0.7,0,1-0.5,1-1h0.7c0,1-0.7,1.8-1.8,1.8c-1.2,0-1.8-0.9-1.8-1.8H83.5z M85.7,298.8c-1.4,0-2.9,0.2-2.9,1.5
				c0,0.8,0.5,1.2,1.2,1.2c0.9,0,1.5-0.6,1.7-1.1c0-0.1,0.1-0.3,0.1-0.4V298.8z"/>
			<path d="M89,297.3c0-0.7,0-1.3-0.1-1.9H90l0.1,1.1h0c0.3-0.7,1.1-1.3,2.3-1.3c0.9,0,2.4,0.6,2.4,2.9v4.1h-1.2v-3.9
				c0-1.1-0.4-2-1.6-2c-0.8,0-1.5,0.6-1.7,1.3c-0.1,0.2-0.1,0.4-0.1,0.6v4.1H89V297.3z"/>
			<path d="M102.7,295.5c0,0.5-0.1,1-0.1,1.9v4c0,1.6-0.3,2.5-1,3.1c-0.7,0.6-1.6,0.8-2.5,0.8c-0.8,0-1.7-0.2-2.3-0.6l0.3-0.9
				c0.5,0.3,1.2,0.5,2,0.5c1.3,0,2.2-0.7,2.2-2.4v-0.8h0c-0.4,0.6-1.1,1.1-2.2,1.1c-1.7,0-2.9-1.4-2.9-3.3c0-2.3,1.5-3.6,3.1-3.6
				c1.2,0,1.8,0.6,2.1,1.2h0l0.1-1H102.7z M101.4,298.2c0-0.2,0-0.4-0.1-0.6c-0.2-0.7-0.8-1.3-1.7-1.3c-1.2,0-2,1-2,2.6
				c0,1.3,0.7,2.5,2,2.5c0.8,0,1.5-0.5,1.7-1.3c0.1-0.2,0.1-0.5,0.1-0.7V298.2z"/>
			<path d="M107.7,292.8h1.2v8.5h4.1v1h-5.3V292.8z"/>
			<path d="M120.4,298.8c0,2.5-1.8,3.6-3.4,3.6c-1.9,0-3.3-1.4-3.3-3.5c0-2.3,1.5-3.6,3.4-3.6C119,295.3,120.4,296.7,120.4,298.8z
				 M114.9,298.9c0,1.5,0.9,2.6,2.1,2.6c1.2,0,2.1-1.1,2.1-2.7c0-1.2-0.6-2.6-2-2.6C115.6,296.2,114.9,297.6,114.9,298.9z"/>
			<path d="M121.9,297.3c0-0.7,0-1.3-0.1-1.9h1.1l0.1,1.1h0c0.3-0.7,1.1-1.3,2.3-1.3c0.9,0,2.4,0.6,2.4,2.9v4.1h-1.2v-3.9
				c0-1.1-0.4-2-1.6-2c-0.8,0-1.5,0.6-1.7,1.3c-0.1,0.2-0.1,0.4-0.1,0.6v4.1h-1.2V297.3z"/>
			<path d="M135.7,295.5c0,0.5-0.1,1-0.1,1.9v4c0,1.6-0.3,2.5-1,3.1c-0.7,0.6-1.6,0.8-2.5,0.8c-0.8,0-1.7-0.2-2.3-0.6l0.3-0.9
				c0.5,0.3,1.2,0.5,2,0.5c1.3,0,2.2-0.7,2.2-2.4v-0.8h0c-0.4,0.6-1.1,1.1-2.2,1.1c-1.7,0-2.9-1.4-2.9-3.3c0-2.3,1.5-3.6,3.1-3.6
				c1.2,0,1.8,0.6,2.1,1.2h0l0.1-1H135.7z M134.4,298.2c0-0.2,0-0.4-0.1-0.6c-0.2-0.7-0.8-1.3-1.7-1.3c-1.2,0-2,1-2,2.6
				c0,1.3,0.7,2.5,2,2.5c0.8,0,1.5-0.5,1.7-1.3c0.1-0.2,0.1-0.5,0.1-0.7V298.2z"/>
		</g>
		<g>
			<path d="M214.6,321.5c-0.1-1.3-0.2-2.9-0.1-4.1h0c-0.3,1.1-0.7,2.3-1.2,3.6l-1.7,4.6h-0.9l-1.5-4.5c-0.5-1.3-0.8-2.6-1.1-3.7h0
				c0,1.2-0.1,2.8-0.2,4.2l-0.3,4.1h-1.2l0.7-9.5h1.6l1.6,4.6c0.4,1.2,0.7,2.2,1,3.2h0c0.2-1,0.6-2,1-3.2l1.7-4.6h1.6l0.6,9.5h-1.2
				L214.6,321.5z"/>
			<path d="M218.7,322.5c0,1.7,1.1,2.4,2.3,2.4c0.9,0,1.4-0.2,1.9-0.4l0.2,0.9c-0.4,0.2-1.2,0.4-2.3,0.4c-2.1,0-3.4-1.4-3.4-3.4
				c0-2.1,1.2-3.7,3.2-3.7c2.2,0,2.8,2,2.8,3.2c0,0.3,0,0.5,0,0.6H218.7z M222.4,321.6c0-0.8-0.3-2-1.7-2c-1.3,0-1.8,1.2-1.9,2
				H222.4z M221.1,315.9l1.4,2h-0.9l-0.8-1.3h0l-0.8,1.3h-0.9l1.3-2H221.1z"/>
			<path d="M228.1,316.1h1.2v8.5h4.1v1h-5.3V316.1z"/>
			<path d="M236.2,316.9c0,0.4-0.3,0.8-0.8,0.8c-0.4,0-0.7-0.3-0.7-0.8c0-0.4,0.3-0.8,0.8-0.8C235.9,316.1,236.2,316.5,236.2,316.9z
				 M234.8,325.7v-6.8h1.2v6.8H234.8z"/>
			<path d="M238.1,320.7c0-0.7,0-1.3-0.1-1.9h1.1l0.1,1.1h0c0.3-0.7,1.1-1.3,2.3-1.3c0.9,0,2.4,0.6,2.4,2.9v4.1h-1.2v-3.9
				c0-1.1-0.4-2-1.6-2c-0.8,0-1.5,0.6-1.7,1.3c-0.1,0.2-0.1,0.4-0.1,0.6v4.1h-1.2V320.7z"/>
			<path d="M245.9,315.6h1.2v4.3h0c0.2-0.4,0.5-0.7,0.9-0.9c0.4-0.2,0.8-0.4,1.3-0.4c0.9,0,2.4,0.6,2.4,2.9v4.1h-1.2v-3.9
				c0-1.1-0.4-2-1.6-2c-0.8,0-1.4,0.6-1.7,1.2c-0.1,0.2-0.1,0.4-0.1,0.6v4.1h-1.2V315.6z"/>
			<path d="M256.8,316.2c0.6-0.1,1.4-0.2,2.4-0.2c1.2,0,2.1,0.3,2.7,0.8c0.5,0.5,0.8,1.1,0.8,2c0,0.9-0.3,1.5-0.7,2
				c-0.7,0.7-1.7,1-2.9,1c-0.4,0-0.7,0-1-0.1v3.8h-1.2V316.2z M258,320.8c0.3,0.1,0.6,0.1,1,0.1c1.5,0,2.4-0.7,2.4-2
				c0-1.3-0.9-1.9-2.2-1.9c-0.5,0-0.9,0-1.2,0.1V320.8z"/>
			<path d="M264.2,315.6h1.2v10h-1.2V315.6z"/>
			<path d="M271.3,325.7l-0.1-0.9h0c-0.4,0.5-1.1,1-2.1,1c-1.4,0-2.1-1-2.1-2c0-1.7,1.5-2.6,4.1-2.5v-0.1c0-0.6-0.2-1.6-1.6-1.6
				c-0.6,0-1.3,0.2-1.8,0.5l-0.3-0.8c0.6-0.4,1.4-0.6,2.2-0.6c2.1,0,2.6,1.4,2.6,2.8v2.6c0,0.6,0,1.2,0.1,1.6H271.3z M271.1,322.2
				c-1.4,0-2.9,0.2-2.9,1.5c0,0.8,0.5,1.2,1.2,1.2c0.9,0,1.5-0.6,1.7-1.1c0-0.1,0.1-0.3,0.1-0.4V322.2z"/>
			<path d="M273.6,324.9l3.1-4c0.3-0.4,0.6-0.7,0.9-1.1v0h-3.7v-1h5.2l0,0.8l-3.1,4c-0.3,0.4-0.6,0.7-0.9,1.1v0h4v1h-5.6V324.9z"/>
			<path d="M284.2,325.7l-0.1-0.9h0c-0.4,0.5-1.1,1-2.1,1c-1.4,0-2.1-1-2.1-2c0-1.7,1.5-2.6,4.1-2.5v-0.1c0-0.6-0.2-1.6-1.6-1.6
				c-0.6,0-1.3,0.2-1.8,0.5l-0.3-0.8c0.6-0.4,1.4-0.6,2.2-0.6c2.1,0,2.6,1.4,2.6,2.8v2.6c0,0.6,0,1.2,0.1,1.6H284.2z M284,322.2
				c-1.4,0-2.9,0.2-2.9,1.5c0,0.8,0.5,1.2,1.2,1.2c0.9,0,1.5-0.6,1.7-1.1c0-0.1,0.1-0.3,0.1-0.4V322.2z"/>
		</g>
		<g>
			<path d="M305.5,143.2c-0.5,0.2-1.4,0.5-2.5,0.5c-2.7,0-4.7-1.7-4.7-4.8c0-3,2-5,5-5c1.2,0,1.9,0.3,2.3,0.4l-0.3,1
				c-0.5-0.2-1.1-0.4-1.9-0.4c-2.2,0-3.7,1.4-3.7,3.9c0,2.3,1.3,3.8,3.7,3.8c0.7,0,1.5-0.2,2-0.4L305.5,143.2z"/>
			<path d="M310.7,143.5l-0.1-0.9h0c-0.4,0.5-1.1,1-2.1,1c-1.4,0-2.1-1-2.1-2c0-1.7,1.5-2.6,4.1-2.5V139c0-0.6-0.2-1.6-1.6-1.6
				c-0.6,0-1.3,0.2-1.8,0.5l-0.3-0.8c0.6-0.4,1.4-0.6,2.2-0.6c2.1,0,2.6,1.4,2.6,2.8v2.6c0,0.6,0,1.2,0.1,1.6H310.7z M309.7,133.7
				l1.4,2h-0.9l-0.8-1.3h0l-0.8,1.3h-0.9l1.3-2H309.7z M310.5,140c-1.4,0-2.9,0.2-2.9,1.5c0,0.8,0.5,1.2,1.2,1.2
				c0.9,0,1.5-0.6,1.7-1.1c0-0.1,0.1-0.3,0.1-0.4V140z"/>
			<path d="M314.1,136.6l1.5,4c0.2,0.5,0.3,1,0.4,1.4h0c0.1-0.4,0.3-0.9,0.4-1.4l1.4-4h1.3l-1.9,4.9c-0.9,2.3-1.5,3.5-2.3,4.3
				c-0.6,0.5-1.2,0.7-1.5,0.8l-0.3-1c0.3-0.1,0.7-0.3,1.1-0.6c0.3-0.3,0.8-0.7,1-1.4c0.1-0.1,0.1-0.2,0.1-0.3s0-0.2-0.1-0.3
				l-2.5-6.3H314.1z"/>
			<path d="M323.9,136.6l1,1.5c0.3,0.4,0.5,0.7,0.7,1.1h0c0.2-0.4,0.5-0.8,0.7-1.1l1-1.5h1.3l-2.3,3.3l2.4,3.5h-1.4l-1-1.5
				c-0.3-0.4-0.5-0.8-0.7-1.2h0c-0.2,0.4-0.5,0.8-0.7,1.2l-1,1.5h-1.4l2.4-3.5l-2.3-3.3H323.9z"/>
			<path d="M333.6,143.5l-0.1-0.9h0c-0.4,0.5-1.1,1-2.1,1c-1.4,0-2.1-1-2.1-2c0-1.7,1.5-2.6,4.1-2.5V139c0-0.6-0.2-1.6-1.6-1.6
				c-0.6,0-1.3,0.2-1.8,0.5l-0.3-0.8c0.6-0.4,1.4-0.6,2.2-0.6c2.1,0,2.6,1.4,2.6,2.8v2.6c0,0.6,0,1.2,0.1,1.6H333.6z M331.2,133.8
				c0.1,0.6,0.4,1,1,1c0.7,0,1-0.5,1-1h0.7c0,1-0.7,1.8-1.8,1.8c-1.2,0-1.8-0.9-1.8-1.8H331.2z M333.4,140c-1.4,0-2.9,0.2-2.9,1.5
				c0,0.8,0.5,1.2,1.2,1.2c0.9,0,1.5-0.6,1.7-1.1c0-0.1,0.1-0.3,0.1-0.4V140z"/>
			<path d="M336.6,138.5c0-0.7,0-1.3-0.1-1.9h1.1l0.1,1.1h0c0.3-0.7,1.1-1.3,2.3-1.3c0.9,0,2.4,0.6,2.4,2.9v4.1h-1.2v-3.9
				c0-1.1-0.4-2-1.6-2c-0.8,0-1.5,0.6-1.7,1.3c-0.1,0.2-0.1,0.4-0.1,0.6v4.1h-1.2V138.5z"/>
			<path d="M350.4,136.6c0,0.5-0.1,1-0.1,1.9v4c0,1.6-0.3,2.5-1,3.1c-0.7,0.6-1.6,0.8-2.5,0.8c-0.8,0-1.7-0.2-2.3-0.6l0.3-0.9
				c0.5,0.3,1.2,0.5,2,0.5c1.3,0,2.2-0.7,2.2-2.4v-0.8h0c-0.4,0.6-1.1,1.1-2.2,1.1c-1.7,0-2.9-1.4-2.9-3.3c0-2.3,1.5-3.6,3.1-3.6
				c1.2,0,1.8,0.6,2.1,1.2h0l0.1-1H350.4z M349.1,139.3c0-0.2,0-0.4-0.1-0.6c-0.2-0.7-0.8-1.3-1.7-1.3c-1.2,0-2,1-2,2.6
				c0,1.3,0.7,2.5,2,2.5c0.8,0,1.5-0.5,1.7-1.3c0.1-0.2,0.1-0.5,0.1-0.7V139.3z"/>
		</g>
		<g>
			<path d="M256.6,174.8c-0.5,0.2-1.4,0.5-2.5,0.5c-2.7,0-4.7-1.7-4.7-4.8c0-3,2-5,5-5c1.2,0,1.9,0.3,2.3,0.4l-0.3,1
				c-0.5-0.2-1.1-0.4-1.9-0.4c-2.2,0-3.7,1.4-3.7,3.9c0,2.3,1.3,3.8,3.7,3.8c0.7,0,1.5-0.2,2-0.4L256.6,174.8z"/>
			<path d="M258.1,165h1.2v4.3h0c0.2-0.4,0.5-0.7,0.9-0.9c0.4-0.2,0.8-0.4,1.3-0.4c0.9,0,2.4,0.6,2.4,2.9v4.1h-1.2v-3.9
				c0-1.1-0.4-2-1.6-2c-0.8,0-1.4,0.6-1.7,1.2c-0.1,0.2-0.1,0.4-0.1,0.6v4.1h-1.2V165z"/>
			<path d="M272.5,167.1c0.1,0.3,0.2,0.6,0.2,1c0,0.8-0.5,1.3-1.3,1.2c0.5,0.6,0.7,1.3,0.7,2.3c0,2.5-1.8,3.6-3.4,3.6
				c-1.9,0-3.3-1.4-3.3-3.5c0-2.3,1.5-3.6,3.4-3.6c0.4,0,0.8,0.1,1.2,0.2c0.3,0.1,0.8,0.4,1.2,0.4c0.4,0,0.6-0.2,0.6-0.6
				c0-0.3-0.1-0.6-0.2-0.8L272.5,167.1z M266.7,171.7c0,1.5,0.9,2.6,2.1,2.6c1.2,0,2.1-1.1,2.1-2.7c0-1.2-0.6-2.6-2-2.6
				C267.4,169,266.7,170.4,266.7,171.7z M269.5,176.9c0,0.4-0.3,0.7-0.7,0.7c-0.4,0-0.7-0.3-0.7-0.7c0-0.4,0.3-0.7,0.7-0.7
				C269.2,176.2,269.5,176.5,269.5,176.9z"/>
			<path d="M284.7,176.5c-1.3-0.3-2.5-0.7-3.6-1.1c-0.2-0.1-0.4-0.1-0.6-0.1c-2.3-0.1-4.2-1.8-4.2-4.8c0-3.1,1.9-5,4.4-5
				c2.6,0,4.3,2,4.3,4.8c0,2.4-1.1,4-2.7,4.6v0.1c0.9,0.2,2,0.5,2.8,0.6L284.7,176.5z M283.7,170.3c0-1.9-1-3.9-3-3.9
				c-2.1,0-3.1,1.9-3.1,4c0,2,1.1,3.8,3,3.8C282.5,174.2,283.7,172.5,283.7,170.3z"/>
			<path d="M292.3,173.2c0,0.7,0,1.3,0.1,1.9h-1.1l-0.1-1.1h0c-0.3,0.6-1,1.3-2.3,1.3c-1.1,0-2.4-0.6-2.4-3v-4h1.2v3.8
				c0,1.3,0.4,2.2,1.5,2.2c0.8,0,1.4-0.6,1.6-1.1c0.1-0.2,0.1-0.4,0.1-0.6v-4.2h1.2V173.2z"/>
			<path d="M298.1,175.1l-0.1-0.9h0c-0.4,0.5-1.1,1-2.1,1c-1.4,0-2.1-1-2.1-2c0-1.7,1.5-2.6,4.1-2.5v-0.1c0-0.6-0.2-1.6-1.6-1.6
				c-0.6,0-1.3,0.2-1.8,0.5l-0.3-0.8c0.6-0.4,1.4-0.6,2.2-0.6c2.1,0,2.6,1.4,2.6,2.8v2.6c0,0.6,0,1.2,0.1,1.6H298.1z M297.9,171.6
				c-1.4,0-2.9,0.2-2.9,1.5c0,0.8,0.5,1.2,1.2,1.2c0.9,0,1.5-0.6,1.7-1.1c0-0.1,0.1-0.3,0.1-0.4V171.6z"/>
			<path d="M301.1,170.1c0-0.7,0-1.3-0.1-1.9h1.1l0.1,1.1h0c0.3-0.7,1.1-1.3,2.3-1.3c0.9,0,2.4,0.6,2.4,2.9v4.1h-1.2v-3.9
				c0-1.1-0.4-2-1.6-2c-0.8,0-1.5,0.6-1.7,1.3c-0.1,0.2-0.1,0.4-0.1,0.6v4.1h-1.2V170.1z"/>
			<path d="M314.9,168.2c0,0.5-0.1,1-0.1,1.9v4c0,1.6-0.3,2.5-1,3.1c-0.7,0.6-1.6,0.8-2.5,0.8c-0.8,0-1.7-0.2-2.3-0.6l0.3-0.9
				c0.5,0.3,1.2,0.5,2,0.5c1.3,0,2.2-0.7,2.2-2.4v-0.8h0c-0.4,0.6-1.1,1.1-2.2,1.1c-1.7,0-2.9-1.4-2.9-3.3c0-2.3,1.5-3.6,3.1-3.6
				c1.2,0,1.8,0.6,2.1,1.2h0l0.1-1H314.9z M313.6,170.9c0-0.2,0-0.4-0.1-0.6c-0.2-0.7-0.8-1.3-1.7-1.3c-1.2,0-2,1-2,2.6
				c0,1.3,0.7,2.5,2,2.5c0.8,0,1.5-0.5,1.7-1.3c0.1-0.2,0.1-0.5,0.1-0.7V170.9z"/>
			<path d="M328,170.9c-0.1-1.3-0.2-2.9-0.1-4.1h0c-0.3,1.1-0.7,2.3-1.2,3.6l-1.7,4.6H324l-1.5-4.5c-0.5-1.3-0.8-2.6-1.1-3.7h0
				c0,1.2-0.1,2.8-0.2,4.2l-0.3,4.1h-1.2l0.7-9.5h1.6l1.6,4.6c0.4,1.2,0.7,2.2,1,3.2h0c0.2-1,0.6-2,1-3.2l1.7-4.6h1.6l0.6,9.5h-1.2
				L328,170.9z"/>
			<path d="M332.8,166.3c0,0.4-0.3,0.8-0.8,0.8c-0.4,0-0.7-0.3-0.7-0.8c0-0.4,0.3-0.8,0.8-0.8C332.5,165.5,332.8,165.9,332.8,166.3z
				 M331.4,175.1v-6.8h1.2v6.8H331.4z"/>
			<path d="M334.7,170.1c0-0.7,0-1.3-0.1-1.9h1.1l0.1,1.1h0c0.3-0.7,1.1-1.3,2.3-1.3c0.9,0,2.4,0.6,2.4,2.9v4.1h-1.2v-3.9
				c0-1.1-0.4-2-1.6-2c-0.8,0-1.5,0.6-1.7,1.3c-0.1,0.2-0.1,0.4-0.1,0.6v4.1h-1.2V170.1z"/>
			<path d="M342.6,165h1.2v4.3h0c0.2-0.4,0.5-0.7,0.9-0.9c0.4-0.2,0.8-0.4,1.3-0.4c0.9,0,2.4,0.6,2.4,2.9v4.1h-1.2v-3.9
				c0-1.1-0.4-2-1.6-2c-0.8,0-1.4,0.6-1.7,1.2c-0.1,0.2-0.1,0.4-0.1,0.6v4.1h-1.2V165z"/>
		</g>
		<g>
			<path d="M311.6,271.5v0.8l-4,8.4h-1.3l4-8.1v0h-4.5v-1H311.6z"/>
			<path d="M319,276c0,3.1-1.2,4.8-3.2,4.8c-1.8,0-3-1.7-3-4.7c0-3.1,1.3-4.8,3.2-4.8C317.9,271.4,319,273.1,319,276z M314,276.1
				c0,2.4,0.7,3.7,1.9,3.7c1.3,0,1.9-1.5,1.9-3.8c0-2.3-0.6-3.7-1.9-3.7C314.8,272.3,314,273.6,314,276.1z"/>
			<path d="M326.2,276c0,3.1-1.2,4.8-3.2,4.8c-1.8,0-3-1.7-3-4.7c0-3.1,1.3-4.8,3.2-4.8C325.1,271.4,326.2,273.1,326.2,276z
				 M321.2,276.1c0,2.4,0.7,3.7,1.9,3.7c1.3,0,1.9-1.5,1.9-3.8c0-2.3-0.6-3.7-1.9-3.7C322,272.3,321.2,273.6,321.2,276.1z"/>
			<path d="M327.8,275.7c0-0.7,0-1.3-0.1-1.9h1.1l0.1,1.1h0c0.4-0.7,1-1.3,2.1-1.3c0.9,0,1.6,0.6,1.9,1.4h0c0.2-0.4,0.5-0.7,0.8-0.9
				c0.4-0.3,0.9-0.5,1.5-0.5c0.9,0,2.2,0.6,2.2,3v4h-1.2v-3.9c0-1.3-0.5-2.1-1.5-2.1c-0.7,0-1.3,0.5-1.5,1.1
				c-0.1,0.2-0.1,0.4-0.1,0.6v4.2H332v-4.1c0-1.1-0.5-1.9-1.4-1.9c-0.8,0-1.3,0.6-1.5,1.2c-0.1,0.2-0.1,0.4-0.1,0.6v4.1h-1.2V275.7z
				"/>
		</g>
		<g>
			<path d="M448,271.5v0.8l-4,8.4h-1.3l4-8.1v0h-4.5v-1H448z"/>
			<path d="M455.3,276c0,3.1-1.2,4.8-3.2,4.8c-1.8,0-3-1.7-3-4.7c0-3.1,1.3-4.8,3.2-4.8C454.2,271.4,455.3,273.1,455.3,276z
				 M450.4,276.1c0,2.4,0.7,3.7,1.9,3.7c1.3,0,1.9-1.5,1.9-3.8c0-2.3-0.6-3.7-1.9-3.7C451.1,272.3,450.4,273.6,450.4,276.1z"/>
			<path d="M462.6,276c0,3.1-1.2,4.8-3.2,4.8c-1.8,0-3-1.7-3-4.7c0-3.1,1.3-4.8,3.2-4.8C461.5,271.4,462.6,273.1,462.6,276z
				 M457.6,276.1c0,2.4,0.7,3.7,1.9,3.7c1.3,0,1.9-1.5,1.9-3.8c0-2.3-0.6-3.7-1.9-3.7C458.4,272.3,457.6,273.6,457.6,276.1z"/>
			<path d="M464.1,275.7c0-0.7,0-1.3-0.1-1.9h1.1l0.1,1.1h0c0.4-0.7,1-1.3,2.1-1.3c0.9,0,1.6,0.6,1.9,1.4h0c0.2-0.4,0.5-0.7,0.8-0.9
				c0.4-0.3,0.9-0.5,1.5-0.5c0.9,0,2.2,0.6,2.2,3v4h-1.2v-3.9c0-1.3-0.5-2.1-1.5-2.1c-0.7,0-1.3,0.5-1.5,1.1
				c-0.1,0.2-0.1,0.4-0.1,0.6v4.2h-1.2v-4.1c0-1.1-0.5-1.9-1.4-1.9c-0.8,0-1.3,0.6-1.5,1.2c-0.1,0.2-0.1,0.4-0.1,0.6v4.1h-1.2V275.7
				z"/>
		</g>
		<g>
			<path d="M385.8,208.1h0.8l8.4,4v1.3l-8.1-4h0v4.5h-1V208.1z"/>
			<path d="M390.3,200.7c3.1,0,4.8,1.2,4.8,3.2c0,1.8-1.7,3-4.7,3c-3.1,0-4.8-1.3-4.8-3.2C385.6,201.8,387.4,200.7,390.3,200.7z
				 M390.4,205.7c2.4,0,3.7-0.7,3.7-1.9c0-1.3-1.5-1.9-3.8-1.9c-2.3,0-3.7,0.6-3.7,1.9C386.6,204.9,387.9,205.7,390.4,205.7z"/>
			<path d="M390.3,193.4c3.1,0,4.8,1.2,4.8,3.2c0,1.8-1.7,3-4.7,3c-3.1,0-4.8-1.3-4.8-3.2C385.6,194.5,387.4,193.4,390.3,193.4z
				 M390.4,198.4c2.4,0,3.7-0.7,3.7-1.9c0-1.3-1.5-1.9-3.8-1.9c-2.3,0-3.7,0.6-3.7,1.9C386.6,197.6,387.9,198.4,390.4,198.4z"/>
			<path d="M390,191.9c-0.7,0-1.3,0-1.9,0.1v-1.1l1.1-0.1v0c-0.6-0.4-1.3-1-1.3-2.1c0-0.9,0.6-1.6,1.4-1.9v0
				c-0.4-0.2-0.7-0.5-0.9-0.8c-0.3-0.4-0.5-0.9-0.5-1.5c0-0.9,0.6-2.2,3-2.2h4v1.2h-3.9c-1.3,0-2.1,0.5-2.1,1.5
				c0,0.7,0.5,1.3,1.1,1.5c0.2,0.1,0.4,0.1,0.6,0.1h4.2v1.2h-4.1c-1.1,0-1.9,0.5-1.9,1.4c0,0.8,0.6,1.3,1.2,1.5
				c0.2,0.1,0.4,0.1,0.6,0.1h4.1v1.2H390z"/>
		</g>
		<g>
			<path d="M458.6,110.5V101h1.3l3.1,4.8c0.7,1.1,1.3,2.1,1.7,3.1l0,0c-0.1-1.3-0.1-2.4-0.1-3.9v-4h1.2v9.5h-1.2l-3-4.8
				c-0.7-1.1-1.3-2.1-1.8-3.2l0,0c0.1,1.2,0.1,2.3,0.1,3.9v4.1H458.6z"/>
			<path d="M468,100.5h1.2v4.3h0c0.2-0.4,0.5-0.7,0.9-0.9c0.4-0.2,0.8-0.4,1.3-0.4c0.9,0,2.4,0.6,2.4,2.9v4.1h-1.2v-3.9
				c0-1.1-0.4-2-1.6-2c-0.8,0-1.4,0.6-1.7,1.2c-0.1,0.2-0.1,0.4-0.1,0.6v4.1H468V100.5z"/>
			<path d="M479.6,110.5l-0.1-0.9h0c-0.4,0.5-1.1,1-2.1,1c-1.4,0-2.1-1-2.1-2c0-1.7,1.5-2.6,4.1-2.5V106c0-0.6-0.2-1.6-1.6-1.6
				c-0.6,0-1.3,0.2-1.8,0.5l-0.3-0.8c0.6-0.4,1.4-0.6,2.2-0.6c2.1,0,2.6,1.4,2.6,2.8v2.6c0,0.6,0,1.2,0.1,1.6H479.6z M477.5,100.7
				l1.2,2h-0.9l-1.7-2H477.5z M479.4,107c-1.4,0-2.9,0.2-2.9,1.5c0,0.8,0.5,1.2,1.2,1.2c0.9,0,1.5-0.6,1.7-1.1
				c0-0.1,0.1-0.3,0.1-0.4V107z"/>
			<path d="M487.1,101.7v2h1.8v0.9h-1.8v3.7c0,0.8,0.2,1.3,0.9,1.3c0.3,0,0.6,0,0.7-0.1l0.1,0.9c-0.2,0.1-0.6,0.2-1.1,0.2
				c-0.6,0-1-0.2-1.3-0.5c-0.4-0.4-0.5-1-0.5-1.8v-3.7h-1.1v-0.9h1.1V102L487.1,101.7z"/>
			<path d="M490.3,105.8c0-0.8,0-1.5-0.1-2.1h1.1l0,1.3h0.1c0.3-0.9,1.1-1.5,1.9-1.5c0.1,0,0.2,0,0.4,0v1.2c-0.1,0-0.3,0-0.4,0
				c-0.9,0-1.5,0.7-1.7,1.6c0,0.2-0.1,0.4-0.1,0.6v3.6h-1.2V105.8z"/>
			<path d="M498.7,110.5l-0.1-0.9h0c-0.4,0.5-1.1,1-2.1,1c-1.4,0-2.1-1-2.1-2c0-1.7,1.5-2.6,4.1-2.5V106c0-0.6-0.2-1.6-1.6-1.6
				c-0.6,0-1.3,0.2-1.8,0.5l-0.3-0.8c0.6-0.4,1.4-0.6,2.2-0.6c2.1,0,2.6,1.4,2.6,2.8v2.6c0,0.6,0,1.2,0.1,1.6H498.7z M498.5,107
				c-1.4,0-2.9,0.2-2.9,1.5c0,0.8,0.5,1.2,1.2,1.2c0.9,0,1.5-0.6,1.7-1.1c0-0.1,0.1-0.3,0.1-0.4V107z"/>
			<path d="M503.1,101.7c0,0.4-0.3,0.8-0.8,0.8c-0.4,0-0.7-0.3-0.7-0.8c0-0.4,0.3-0.8,0.8-0.8C502.8,101,503.1,101.3,503.1,101.7z
				 M501.7,110.5v-6.8h1.2v6.8H501.7z"/>
		</g>
		<g>
			<path d="M514.9,275.4H512v-1h7.1v1h-2.9v8.5h-1.2V275.4z"/>
			<path d="M519.4,279.2c0-0.8,0-1.5-0.1-2.1h1.1l0,1.3h0.1c0.3-0.9,1.1-1.5,1.9-1.5c0.1,0,0.2,0,0.4,0v1.2c-0.1,0-0.3,0-0.4,0
				c-0.9,0-1.5,0.7-1.7,1.6c0,0.2-0.1,0.4-0.1,0.6v3.6h-1.2V279.2z"/>
			<path d="M527.8,283.9l-0.1-0.9h0c-0.4,0.5-1.1,1-2.1,1c-1.4,0-2.1-1-2.1-2c0-1.7,1.5-2.6,4.1-2.5v-0.1c0-0.6-0.2-1.6-1.6-1.6
				c-0.6,0-1.3,0.2-1.8,0.5l-0.3-0.8c0.6-0.4,1.4-0.6,2.2-0.6c2.1,0,2.6,1.4,2.6,2.8v2.6c0,0.6,0,1.2,0.1,1.6H527.8z M527.6,280.4
				c-1.4,0-2.9,0.2-2.9,1.5c0,0.8,0.5,1.2,1.2,1.2c0.9,0,1.5-0.6,1.7-1.1c0-0.1,0.1-0.3,0.1-0.4V280.4z M527,285.8
				c0,0.4-0.3,0.7-0.7,0.7c-0.4,0-0.7-0.3-0.7-0.7c0-0.4,0.3-0.7,0.7-0.7C526.8,285.1,527,285.4,527,285.8z"/>
			<path d="M530.8,278.9c0-0.7,0-1.3-0.1-1.9h1.1l0.1,1.1h0c0.4-0.7,1-1.3,2.1-1.3c0.9,0,1.6,0.6,1.9,1.4h0c0.2-0.4,0.5-0.7,0.8-0.9
				c0.4-0.3,0.9-0.5,1.5-0.5c0.9,0,2.2,0.6,2.2,3v4h-1.2v-3.9c0-1.3-0.5-2.1-1.5-2.1c-0.7,0-1.3,0.5-1.5,1.1
				c-0.1,0.2-0.1,0.4-0.1,0.6v4.2h-1.2v-4.1c0-1.1-0.5-1.9-1.4-1.9c-0.8,0-1.3,0.6-1.5,1.2c-0.1,0.2-0.1,0.4-0.1,0.6v4.1h-1.2V278.9
				z"/>
			<path d="M547.1,275.1v2h1.8v0.9h-1.8v3.7c0,0.8,0.2,1.3,0.9,1.3c0.3,0,0.6,0,0.7-0.1l0.1,0.9c-0.2,0.1-0.6,0.2-1.1,0.2
				c-0.6,0-1-0.2-1.3-0.5c-0.4-0.4-0.5-1-0.5-1.8V278h-1.1v-0.9h1.1v-1.6L547.1,275.1z"/>
			<path d="M550.2,273.9h1.2v4.3h0c0.2-0.4,0.5-0.7,0.9-0.9c0.4-0.2,0.8-0.4,1.3-0.4c0.9,0,2.4,0.6,2.4,2.9v4.1h-1.2V280
				c0-1.1-0.4-2-1.6-2c-0.8,0-1.4,0.6-1.7,1.2c-0.1,0.2-0.1,0.4-0.1,0.6v4.1h-1.2V273.9z"/>
			<path d="M563.8,282.1c0,0.7,0,1.3,0.1,1.9h-1.1l-0.1-1.1h0c-0.3,0.6-1,1.3-2.3,1.3c-1.1,0-2.4-0.6-2.4-3v-4h1.2v3.8
				c0,1.3,0.4,2.2,1.5,2.2c0.8,0,1.4-0.6,1.6-1.1c0.1-0.2,0.1-0.4,0.1-0.6v-4.2h1.2V282.1z"/>
			<path d="M568.9,279.3c0-0.9,0-1.6-0.1-2.2h1.1l0.1,1.2h0c0.5-0.8,1.3-1.3,2.4-1.3c1.7,0,2.9,1.4,2.9,3.5c0,2.5-1.5,3.7-3.1,3.7
				c-0.9,0-1.7-0.4-2.1-1.1h0v3.7h-1.2V279.3z M570.1,281.1c0,0.2,0,0.4,0.1,0.5c0.2,0.9,1,1.5,1.9,1.5c1.3,0,2.1-1.1,2.1-2.6
				c0-1.4-0.7-2.5-2-2.5c-0.8,0-1.6,0.6-1.9,1.5c0,0.2-0.1,0.3-0.1,0.5V281.1z"/>
			<path d="M576.9,273.9h1.2v4.3h0c0.2-0.4,0.5-0.7,0.9-0.9c0.4-0.2,0.8-0.4,1.3-0.4c0.9,0,2.4,0.6,2.4,2.9v4.1h-1.2V280
				c0-1.1-0.4-2-1.6-2c-0.8,0-1.4,0.6-1.7,1.2c-0.1,0.2-0.1,0.4-0.1,0.6v4.1h-1.2V273.9z"/>
			<path d="M587.3,274.1l-1.7,2h-0.9l1.2-2H587.3z M584.7,283.9v-6.8h1.2v6.8H584.7z"/>
		</g>
		<g>
			<path d="M469,348v-9.5h1.3l3.1,4.8c0.7,1.1,1.3,2.1,1.7,3.1l0,0c-0.1-1.3-0.1-2.4-0.1-3.9v-4h1.2v9.5h-1.2l-3-4.8
				c-0.7-1.1-1.3-2.1-1.8-3.2l0,0c0.1,1.2,0.1,2.3,0.1,3.9v4.1H469z"/>
			<path d="M478.4,338h1.2v4.3h0c0.2-0.4,0.5-0.7,0.9-0.9c0.4-0.2,0.8-0.4,1.3-0.4c0.9,0,2.4,0.6,2.4,2.9v4.1H483v-3.9
				c0-1.1-0.4-2-1.6-2c-0.8,0-1.4,0.6-1.7,1.2c-0.1,0.2-0.1,0.4-0.1,0.6v4.1h-1.2V338z"/>
			<path d="M490,348l-0.1-0.9h0c-0.4,0.5-1.1,1-2.1,1c-1.4,0-2.1-1-2.1-2c0-1.7,1.5-2.6,4.1-2.5v-0.1c0-0.6-0.2-1.6-1.6-1.6
				c-0.6,0-1.3,0.2-1.8,0.5l-0.3-0.8c0.6-0.4,1.4-0.6,2.2-0.6c2.1,0,2.6,1.4,2.6,2.8v2.6c0,0.6,0,1.2,0.1,1.6H490z M487.9,338.2
				l1.2,2h-0.9l-1.7-2H487.9z M489.8,344.5c-1.4,0-2.9,0.2-2.9,1.5c0,0.8,0.5,1.2,1.2,1.2c0.9,0,1.5-0.6,1.7-1.1
				c0-0.1,0.1-0.3,0.1-0.4V344.5z"/>
			<path d="M496,338h1.2v4.3h0c0.2-0.4,0.5-0.7,0.9-0.9c0.4-0.2,0.8-0.4,1.3-0.4c0.9,0,2.4,0.6,2.4,2.9v4.1h-1.2v-3.9
				c0-1.1-0.4-2-1.6-2c-0.8,0-1.4,0.6-1.7,1.2c-0.1,0.2-0.1,0.4-0.1,0.6v4.1H496V338z"/>
			<path d="M507.7,348l-0.1-0.9h0c-0.4,0.5-1.1,1-2.1,1c-1.4,0-2.1-1-2.1-2c0-1.7,1.5-2.6,4.1-2.5v-0.1c0-0.6-0.2-1.6-1.6-1.6
				c-0.6,0-1.3,0.2-1.8,0.5l-0.3-0.8c0.6-0.4,1.4-0.6,2.2-0.6c2.1,0,2.6,1.4,2.6,2.8v2.6c0,0.6,0,1.2,0.1,1.6H507.7z M505.6,338.2
				l1.2,2h-0.9l-1.7-2H505.6z M507.5,344.5c-1.4,0-2.9,0.2-2.9,1.5c0,0.8,0.5,1.2,1.2,1.2c0.9,0,1.5-0.6,1.7-1.1
				c0-0.1,0.1-0.3,0.1-0.4V344.5z"/>
			<path d="M510.7,343c0-0.7,0-1.3-0.1-1.9h1.1l0.1,1.1h0c0.3-0.7,1.1-1.3,2.3-1.3c0.9,0,2.4,0.6,2.4,2.9v4.1h-1.2V344
				c0-1.1-0.4-2-1.6-2c-0.8,0-1.5,0.6-1.7,1.3c-0.1,0.2-0.1,0.4-0.1,0.6v4.1h-1.2V343z"/>
			<path d="M524.4,341.2c0,0.5-0.1,1-0.1,1.9v4c0,1.6-0.3,2.5-1,3.1c-0.7,0.6-1.6,0.8-2.5,0.8c-0.8,0-1.7-0.2-2.3-0.6l0.3-0.9
				c0.5,0.3,1.2,0.5,2,0.5c1.3,0,2.2-0.7,2.2-2.4v-0.8h0c-0.4,0.6-1.1,1.1-2.2,1.1c-1.7,0-2.9-1.4-2.9-3.3c0-2.3,1.5-3.6,3.1-3.6
				c1.2,0,1.8,0.6,2.1,1.2h0l0.1-1H524.4z M523.1,343.8c0-0.2,0-0.4-0.1-0.6c-0.2-0.7-0.8-1.3-1.7-1.3c-1.2,0-2,1-2,2.6
				c0,1.3,0.7,2.5,2,2.5c0.8,0,1.5-0.5,1.7-1.3c0.1-0.2,0.1-0.5,0.1-0.7V343.8z"/>
			<path d="M529.3,346.5c0.6,0.3,1.4,0.6,2.2,0.6c1.3,0,2-0.7,2-1.6c0-0.9-0.5-1.4-1.8-1.9c-1.6-0.6-2.5-1.4-2.5-2.7
				c0-1.5,1.2-2.6,3.1-2.6c1,0,1.7,0.2,2.1,0.5l-0.3,1c-0.3-0.2-0.9-0.5-1.8-0.5c-1.3,0-1.8,0.8-1.8,1.4c0,0.9,0.6,1.3,1.9,1.8
				c1.6,0.6,2.4,1.4,2.4,2.8c0,1.5-1.1,2.7-3.3,2.7c-0.9,0-1.9-0.3-2.4-0.6L529.3,346.5z"/>
			<path d="M537.2,344.8c0,1.7,1.1,2.4,2.3,2.4c0.9,0,1.4-0.2,1.9-0.4l0.2,0.9c-0.4,0.2-1.2,0.4-2.3,0.4c-2.1,0-3.4-1.4-3.4-3.4
				c0-2.1,1.2-3.7,3.2-3.7c2.2,0,2.8,2,2.8,3.2c0,0.3,0,0.5,0,0.6H537.2z M540.8,343.9c0-0.8-0.3-2-1.7-2c-1.3,0-1.8,1.2-1.9,2
				H540.8z"/>
			<path d="M543.6,343c0-0.7,0-1.3-0.1-1.9h1.1l0.1,1.1h0c0.3-0.7,1.1-1.3,2.3-1.3c0.9,0,2.4,0.6,2.4,2.9v4.1h-1.2V344
				c0-1.1-0.4-2-1.6-2c-0.8,0-1.5,0.6-1.7,1.3c-0.1,0.2-0.1,0.4-0.1,0.6v4.1h-1.2V343z"/>
			<path d="M482.6,356.8h1.2v8.5h4.1v1h-5.3V356.8z"/>
			<path d="M495.2,362.9c0,2.5-1.8,3.6-3.4,3.6c-1.9,0-3.3-1.4-3.3-3.5c0-2.3,1.5-3.6,3.4-3.6C493.9,359.4,495.2,360.8,495.2,362.9z
				 M489.8,363c0,1.5,0.9,2.6,2.1,2.6c1.2,0,2.1-1.1,2.1-2.7c0-1.2-0.6-2.6-2-2.6C490.4,360.3,489.8,361.7,489.8,363z"/>
			<path d="M496.8,361.4c0-0.7,0-1.3-0.1-1.9h1.1l0.1,1.1h0c0.3-0.7,1.1-1.3,2.3-1.3c0.9,0,2.4,0.6,2.4,2.9v4.1h-1.2v-3.9
				c0-1.1-0.4-2-1.6-2c-0.8,0-1.5,0.6-1.7,1.3c-0.1,0.2-0.1,0.4-0.1,0.6v4.1h-1.2V361.4z"/>
			<path d="M510.5,359.5c0,0.5-0.1,1-0.1,1.9v4c0,1.6-0.3,2.5-1,3.1c-0.7,0.6-1.6,0.8-2.5,0.8c-0.8,0-1.7-0.2-2.3-0.6l0.3-0.9
				c0.5,0.3,1.2,0.5,2,0.5c1.3,0,2.2-0.7,2.2-2.4v-0.8h0c-0.4,0.6-1.1,1.1-2.2,1.1c-1.7,0-2.9-1.4-2.9-3.3c0-2.3,1.5-3.6,3.1-3.6
				c1.2,0,1.8,0.6,2.1,1.2h0l0.1-1H510.5z M509.3,362.2c0-0.2,0-0.4-0.1-0.6c-0.2-0.7-0.8-1.3-1.7-1.3c-1.2,0-2,1-2,2.6
				c0,1.3,0.7,2.5,2,2.5c0.8,0,1.5-0.5,1.7-1.3c0.1-0.2,0.1-0.5,0.1-0.7V362.2z"/>
			<path d="M517.2,366.4l-3.1-9.5h1.3l1.5,4.7c0.4,1.3,0.8,2.4,1,3.6h0c0.3-1.1,0.7-2.3,1.1-3.5l1.6-4.7h1.3l-3.4,9.5H517.2z"/>
			<path d="M524.1,357.6c0,0.4-0.3,0.8-0.8,0.8c-0.4,0-0.7-0.3-0.7-0.8c0-0.4,0.3-0.8,0.8-0.8C523.8,356.8,524.1,357.2,524.1,357.6z
				 M522.7,366.4v-6.8h1.2v6.8H522.7z"/>
			<path d="M526.7,363.2c0,1.7,1.1,2.4,2.3,2.4c0.9,0,1.4-0.2,1.9-0.4l0.2,0.9c-0.4,0.2-1.2,0.4-2.3,0.4c-2.1,0-3.4-1.4-3.4-3.4
				c0-2.1,1.2-3.7,3.2-3.7c2.2,0,2.8,2,2.8,3.2c0,0.3,0,0.5,0,0.6H526.7z M530.3,362.3c0-0.8-0.3-2-1.7-2c-1.3,0-1.8,1.2-1.9,2
				H530.3z M528.9,356.6l1.4,2h-1l-0.8-1.3h0l-0.8,1.3h-0.9l1.3-2H528.9z M529.2,368.2c0,0.4-0.3,0.7-0.7,0.7
				c-0.4,0-0.7-0.3-0.7-0.7c0-0.4,0.3-0.7,0.7-0.7C528.9,367.5,529.2,367.8,529.2,368.2z"/>
			<path d="M534.6,357.6v2h1.8v0.9h-1.8v3.7c0,0.8,0.2,1.3,0.9,1.3c0.3,0,0.6,0,0.7-0.1l0.1,0.9c-0.2,0.1-0.6,0.2-1.1,0.2
				c-0.6,0-1-0.2-1.3-0.5c-0.4-0.4-0.5-1-0.5-1.8v-3.7h-1.1v-0.9h1.1v-1.6L534.6,357.6z"/>
			<path d="M415.6,374.9c-1,1.4-1.8,3.2-1.8,5.8c0,2.5,0.8,4.3,1.8,5.7h-1c-0.9-1.2-1.9-3-1.9-5.7c0-2.8,1-4.6,1.9-5.8H415.6z"/>
			<path d="M419.5,376.3h-2.9v-1h7.1v1h-2.9v8.5h-1.2V376.3z"/>
			<path d="M424,380c0-0.8,0-1.5-0.1-2.1h1.1l0,1.3h0.1c0.3-0.9,1.1-1.5,1.9-1.5c0.1,0,0.2,0,0.4,0v1.2c-0.1,0-0.3,0-0.4,0
				c-0.9,0-1.5,0.7-1.7,1.6c0,0.2-0.1,0.4-0.1,0.6v3.6H424V380z"/>
			<path d="M434.7,381.3c0,2.5-1.8,3.6-3.4,3.6c-1.9,0-3.3-1.4-3.3-3.5c0-2.3,1.5-3.6,3.4-3.6C433.3,377.7,434.7,379.2,434.7,381.3z
				 M429.3,381.3c0,1.5,0.9,2.6,2.1,2.6c1.2,0,2.1-1.1,2.1-2.7c0-1.2-0.6-2.6-2-2.6C429.9,378.7,429.3,380,429.3,381.3z"/>
			<path d="M436.2,379.7c0-0.7,0-1.3-0.1-1.9h1.1l0.1,1.1h0c0.3-0.7,1.1-1.3,2.3-1.3c0.9,0,2.4,0.6,2.4,2.9v4.1h-1.2v-3.9
				c0-1.1-0.4-2-1.6-2c-0.8,0-1.5,0.6-1.7,1.3c-0.1,0.2-0.1,0.4-0.1,0.6v4.1h-1.2V379.7z"/>
			<path d="M450,377.9c0,0.5-0.1,1-0.1,1.9v4c0,1.6-0.3,2.5-1,3.1c-0.7,0.6-1.6,0.8-2.5,0.8c-0.8,0-1.7-0.2-2.3-0.6l0.3-0.9
				c0.5,0.3,1.2,0.5,2,0.5c1.3,0,2.2-0.7,2.2-2.4v-0.8h0c-0.4,0.6-1.1,1.1-2.2,1.1c-1.7,0-2.9-1.4-2.9-3.3c0-2.3,1.5-3.6,3.1-3.6
				c1.2,0,1.8,0.6,2.1,1.2h0l0.1-1H450z M448.7,380.6c0-0.2,0-0.4-0.1-0.6c-0.2-0.7-0.8-1.3-1.7-1.3c-1.2,0-2,1-2,2.6
				c0,1.3,0.7,2.5,2,2.5c0.8,0,1.5-0.5,1.7-1.3c0.1-0.2,0.1-0.5,0.1-0.7V380.6z"/>
			<path d="M456.2,381L456.2,381c0.2-0.2,0.4-0.5,0.6-0.8l2-2.4h1.5l-2.6,2.8l3,4h-1.5l-2.4-3.3l-0.6,0.7v2.6H455v-10h1.2V381z"/>
			<path d="M461.9,374.7h1.2v4.3h0c0.2-0.4,0.5-0.7,0.9-0.9c0.4-0.2,0.8-0.4,1.3-0.4c0.9,0,2.4,0.6,2.4,2.9v4.1h-1.2v-3.9
				c0-1.1-0.4-2-1.6-2c-0.8,0-1.4,0.6-1.7,1.2c-0.1,0.2-0.1,0.4-0.1,0.6v4.1h-1.2V374.7z"/>
			<path d="M475.4,382.9c0,0.7,0,1.3,0.1,1.9h-1.1l-0.1-1.1h0c-0.3,0.6-1,1.3-2.3,1.3c-1.1,0-2.4-0.6-2.4-3v-4h1.2v3.8
				c0,1.3,0.4,2.2,1.5,2.2c0.8,0,1.4-0.6,1.6-1.1c0.1-0.2,0.1-0.4,0.1-0.6v-4.2h1.2V382.9z"/>
			<path d="M480.5,375.3c0.5-0.1,1.4-0.2,2.2-0.2c1.2,0,2,0.2,2.6,0.7c0.5,0.4,0.8,0.9,0.8,1.7c0,0.9-0.6,1.7-1.6,2.1v0
				c0.9,0.2,2,1,2,2.4c0,0.8-0.3,1.4-0.8,1.9c-0.7,0.6-1.7,0.9-3.3,0.9c-0.8,0-1.5-0.1-1.9-0.1V375.3z M481.8,379.2h1.1
				c1.3,0,2.1-0.7,2.1-1.6c0-1.1-0.8-1.6-2.1-1.6c-0.6,0-0.9,0-1.1,0.1V379.2z M481.8,383.8c0.2,0,0.6,0.1,1,0.1
				c1.3,0,2.4-0.5,2.4-1.9c0-1.3-1.1-1.8-2.5-1.8h-1V383.8z"/>
			<path d="M489.5,376c0,0.4-0.3,0.8-0.8,0.8c-0.4,0-0.7-0.3-0.7-0.8c0-0.4,0.3-0.8,0.8-0.8C489.2,375.2,489.5,375.5,489.5,376z
				 M488.1,384.7v-6.8h1.2v6.8H488.1z"/>
			<path d="M492.1,381.5c0,1.7,1.1,2.4,2.3,2.4c0.9,0,1.4-0.2,1.9-0.4l0.2,0.9c-0.4,0.2-1.2,0.4-2.3,0.4c-2.1,0-3.4-1.4-3.4-3.4
				c0-2.1,1.2-3.7,3.2-3.7c2.2,0,2.8,2,2.8,3.2c0,0.3,0,0.5,0,0.6H492.1z M495.8,380.7c0-0.8-0.3-2-1.7-2c-1.3,0-1.8,1.2-1.9,2
				H495.8z M494.4,374.9l1.4,2h-1l-0.8-1.3h0l-0.8,1.3h-0.9l1.3-2H494.4z M494.7,386.6c0,0.4-0.3,0.7-0.7,0.7
				c-0.4,0-0.7-0.3-0.7-0.7c0-0.4,0.3-0.7,0.7-0.7C494.4,385.9,494.7,386.2,494.7,386.6z"/>
			<path d="M500,375.9v2h1.8v0.9H500v3.7c0,0.8,0.2,1.3,0.9,1.3c0.3,0,0.6,0,0.7-0.1l0.1,0.9c-0.2,0.1-0.6,0.2-1.1,0.2
				c-0.6,0-1-0.2-1.3-0.5c-0.4-0.4-0.5-1-0.5-1.8v-3.7h-1.1v-0.9h1.1v-1.6L500,375.9z"/>
			<path d="M507.7,375.9v2h1.8v0.9h-1.8v3.7c0,0.8,0.2,1.3,0.9,1.3c0.3,0,0.6,0,0.7-0.1l0.1,0.9c-0.2,0.1-0.6,0.2-1.1,0.2
				c-0.6,0-1-0.2-1.3-0.5c-0.4-0.4-0.5-1-0.5-1.8v-3.7h-1.1v-0.9h1.1v-1.6L507.7,375.9z"/>
			<path d="M510.9,374.7h1.2v4.3h0c0.2-0.4,0.5-0.7,0.9-0.9c0.4-0.2,0.8-0.4,1.3-0.4c0.9,0,2.4,0.6,2.4,2.9v4.1h-1.2v-3.9
				c0-1.1-0.4-2-1.6-2c-0.8,0-1.4,0.6-1.7,1.2c-0.1,0.2-0.1,0.4-0.1,0.6v4.1h-1.2V374.7z"/>
			<path d="M525.5,376.4c0.2,0.3,0.3,0.6,0.3,1c0,0.7-0.5,1.2-1.2,1.2l-0.2,0v4.3c0,0.7,0,1.3,0.1,1.9h-1.1l-0.1-1.1h0
				c-0.3,0.6-1,1.3-2.3,1.3c-1.1,0-2.4-0.6-2.4-3v-4h1.2v3.8c0,1.3,0.4,2.2,1.5,2.2c0.8,0,1.4-0.6,1.6-1.1c0.1-0.2,0.1-0.4,0.1-0.6
				v-4.2h1c0.5,0,0.7-0.2,0.7-0.6c0-0.3-0.1-0.6-0.2-0.8L525.5,376.4z M522.2,386.6c0,0.4-0.3,0.7-0.7,0.7c-0.4,0-0.7-0.3-0.7-0.7
				c0-0.4,0.3-0.7,0.7-0.7C521.9,385.9,522.2,386.2,522.2,386.6z"/>
			<path d="M537.4,386.1c-1.3-0.3-2.5-0.7-3.6-1.1c-0.2-0.1-0.4-0.1-0.6-0.1c-2.3-0.1-4.2-1.8-4.2-4.8c0-3.1,1.9-5,4.4-5
				c2.6,0,4.3,2,4.3,4.8c0,2.4-1.1,4-2.7,4.6v0.1c0.9,0.2,2,0.5,2.8,0.6L537.4,386.1z M536.4,379.9c0-1.9-1-3.9-3-3.9
				c-2.1,0-3.1,1.9-3.1,4c0,2,1.1,3.8,3,3.8C535.3,383.9,536.4,382.1,536.4,379.9z"/>
			<path d="M545,382.9c0,0.7,0,1.3,0.1,1.9H544l-0.1-1.1h0c-0.3,0.6-1,1.3-2.3,1.3c-1.1,0-2.4-0.6-2.4-3v-4h1.2v3.8
				c0,1.3,0.4,2.2,1.5,2.2c0.8,0,1.4-0.6,1.6-1.1c0.1-0.2,0.1-0.4,0.1-0.6v-4.2h1.2V382.9z"/>
			<path d="M550.9,384.7l-0.1-0.9h0c-0.4,0.5-1.1,1-2.1,1c-1.4,0-2.1-1-2.1-2c0-1.7,1.5-2.6,4.1-2.5v-0.1c0-0.6-0.2-1.6-1.6-1.6
				c-0.6,0-1.3,0.2-1.8,0.5l-0.3-0.8c0.6-0.4,1.4-0.6,2.2-0.6c2.1,0,2.6,1.4,2.6,2.8v2.6c0,0.6,0,1.2,0.1,1.6H550.9z M550.7,381.2
				c-1.4,0-2.9,0.2-2.9,1.5c0,0.8,0.5,1.2,1.2,1.2c0.9,0,1.5-0.6,1.7-1.1c0-0.1,0.1-0.3,0.1-0.4V381.2z"/>
			<path d="M553.9,379.7c0-0.7,0-1.3-0.1-1.9h1.1l0.1,1.1h0c0.3-0.7,1.1-1.3,2.3-1.3c0.9,0,2.4,0.6,2.4,2.9v4.1h-1.2v-3.9
				c0-1.1-0.4-2-1.6-2c-0.8,0-1.5,0.6-1.7,1.3c-0.1,0.2-0.1,0.4-0.1,0.6v4.1h-1.2V379.7z"/>
			<path d="M567.6,377.9c0,0.5-0.1,1-0.1,1.9v4c0,1.6-0.3,2.5-1,3.1c-0.7,0.6-1.6,0.8-2.5,0.8c-0.8,0-1.7-0.2-2.3-0.6l0.3-0.9
				c0.5,0.3,1.2,0.5,2,0.5c1.3,0,2.2-0.7,2.2-2.4v-0.8h0c-0.4,0.6-1.1,1.1-2.2,1.1c-1.7,0-2.9-1.4-2.9-3.3c0-2.3,1.5-3.6,3.1-3.6
				c1.2,0,1.8,0.6,2.1,1.2h0l0.1-1H567.6z M566.3,380.6c0-0.2,0-0.4-0.1-0.6c-0.2-0.7-0.8-1.3-1.7-1.3c-1.2,0-2,1-2,2.6
				c0,1.3,0.7,2.5,2,2.5c0.8,0,1.5-0.5,1.7-1.3c0.1-0.2,0.1-0.5,0.1-0.7V380.6z"/>
			<path d="M572.6,379.7c0-0.7,0-1.3-0.1-1.9h1.1l0.1,1.1h0c0.4-0.7,1-1.3,2.1-1.3c0.9,0,1.6,0.6,1.9,1.4h0c0.2-0.4,0.5-0.7,0.8-0.9
				c0.4-0.3,0.9-0.5,1.5-0.5c0.9,0,2.2,0.6,2.2,3v4h-1.2v-3.9c0-1.3-0.5-2.1-1.5-2.1c-0.7,0-1.3,0.5-1.5,1.1
				c-0.1,0.2-0.1,0.4-0.1,0.6v4.2h-1.2v-4.1c0-1.1-0.5-1.9-1.4-1.9c-0.8,0-1.3,0.6-1.5,1.2c-0.1,0.2-0.1,0.4-0.1,0.6v4.1h-1.2V379.7
				z"/>
			<path d="M585.8,376c0,0.4-0.3,0.8-0.8,0.8c-0.4,0-0.7-0.3-0.7-0.8c0-0.4,0.3-0.8,0.8-0.8C585.5,375.2,585.8,375.5,585.8,376z
				 M584.4,384.7v-6.8h1.2v6.8H584.4z"/>
			<path d="M587.7,379.7c0-0.7,0-1.3-0.1-1.9h1.1l0.1,1.1h0c0.3-0.7,1.1-1.3,2.3-1.3c0.9,0,2.4,0.6,2.4,2.9v4.1h-1.2v-3.9
				c0-1.1-0.4-2-1.6-2c-0.8,0-1.5,0.6-1.7,1.3c-0.1,0.2-0.1,0.4-0.1,0.6v4.1h-1.2V379.7z"/>
			<path d="M595.6,374.7h1.2v4.3h0c0.2-0.4,0.5-0.7,0.9-0.9c0.4-0.2,0.8-0.4,1.3-0.4c0.9,0,2.4,0.6,2.4,2.9v4.1h-1.2v-3.9
				c0-1.1-0.4-2-1.6-2c-0.8,0-1.4,0.6-1.7,1.2c-0.1,0.2-0.1,0.4-0.1,0.6v4.1h-1.2V374.7z"/>
			<path d="M602.7,386.4c1-1.4,1.8-3.2,1.8-5.8c0-2.5-0.8-4.3-1.8-5.7h1c0.9,1.2,1.9,3,1.9,5.8c0,2.8-0.9,4.6-1.9,5.8H602.7z"/>
		</g>
		<g>
			<path d="M766,261.8v-9.5h1.3l3.1,4.8c0.7,1.1,1.3,2.1,1.7,3.1l0,0c-0.1-1.3-0.1-2.4-0.1-3.9v-4h1.2v9.5h-1.2l-3-4.8
				c-0.7-1.1-1.3-2.1-1.8-3.2l0,0c0.1,1.2,0.1,2.3,0.1,3.9v4.1H766z"/>
			<path d="M781.1,254.9c0,0.5-0.1,1-0.1,1.9v4c0,1.6-0.3,2.5-1,3.1c-0.7,0.6-1.6,0.8-2.5,0.8c-0.8,0-1.7-0.2-2.3-0.6l0.3-0.9
				c0.5,0.3,1.2,0.5,2,0.5c1.3,0,2.2-0.7,2.2-2.4v-0.8h0c-0.4,0.6-1.1,1.1-2.2,1.1c-1.7,0-2.9-1.4-2.9-3.3c0-2.3,1.5-3.6,3.1-3.6
				c1.2,0,1.8,0.6,2.1,1.2h0l0.1-1H781.1z M779.9,257.6c0-0.2,0-0.4-0.1-0.6c-0.2-0.7-0.8-1.3-1.7-1.3c-1.2,0-2,1-2,2.6
				c0,1.3,0.7,2.5,2,2.5c0.8,0,1.5-0.5,1.7-1.3c0.1-0.2,0.1-0.5,0.1-0.7V257.6z"/>
			<path d="M786.9,261.8l-0.1-0.9h0c-0.4,0.5-1.1,1-2.1,1c-1.4,0-2.1-1-2.1-2c0-1.7,1.5-2.6,4.1-2.5v-0.1c0-0.6-0.2-1.6-1.6-1.6
				c-0.6,0-1.3,0.2-1.8,0.5l-0.3-0.8c0.6-0.4,1.4-0.6,2.2-0.6c2.1,0,2.6,1.4,2.6,2.8v2.6c0,0.6,0,1.2,0.1,1.6H786.9z M783.7,253.8
				c0-0.9,0.4-1.5,1-1.5c0.3,0,0.6,0.1,0.9,0.3c0.2,0.1,0.4,0.2,0.6,0.2c0.2,0,0.4-0.1,0.4-0.6h0.6c0,0.9-0.3,1.4-1,1.4
				c-0.3,0-0.6-0.1-0.9-0.3c-0.3-0.2-0.4-0.3-0.6-0.3c-0.2,0-0.3,0.2-0.4,0.6H783.7z M786.7,258.3c-1.4,0-2.9,0.2-2.9,1.5
				c0,0.8,0.5,1.2,1.2,1.2c0.9,0,1.5-0.6,1.7-1.1c0-0.1,0.1-0.3,0.1-0.4V258.3z"/>
			<path d="M794.5,253v2h1.8v0.9h-1.8v3.7c0,0.8,0.2,1.3,0.9,1.3c0.3,0,0.6,0,0.7-0.1l0.1,0.9c-0.2,0.1-0.6,0.2-1.1,0.2
				c-0.6,0-1-0.2-1.3-0.5c-0.4-0.4-0.5-1-0.5-1.8v-3.7h-1.1v-0.9h1.1v-1.6L794.5,253z"/>
			<path d="M804.5,253.4c0.2,0.3,0.3,0.6,0.3,1c0,0.7-0.5,1.2-1.2,1.2l-0.2,0v4.3c0,0.7,0,1.3,0.1,1.9h-1.1l-0.1-1.1h0
				c-0.3,0.6-1,1.3-2.3,1.3c-1.1,0-2.4-0.6-2.4-3v-4h1.2v3.8c0,1.3,0.4,2.2,1.5,2.2c0.8,0,1.4-0.6,1.6-1.1c0.1-0.2,0.1-0.4,0.1-0.6
				v-4.2h1c0.5,0,0.7-0.2,0.7-0.6c0-0.3-0.1-0.6-0.2-0.8L804.5,253.4z"/>
			<path d="M808.5,261.8v-9.5h1.3l3.1,4.8c0.7,1.1,1.3,2.1,1.7,3.1l0,0c-0.1-1.3-0.1-2.4-0.1-3.9v-4h1.2v9.5h-1.2l-3-4.8
				c-0.7-1.1-1.3-2.1-1.8-3.2l0,0c0.1,1.2,0.1,2.3,0.1,3.9v4.1H808.5z"/>
			<path d="M823.9,258.3c0,2.5-1.8,3.6-3.4,3.6c-1.9,0-3.3-1.4-3.3-3.5c0-2.3,1.5-3.6,3.4-3.6C822.6,254.8,823.9,256.2,823.9,258.3z
				 M818.5,258.4c0,1.5,0.9,2.6,2.1,2.6c1.2,0,2.1-1.1,2.1-2.7c0-1.2-0.6-2.6-2-2.6C819.1,255.7,818.5,257.1,818.5,258.4z M821,252
				l1.4,2h-1l-0.8-1.3h0l-0.8,1.3h-0.9l1.3-2H821z M821.3,263.6c0,0.4-0.3,0.7-0.7,0.7c-0.4,0-0.7-0.3-0.7-0.7
				c0-0.4,0.3-0.7,0.7-0.7C821,262.9,821.3,263.2,821.3,263.6z"/>
			<path d="M826.9,253c0,0.4-0.3,0.8-0.8,0.8c-0.4,0-0.7-0.3-0.7-0.8c0-0.4,0.3-0.8,0.8-0.8C826.6,252.2,826.9,252.6,826.9,253z
				 M825.5,261.8v-6.8h1.2v6.8H825.5z"/>
			<path d="M831.8,252.4c0.5-0.1,1.4-0.2,2.2-0.2c1.2,0,2,0.2,2.6,0.7c0.5,0.4,0.8,0.9,0.8,1.7c0,0.9-0.6,1.7-1.6,2.1v0
				c0.9,0.2,2,1,2,2.4c0,0.8-0.3,1.4-0.8,1.9c-0.7,0.6-1.7,0.9-3.3,0.9c-0.8,0-1.5-0.1-1.9-0.1V252.4z M833,256.3h1.1
				c1.3,0,2.1-0.7,2.1-1.6c0-1.1-0.8-1.6-2.1-1.6c-0.6,0-0.9,0-1.1,0.1V256.3z M833,260.9c0.2,0,0.6,0.1,1,0.1
				c1.3,0,2.4-0.5,2.4-1.9c0-1.3-1.1-1.8-2.5-1.8h-1V260.9z"/>
			<path d="M843.2,261.8l-0.1-0.9h0c-0.4,0.5-1.1,1-2.1,1c-1.4,0-2.1-1-2.1-2c0-1.7,1.5-2.6,4.1-2.5v-0.1c0-0.6-0.2-1.6-1.6-1.6
				c-0.6,0-1.3,0.2-1.8,0.5l-0.3-0.8c0.6-0.4,1.4-0.6,2.2-0.6c2.1,0,2.6,1.4,2.6,2.8v2.6c0,0.6,0,1.2,0.1,1.6H843.2z M841.1,252
				l1.2,2h-0.9l-1.7-2H841.1z M843,258.3c-1.4,0-2.9,0.2-2.9,1.5c0,0.8,0.5,1.2,1.2,1.2c0.9,0,1.5-0.6,1.7-1.1
				c0-0.1,0.1-0.3,0.1-0.4V258.3z"/>
			<path d="M847.6,253c0,0.4-0.3,0.8-0.8,0.8c-0.4,0-0.7-0.3-0.7-0.8c0-0.4,0.3-0.8,0.8-0.8C847.3,252.2,847.6,252.6,847.6,253z
				 M846.2,261.8v-6.8h1.2v6.8H846.2z"/>
		</g>
	</g>
	<g>
		<path class="st4" d="M410,132.4c0-37.7,0-6.2,0-43.8c26.9,0,14.5,0,41.4,0c0,37.7,0,6.2,0,43.8C424.5,132.4,436.9,132.4,410,132.4
			z M411.7,90.3c0,36.6,0,3.9,0,40.4c25.8,0,12.2,0,37.9,0c0-36.6,0-3.9,0-40.4c-9.5,0,1,0-8.3,0c-0.1,0.2-0.1,0.4-0.2,0.6
			c0.5,0.2,0.9,0.6,1.4,0.6c1.3,0,2.6-0.1,3.9-0.1c1.1,0,1.5,0.8,1.5,1.8c0,1-0.5,1.5-1.4,1.5c-1.3,0.1-2.6,0-3.9,0.1
			c-0.4,0-0.7,0.5-1.1,0.7c0.3,0.4,0.6,1,1,1.1c0.9,0.2,1.9,0.1,2.9,0.1c2.5,0,2.8,0.5,2.2,3.1c-5.5,0-10.9,0-16.4,0
			c-0.6-2.6-0.2-3.1,2.2-3.1c1,0,2,0.1,2.9-0.1c0.4-0.1,0.8-0.6,1.2-0.9c-0.4-0.3-0.7-0.8-1.2-0.9c-1.2-0.2-2.4,0-3.6-0.3
			c-0.7-0.2-1.6-0.8-1.7-1.4c-0.2-1,0.5-1.8,1.7-1.9c1.2,0,2.4,0,3.6-0.1c0.4,0,0.8-0.3,1.1-0.5c-0.1-0.2-0.1-0.4-0.2-0.6
			c-4.4,0-8.9,0-13.3,0c-0.2,0-0.5,0.3-0.7,0.5c0.3,0.2,0.6,0.5,0.9,0.5c1.5,0.1,3,0.1,4.4,0.1c1.2,0.1,1.4,1,1.2,1.8
			c-0.1,0.6-0.7,1.3-1.2,1.4c-1.2,0.2-2.5,0-3.7,0.2c-0.5,0.1-0.8,0.6-1.3,0.9c0.4,0.4,0.8,1,1.3,1.1c1.2,0.2,2.5,0,3.8,0.1
			c1.2,0.1,1.4,0.9,1.4,1.9c0,1.2-0.8,1-1.6,1c-4.6,0-9.2,0-13.9,0c-0.9,0-1.7,0-1.6-1.2c0.1-1,0.3-1.9,1.7-1.8c1.5,0.1,3,0,4.5,0
			c0.6-1.5,0-2-1.1-2c-1,0-2.1-0.1-3.1-0.1c-0.9,0-2,0-1.8-1.2c0.1-0.7,0.8-1.7,1.4-1.9c1.1-0.4,2.5-0.3,3.7-0.4
			c0.4-0.1,0.8-0.3,1.2-0.5c0-0.1-0.1-0.3-0.1-0.4C410.4,90.3,420.9,90.3,411.7,90.3z"/>
		<path class="st4" d="M423.2,116.7c1,0,2-0.1,2.9,0c3.1,0.3,4.8,2.9,3.6,5.8c-1.4,3.5-4.5,5.3-7.7,6.9c-0.3,0.1-0.7,0.1-1-0.1
			c-2.1-1.3-4.3-2.5-6.2-4.1c-1.9-1.6-2.2-4.1-1.2-6.1c0.9-1.9,2.3-2.5,5.2-2.3c0.3,0,0.6,0,0.9,0c0.5-1.3,0.1-1.8-1.3-1.8
			c-1.4,0.1-2.9,0-4.3,0c-1.4,0-1.4-0.9-1.5-1.8c-0.1-0.9,0.1-1.7,1.3-1.8c1.5,0,3.1,0,4.8-0.2c-3.6-2.2-5.8-5.1-5.6-9.5
			c5.6,0,11,0,16.7,0c0.3,4.4-1.6,7.4-5.4,9.6c1.3,0,2.7,0,4,0c1.2,0,2.1,0.3,2.1,1.8c0,1.4-0.7,2-2.2,1.9c-1.3-0.1-2.6,0-3.9,0
			C423.2,114.9,422.7,115.3,423.2,116.7z M421.7,120c-0.4-0.3-0.7-0.5-1-0.7c-1.8-1.2-3.2-1-4.4,0.3c-1,1.1-0.9,2.7,0.5,4.1
			c1.2,1.2,2.7,2.2,4.1,3.3c0.2,0.2,0.7,0.3,0.9,0.2c2.2-1.3,4.5-2.6,5.5-5.1c0.3-0.8-0.2-2.2-0.8-2.8c-0.6-0.5-1.8-0.6-2.7-0.5
			C423,118.8,422.4,119.5,421.7,120z M414.2,104.9c0.4,3,3.2,5,6.9,5.1c3.7,0.1,6.7-1.9,7.2-4.5c-2.5-0.9-4.9-1.7-7.5-2.7
			C419.2,104.6,416.8,105.1,414.2,104.9z"/>
		<path class="st4" d="M441.7,116.6c0.5,0,0.9,0,1.4,0c2-0.2,3.6,0.4,4.6,2.2c1,1.9,1.1,4.1-0.5,5.6c-2,1.9-4.5,3.4-6.8,5.1
			c-0.2,0.2-0.8,0.1-1.1-0.1c-2.2-1.5-4.5-2.9-6.4-4.8c-1.6-1.5-2-3.7-0.9-5.9c1.1-2.1,3.1-2.1,5-2c0.3,0,0.7,0,1.1,0
			c0.6-1.2,0.2-1.8-1.1-1.8c-1.4,0-2.7,0.1-4.1,0c-1,0-2-0.2-1.9-1.6c0-1.2,0.5-1.9,1.8-1.9c1.4,0,2.7,0,3.6,0
			c-1.1-1.3-2.4-2.7-3.5-4.2c-1.1-1.6-1.5-3.4-1.3-5.5c5.6,0,11.1,0,16.7,0c0.2,4.3-1.4,7.5-5.5,9.3c0,0.1,0.1,0.3,0.1,0.4
			c1.3,0,2.7,0,4,0c1.3,0,2.1,0.6,1.9,2c-0.1,1.3-0.8,1.7-2.1,1.6c-1.3-0.1-2.6,0-3.9,0C441.6,114.9,441.3,115.4,441.7,116.6z
			 M440,120c-0.6-0.4-1.2-0.8-1.7-1.2c-1.3-0.7-2.5-0.4-3.6,0.6c-1.1,1-1,2.3-0.2,3.2c1.4,1.6,3.1,3,4.7,4.4
			c0.2,0.2,0.7,0.2,0.9,0.1c1.8-1.5,3.6-2.9,5.2-4.6c1-1.1,0.5-2.4-0.5-3.3c-1-1-2.1-1-3.3-0.3C441,119.2,440.5,119.6,440,120z
			 M436.7,104.1c-0.1-0.1-0.1-0.3-0.2-0.4c-1,0.3-2.1,0.4-2.9,1c-0.4,0.3-0.4,1.6-0.1,2.1c1.3,2.4,3.4,3.8,6.2,3.8
			c2.8,0,5.1-1,6.5-3.6c0.4-0.8,0.9-1.7-0.2-2.4c-1-0.6-1.9-1.6-3-0.2c-0.2-0.5-0.4-1-0.6-1.7c-0.4,0.7-0.6,1.1-0.9,1.8
			c-0.3-3-1-1.5-1.7-0.4c-0.2-0.4-0.4-0.8-0.7-1.2c-0.3,0.5-0.6,0.9-0.9,1.4c-0.4-0.5-0.7-0.9-1-1.4
			C437.1,103.4,436.9,103.7,436.7,104.1z"/>
		<path class="st4" d="M423.8,108.1c-0.4-0.7-1-1.2-0.9-1.6c0.1-0.4,0.7-0.7,1.1-1c0.3,0.4,0.9,0.8,0.9,1.2
			C424.9,107,424.3,107.4,423.8,108.1z"/>
		<path class="st4" d="M418.7,105c0.5,0.7,1.1,1.1,1.1,1.4c0,0.4-0.6,1-1,1c-0.4,0-1-0.6-1-0.9C417.7,106.1,418.3,105.7,418.7,105z"
			/>
		<path class="st4" d="M438.8,107c-0.7,0.4-1.2,0.9-1.6,0.9c-0.4-0.1-0.9-0.7-0.9-1.1c0-0.4,0.7-0.9,1.1-0.9S438.2,106.4,438.8,107z
			"/>
		<path class="st4" d="M444.3,106.9c-0.6,0.5-1,1.1-1.4,1.1c-0.4,0-1-0.6-1-0.9c0-0.4,0.5-1,0.9-1.1
			C443.1,105.9,443.6,106.4,444.3,106.9z"/>
	</g>
	<g>
		<path class="st4" d="M410,344.9c0-48.8,0-8,0-56.8c34.9,0,18.8,0,53.7,0c0,48.8,0,8,0,56.8C428.8,344.9,444.9,344.9,410,344.9z
			 M412.2,290.4c0,47.4,0,5,0,52.3c33.5,0,15.7,0,49.1,0c0-47.4,0-5,0-52.3c-12.3,0,1.4,0-10.7,0c-0.1,0.2-0.2,0.5-0.3,0.7
			c0.6,0.3,1.2,0.7,1.8,0.8c1.7,0,3.4-0.2,5.1-0.1c1.5,0,2,1,2,2.4c0,1.4-0.7,1.9-1.8,2c-1.7,0.1-3.4,0-5.1,0.2c-0.5,0-1,0.6-1.4,1
			c0.4,0.5,0.8,1.3,1.3,1.4c1.2,0.2,2.5,0.1,3.8,0.1c3.2,0,3.7,0.6,2.9,4c-7.1,0-14.2,0-21.2,0c-0.7-3.4-0.3-4,2.8-4
			c1.3,0,2.5,0.1,3.8-0.1c0.6-0.1,1.1-0.7,1.6-1.1c-0.5-0.4-1-1-1.5-1.1c-1.5-0.2-3.1,0-4.6-0.4c-0.9-0.2-2.1-1.1-2.2-1.8
			c-0.2-1.3,0.7-2.4,2.2-2.4c1.5-0.1,3.1,0,4.6-0.1c0.5,0,1-0.5,1.5-0.7c-0.1-0.2-0.1-0.5-0.2-0.7c-5.7,0-11.5,0-17.2,0
			c-0.3,0-0.6,0.4-0.9,0.7c0.4,0.2,0.7,0.7,1.1,0.7c1.9,0.1,3.8,0.1,5.8,0.2c1.5,0.1,1.8,1.3,1.5,2.4c-0.2,0.7-0.9,1.7-1.5,1.8
			c-1.6,0.3-3.2,0-4.8,0.2c-0.6,0.1-1.1,0.8-1.6,1.2c0.6,0.5,1.1,1.3,1.7,1.4c1.6,0.2,3.2,0.1,4.9,0.1c1.6,0.1,1.8,1.2,1.8,2.5
			c0,1.5-1.1,1.3-2,1.3c-6,0-12,0-18,0c-1.1,0-2.2,0-2-1.5c0.1-1.3,0.4-2.5,2.2-2.4c2,0.1,3.9,0,5.8,0c0.8-1.9,0-2.5-1.5-2.6
			c-1.3-0.1-2.7-0.1-4-0.1c-1.1,0-2.6,0.1-2.3-1.5c0.1-0.9,1-2.2,1.8-2.5c1.5-0.5,3.2-0.4,4.8-0.6c0.5-0.1,1-0.4,1.5-0.7
			c-0.1-0.2-0.1-0.4-0.2-0.6C410.5,290.4,424.1,290.4,412.2,290.4z"/>
		<path class="st4" d="M427.1,324.5c1.3,0,2.6-0.1,3.8,0c4,0.4,6.2,3.7,4.7,7.5c-1.8,4.5-5.8,6.9-10,8.9c-0.3,0.2-0.9,0.1-1.3-0.1
			c-2.7-1.7-5.6-3.3-8.1-5.3c-2.5-2.1-2.8-5.2-1.6-7.9c1.1-2.5,2.9-3.3,6.7-3c0.4,0,0.7,0,1.1,0c0.6-1.7,0.1-2.4-1.6-2.3
			c-1.8,0.1-3.7,0-5.5,0c-1.8,0.1-1.8-1.2-1.9-2.4c-0.1-1.2,0.1-2.3,1.6-2.3c2,0,4,0,6.2-0.2c-4.7-2.8-7.5-6.5-7.2-12.3
			c7.2,0,14.3,0,21.6,0c0.4,5.6-2,9.6-7,12.4c1.7,0,3.4,0,5.2,0c1.6,0,2.8,0.4,2.7,2.3c0,1.8-0.9,2.6-2.8,2.4
			c-1.7-0.2-3.4,0-5.1-0.1C427.1,322.2,426.5,322.7,427.1,324.5z M425.1,328.8c-0.5-0.3-0.9-0.7-1.3-0.9c-2.3-1.5-4.2-1.4-5.7,0.4
			c-1.3,1.5-1.2,3.5,0.6,5.3c1.6,1.6,3.5,2.9,5.3,4.3c0.3,0.2,0.9,0.4,1.2,0.2c2.9-1.7,5.9-3.4,7.1-6.7c0.4-1-0.3-2.8-1.1-3.6
			c-0.7-0.7-2.3-0.8-3.5-0.6C426.8,327.3,426.1,328.2,425.1,328.8z M415.4,309.3c0.6,3.9,4.1,6.5,9,6.6c4.8,0.1,8.7-2.4,9.3-5.8
			c-3.2-1.1-6.3-2.3-9.8-3.5C421.9,308.8,418.8,309.6,415.4,309.3z"/>
		<path class="st4" d="M451.1,324.4c0.6,0,1.2,0,1.8,0c2.6-0.2,4.7,0.5,6,2.9c1.3,2.5,1.4,5.3-0.6,7.2c-2.6,2.5-5.8,4.4-8.8,6.5
			c-0.3,0.2-1.1,0.1-1.4-0.2c-2.8-2-5.8-3.8-8.2-6.2c-2.1-2-2.6-4.8-1.2-7.6c1.4-2.7,4-2.7,6.5-2.6c0.4,0,0.9,0,1.4,0
			c0.8-1.6,0.3-2.4-1.5-2.3c-1.8,0-3.5,0.1-5.3,0c-1.3-0.1-2.5-0.2-2.5-2.1c0-1.6,0.6-2.5,2.3-2.5c1.8,0,3.5,0,4.7,0
			c-1.4-1.7-3.1-3.5-4.5-5.4c-1.5-2-1.9-4.4-1.7-7.1c7.2,0,14.4,0,21.7,0c0.2,5.6-1.9,9.7-7.1,12c0.1,0.2,0.1,0.3,0.2,0.5
			c1.7,0,3.4,0,5.2,0c1.7,0,2.7,0.7,2.5,2.6c-0.1,1.7-1.1,2.2-2.7,2.1c-1.7-0.1-3.4,0-5.1-0.1C451,322.2,450.5,322.9,451.1,324.4z
			 M448.8,328.8c-0.8-0.5-1.5-1.1-2.3-1.5c-1.7-0.9-3.3-0.5-4.6,0.8c-1.4,1.3-1.3,3-0.2,4.2c1.8,2.1,4,3.8,6.1,5.7
			c0.2,0.2,1,0.3,1.2,0.1c2.3-1.9,4.7-3.8,6.7-6c1.3-1.4,0.6-3-0.7-4.3c-1.3-1.3-2.7-1.3-4.2-0.4
			C450.1,327.8,449.5,328.3,448.8,328.8z M444.6,308.2c-0.1-0.2-0.2-0.4-0.2-0.5c-1.3,0.4-2.7,0.6-3.7,1.3c-0.5,0.4-0.5,2-0.1,2.8
			c1.7,3.1,4.4,4.9,8,4.9c3.7,0,6.6-1.3,8.4-4.6c0.5-1,1.1-2.2-0.3-3.1c-1.2-0.8-2.4-2.1-3.9-0.2c-0.2-0.7-0.5-1.3-0.8-2.2
			c-0.5,0.9-0.7,1.5-1.2,2.4c-0.4-3.9-1.3-1.9-2.1-0.5c-0.3-0.6-0.5-1-0.8-1.6c-0.4,0.7-0.7,1.2-1.1,1.8c-0.5-0.6-0.9-1.2-1.3-1.8
			C445.1,307.3,444.8,307.8,444.6,308.2z"/>
		<path class="st4" d="M427.8,313.4c-0.6-0.9-1.3-1.5-1.2-2c0.1-0.5,0.9-0.9,1.4-1.3c0.4,0.5,1.2,1,1.2,1.5
			C429.3,312,428.5,312.5,427.8,313.4z"/>
		<path class="st4" d="M421.3,309.4c0.7,0.8,1.4,1.4,1.4,1.9c0,0.5-0.8,1.3-1.3,1.3c-0.5,0-1.3-0.7-1.4-1.2
			C420,310.8,420.7,310.2,421.3,309.4z"/>
		<path class="st4" d="M447.3,312c-0.9,0.5-1.5,1.2-2,1.1c-0.5-0.1-1.2-1-1.1-1.4c0-0.5,0.9-1.2,1.4-1.2
			C446,310.5,446.5,311.2,447.3,312z"/>
		<path class="st4" d="M454.4,311.8c-0.8,0.7-1.3,1.4-1.8,1.4c-0.5,0-1.3-0.8-1.3-1.2c0-0.5,0.7-1.3,1.2-1.4
			C452.9,310.5,453.5,311.2,454.4,311.8z"/>
	</g>
</g>
</svg>
